<svg width="180" height="72" viewBox="0 0 180 72" fill="none" xmlns="http://www.w3.org/2000/svg">
<path fill-rule="evenodd" clip-rule="evenodd" d="M39.1411 25H48.8604C52.7959 25 55.9995 28.2036 55.999 32.1401V41.8599C55.999 45.7959 52.7954 49 48.8599 49H39.1411C35.2021 49 32 45.7959 32 41.8599V32.1401C32 28.2036 35.2021 25 39.1411 25ZM51.5673 40.0565L51.5762 39.9496H53.2682V40.7131C53.2682 41.9713 53.1256 42.7363 52.776 43.3527C52.3813 44.0474 51.6129 44.4797 50.7691 44.4797C49.9586 44.4797 49.205 44.0846 48.7019 43.3948C48.3909 42.9675 48.131 42.3966 47.873 41.5613C47.2585 42.4075 46.6084 43.0591 45.8959 43.5295C44.7931 44.2589 43.6038 44.6292 42.3575 44.6292C40.2184 44.6292 38.5854 43.9385 37.2198 42.4555C35.9106 41.0364 35.2466 39.1529 35.2466 36.8598C35.2466 34.801 35.9458 32.9496 37.2693 31.5067C38.5993 30.055 40.2823 29.3192 42.2718 29.3192C43.7132 29.3192 44.907 29.7841 45.9221 30.7383C46.5044 31.2864 47.0288 32.0663 47.357 32.7679C47.3744 32.804 47.3912 32.8417 47.4076 32.8798C47.7358 31.3191 48.0998 29.6034 48.0998 29.6034H52.0397C52.0397 29.6034 49.9635 36.9202 49.2906 39.2044C49.5283 39.8585 49.763 40.2194 50.0239 40.52C50.2413 40.7715 50.5077 40.8943 50.839 40.8943C51.2722 40.8943 51.5332 40.4729 51.5673 40.0565ZM42.7165 42.7482C43.5949 42.7482 44.3747 42.2867 44.9719 41.4122C45.5591 40.5537 46.0424 39.0632 46.5366 36.5979C46.1429 34.7742 45.5933 33.3556 44.9432 32.497C44.3366 31.6969 43.639 31.3255 42.7452 31.3255C41.741 31.3255 40.9963 31.7682 40.4021 32.7164C39.7698 33.7265 39.449 35.1412 39.449 36.9212C39.449 38.8627 39.7515 40.3497 40.3492 41.3419C40.9191 42.2897 41.693 42.7482 42.7165 42.7482ZM68.0145 29.9509C67.7422 28.7244 66.9688 27.8678 65.2714 27.8678C63.6745 27.8678 62.7996 28.7244 62.5272 29.9509L61.2948 35.5026H62.6124C62.913 35.5026 63.212 35.2629 63.2764 34.9693L63.5255 33.8398H67.0168L67.2663 34.9693C67.3307 35.2624 67.6293 35.5026 67.9298 35.5026H69.2479L68.0145 29.9509ZM63.8706 32.2752L64.3048 30.3089C64.3747 29.991 64.6222 29.5053 65.2719 29.5053C65.921 29.5053 66.1681 29.9905 66.2389 30.3089L66.6727 32.2752H63.8706ZM75.4348 29.7222H72.4956V33.0011C72.4956 34.5767 71.5954 35.5031 70.3506 35.5031H70.0045L69.6668 33.9018L70.0396 33.8127C70.4432 33.732 70.6754 33.4111 70.6754 32.907V29.1399C70.6754 28.5393 71.1676 28.0481 71.7672 28.0481H77.254V35.5026H75.4348V29.7222ZM93.0676 28.048H92.4046V27.1815H91.1311C90.8305 27.1815 90.5849 27.4256 90.5849 27.7266V28.048H89.9219C87.6729 28.048 86.2672 29.581 86.2672 31.775C86.2672 33.9695 87.6729 35.5025 89.9219 35.5025H90.5849V36.4061H91.8585C92.159 36.4061 92.4046 36.1605 92.4046 35.8615V35.5025H93.0676C95.3166 35.5025 96.7218 33.9695 96.7218 31.775C96.7218 29.581 95.3166 28.048 93.0676 28.048ZM89.9219 33.8561C88.6761 33.8561 88.0869 33.0678 88.0869 31.775C88.0869 30.4831 88.6761 29.6949 89.9219 29.6949H90.5849V33.8561H89.9219ZM93.0676 33.8561H92.4046V29.6949H93.0676C94.3139 29.6949 94.9012 30.4831 94.9012 31.775C94.9012 33.0678 94.3134 33.8561 93.0676 33.8561ZM80.2894 29.9384H82.9008C84.6794 29.9384 85.6816 31.1342 85.6816 32.7207C85.6816 34.3076 84.4873 35.5029 82.9008 35.5029H79.0159C78.7158 35.5029 78.4697 35.2573 78.4697 34.9573V28.0489H80.2894V29.9384ZM80.2894 33.8293H82.9008C83.3445 33.8293 83.8624 33.4307 83.8624 32.7202C83.8624 32.0091 83.3445 31.612 82.9008 31.612H80.2894V33.8293ZM103.508 29.9509C103.235 28.7244 102.462 27.8678 100.764 27.8678C99.1689 27.8678 98.2935 28.7244 98.0201 29.9509L96.7877 35.5026H98.1063C98.4059 35.5026 98.7054 35.2629 98.7688 34.9693L99.0184 33.8398H102.51L102.759 34.9693C102.823 35.2624 103.122 35.5026 103.422 35.5026H104.74L103.508 29.9509ZM99.3645 32.2752L99.7968 30.3089C99.8686 29.991 100.116 29.5053 100.764 29.5053C101.414 29.5053 101.66 29.9905 101.732 30.3089L102.165 32.2752H99.3645ZM114.585 40.7523C114.585 41.349 114.378 41.7793 114.057 42.0952C114.523 42.4586 114.839 42.9795 114.839 43.6445C114.839 44.9656 113.914 45.9628 112.52 45.9628L107.79 45.9618C107.49 45.9618 107.245 45.7162 107.245 45.4162V39.053C107.245 38.7524 107.49 38.5073 107.79 38.5073H112.239C113.561 38.5073 114.585 39.4313 114.585 40.7523ZM112.81 40.7895C112.81 40.326 112.479 40.0547 112.237 40.0547V40.0542H109.028V41.5238H112.237C112.479 41.4946 112.81 41.2564 112.81 40.7895ZM109.027 44.4159H112.383C112.625 44.4159 112.956 44.1431 112.956 43.6802C112.956 43.2127 112.625 42.9751 112.383 42.9453H109.027V44.4159ZM102.037 38.336C99.7873 38.336 98.2147 39.9379 98.2147 42.2349C98.2147 44.5309 99.7868 46.1342 102.037 46.1342H102.66C104.91 46.1342 106.482 44.5309 106.482 42.2349C106.482 39.9379 104.91 38.336 102.66 38.336H102.037ZM100.18 42.2349C100.18 40.898 100.893 39.876 102.147 39.876H102.551C103.804 39.876 104.516 40.898 104.516 42.2349C104.516 43.5718 103.804 44.5948 102.551 44.5948H102.147C100.892 44.5943 100.18 43.5718 100.18 42.2349ZM68.0771 38.5078L68.077 38.5073V38.5078H68.0771ZM68.3167 39.6348L68.0771 38.5078H75.0389L74.7992 39.6353C74.7358 39.9358 74.4383 40.1809 74.1387 40.1809H72.4953V45.9613H70.6751V40.1804H68.9787C68.6786 40.1804 68.3806 39.9353 68.3167 39.6348ZM129.375 38.5073V41.4673H125.834V38.5073H124.014V45.9618H125.834V43.0662H129.375V45.9618H131.195V38.5073H129.375ZM86.5125 38.3286C88.2113 38.3286 88.9833 39.1842 89.2561 40.4112L90.4885 45.9618H89.1709C88.8704 45.9618 88.5708 45.7232 88.5069 45.4296L88.2579 44.2996H84.7676L84.519 45.4296C84.4541 45.7232 84.1556 45.9618 83.855 45.9618H82.5369L83.7703 40.4112C84.0422 39.1847 84.9181 38.3286 86.5125 38.3286ZM85.1133 42.734L85.5464 40.7682C85.6167 40.4508 85.8638 39.9646 86.5135 39.9646C87.1631 39.9646 87.4102 40.4508 87.481 40.7692L87.9142 42.734H85.1133ZM121.978 40.4112C121.704 39.1842 120.932 38.3286 119.233 38.3286C117.637 38.3286 116.763 39.1847 116.49 40.4112L115.258 45.9618H116.576C116.876 45.9618 117.175 45.7232 117.239 45.4296L117.489 44.2996H120.98L121.23 45.4296C121.295 45.7232 121.593 45.9618 121.892 45.9618H123.212L121.978 40.4112ZM117.833 42.734L118.267 40.7682C118.339 40.4508 118.585 39.9646 119.233 39.9646C119.882 39.9646 120.13 40.4508 120.201 40.7692L120.634 42.734H117.833ZM68.6434 45.9628V45.9415L68.3844 44.821C68.3171 44.5279 68.0155 44.2892 67.716 44.2892H65.0882C63.9375 44.2892 63.2522 43.4301 63.2522 42.2353C63.2522 41.04 63.938 40.1814 65.0882 40.1814H66.8524C67.153 40.1814 67.454 39.9433 67.5214 39.6501L67.7853 38.5078H65.0882C62.9363 38.5078 61.4325 40.0403 61.4325 42.2348C61.4325 44.4303 62.9358 45.9628 65.0882 45.9628H68.6434ZM79.9171 38.5073L76.0326 38.5078C75.7316 38.5078 75.4865 38.7534 75.4865 39.0535V45.9623H77.3067V44.0713H79.9171C81.6977 44.0713 82.6994 42.8755 82.6994 41.2901C82.6994 39.7041 81.5036 38.5073 79.9171 38.5073ZM79.9171 42.3982H77.3067V40.1829H79.9171C80.3613 40.1829 80.8797 40.5795 80.8797 41.2906C80.8797 42.0006 80.3613 42.3982 79.9171 42.3982ZM142.701 44.3882H146.621C146.945 44.3882 147.199 44.5308 147.288 44.9205L147.531 45.9623H141.428C141.128 45.9623 140.882 45.7157 140.882 45.4156V39.0524C140.882 38.7519 141.128 38.5068 141.428 38.5068H147.531L147.288 39.5486C147.199 39.9387 146.944 40.0804 146.621 40.0804H142.701V41.5188H146.963V42.9567H142.701V44.3882ZM132.443 45.9618V38.5073H134.263V43.4256L137.416 38.947C137.593 38.7054 137.983 38.5073 138.286 38.5073H139.635V45.9618H137.814V41.044L134.661 45.5221C134.484 45.7638 134.093 45.9618 133.792 45.9618H132.443ZM98.5184 38.5078L95.9783 42.1952L98.5724 45.9618H96.8468C96.4858 45.9618 96.2318 45.8529 96.0085 45.5019L94.6552 43.3762H94.4131L93.0589 45.5019C92.8365 45.8529 92.5825 45.9618 92.2201 45.9618H90.5489L93.0891 42.274L90.4945 38.5078H92.2201C92.583 38.5078 92.8365 38.6173 93.0589 38.9678L94.4131 41.093H94.6552L96.0085 38.9678C96.2318 38.6178 96.4858 38.5078 96.8468 38.5078H98.5184Z" fill="#E31836"/>
</svg>
