<svg width="180" height="72" viewBox="0 0 180 72" fill="none" xmlns="http://www.w3.org/2000/svg">
<path d="M18 35.9604C18 30.4541 18 27.7009 19.1561 25.6366C19.9731 24.1777 21.1777 22.9731 22.6366 22.1561C24.7009 21 27.4541 21 32.9604 21C38.4667 21 41.2199 21 43.2842 22.1561C44.7431 22.9731 45.9477 24.1777 46.7648 25.6366C47.9208 27.7009 47.9208 30.4541 47.9208 35.9604C47.9208 41.4667 47.9208 44.2199 46.7648 46.2842C45.9477 47.7431 44.7431 48.9477 43.2842 49.7648C41.2199 50.9208 38.4667 50.9208 32.9604 50.9208C27.4541 50.9208 24.7009 50.9208 22.6366 49.7648C21.1777 48.9477 19.9731 47.7431 19.1561 46.2842C18 44.2199 18 41.4667 18 35.9604Z" fill="#E86E4D"/>
<path d="M25.3339 35.221C24.0909 34.8558 22.7815 35.6415 23.3902 36.3873L31.1887 45.9441C31.627 46.4812 32.816 46.6 33.5208 46.1771L41.6493 41.2998C42.3541 40.8769 42.156 40.1634 41.2609 39.9004L25.3339 35.221Z" fill="url(#paint0_linear_744_9996)"/>
<path d="M25.3339 36.6996C24.0909 37.0648 22.7815 36.2792 23.3902 35.5333L31.1887 25.9766C31.627 25.4394 32.816 25.3206 33.5208 25.7435L41.6493 30.6209C42.3541 31.0438 42.156 31.7572 41.2609 32.0202L25.3339 36.6996Z" fill="white"/>
<path d="M59.0679 42.0674C57.8518 42.0674 56.7994 41.8043 55.9107 41.2781C55.0337 40.7402 54.3555 39.9977 53.8761 39.0506C53.3967 38.0917 53.157 36.9867 53.157 35.7355C53.157 34.4727 53.3967 33.3677 53.8761 32.4205C54.3555 31.4617 55.0337 30.7133 55.9107 30.1754C56.7994 29.6375 57.8518 29.3686 59.0679 29.3686C60.5062 29.3686 61.6813 29.7194 62.5934 30.421C63.5055 31.1226 64.0843 32.1048 64.3298 33.3677H62.2601C62.0964 32.6544 61.7456 32.0873 61.2078 31.6663C60.6699 31.2453 59.9507 31.0349 59.0504 31.0349C57.8226 31.0349 56.852 31.4558 56.1387 32.2977C55.4255 33.128 55.0688 34.2739 55.0688 35.7355C55.0688 37.1855 55.4255 38.3256 56.1387 39.1558C56.852 39.986 57.8226 40.4011 59.0504 40.4011C59.9507 40.4011 60.6699 40.2023 61.2078 39.8048C61.7456 39.4072 62.0964 38.8635 62.2601 38.1736H64.3298C64.0843 39.3897 63.5055 40.3427 62.5934 41.0326C61.6813 41.7225 60.5062 42.0674 59.0679 42.0674Z" fill="black"/>
<path d="M66.1937 41.8569V29.2283H68.0529V34.5604C68.3453 34.0576 68.7487 33.6658 69.2632 33.3852C69.7894 33.0929 70.3682 32.9467 70.9996 32.9467C72.0403 32.9467 72.8588 33.2741 73.4552 33.9289C74.0515 34.5838 74.3497 35.5601 74.3497 36.8581V41.8569H72.508V37.051C72.508 35.3672 71.8357 34.5253 70.491 34.5253C69.7894 34.5253 69.2047 34.7708 68.737 35.262C68.281 35.7531 68.0529 36.4547 68.0529 37.3667V41.8569H66.1937Z" fill="black"/>
<path d="M80.4991 42.0674C79.6455 42.0674 78.8854 41.8803 78.2189 41.5061C77.5641 41.1203 77.0496 40.5882 76.6754 39.91C76.3012 39.2318 76.1141 38.4425 76.1141 37.5421C76.1141 36.6301 76.2954 35.8291 76.6579 35.1392C77.032 34.4493 77.5465 33.9114 78.2014 33.5255C78.8679 33.1396 79.6396 32.9467 80.5166 32.9467C81.3702 32.9467 82.1127 33.1396 82.7442 33.5255C83.3756 33.8997 83.8667 34.4025 84.2175 35.0339C84.5683 35.6654 84.7437 36.3611 84.7437 37.1212C84.7437 37.2381 84.7379 37.3667 84.7262 37.5071C84.7262 37.6357 84.7203 37.7818 84.7086 37.9456H77.9383C77.9967 38.7875 78.2715 39.4306 78.7626 39.8749C79.2654 40.3076 79.8442 40.5239 80.4991 40.5239C81.0253 40.5239 81.4638 40.407 81.8146 40.1731C82.177 39.9276 82.446 39.6001 82.6214 39.1909H84.4806C84.2467 40.0094 83.779 40.6935 83.0774 41.243C82.3875 41.7926 81.5281 42.0674 80.4991 42.0674ZM80.4991 34.4727C79.8793 34.4727 79.3298 34.6598 78.8503 35.0339C78.3709 35.3964 78.0786 35.946 77.9733 36.6827H82.8845C82.8494 36.0045 82.6097 35.4666 82.1653 35.069C81.721 34.6715 81.1656 34.4727 80.4991 34.4727Z" fill="black"/>
<path d="M89.5099 42.0674C88.7732 42.0674 88.1651 41.9446 87.6857 41.6991C87.2063 41.4535 86.8497 41.132 86.6158 40.7344C86.3819 40.3251 86.265 39.8808 86.265 39.4014C86.265 38.5594 86.5924 37.8929 87.2472 37.4018C87.9021 36.9107 88.8375 36.6651 90.0536 36.6651H92.3338V36.5073C92.3338 35.8291 92.1467 35.3204 91.7725 34.9813C91.41 34.6422 90.9364 34.4727 90.3518 34.4727C89.8373 34.4727 89.3871 34.6013 89.0012 34.8585C88.627 35.1041 88.399 35.4724 88.3172 35.9636H86.4579C86.5164 35.3321 86.7269 34.7942 87.0894 34.3499C87.4636 33.8939 87.9313 33.5489 88.4926 33.315C89.0655 33.0695 89.6911 32.9467 90.3693 32.9467C91.5854 32.9467 92.5267 33.2683 93.1932 33.9114C93.8597 34.5428 94.193 35.4081 94.193 36.5073V41.8569H92.5793L92.4215 40.366C92.1759 40.8455 91.8193 41.2489 91.3515 41.5763C90.8838 41.9037 90.2699 42.0674 89.5099 42.0674ZM89.8782 40.559C90.381 40.559 90.802 40.4421 91.1411 40.2082C91.4919 39.9626 91.7608 39.6411 91.9479 39.2435C92.1467 38.8459 92.2695 38.4074 92.3162 37.928H90.2465C89.5099 37.928 88.9837 38.0566 88.668 38.3139C88.3639 38.5711 88.2119 38.8927 88.2119 39.2786C88.2119 39.6761 88.3581 39.9919 88.6504 40.2257C88.9544 40.4479 89.3637 40.559 89.8782 40.559Z" fill="black"/>
<path d="M96.2512 45.7157V33.1572H97.9175L98.1104 34.5078C98.391 34.0985 98.7769 33.736 99.268 33.4203C99.7591 33.1046 100.391 32.9467 101.162 32.9467C102.004 32.9467 102.747 33.1455 103.39 33.5431C104.033 33.9406 104.536 34.4844 104.898 35.1743C105.272 35.8642 105.46 36.6476 105.46 37.5246C105.46 38.4016 105.272 39.185 104.898 39.8749C104.536 40.5531 104.033 41.091 103.39 41.4886C102.747 41.8745 101.998 42.0674 101.145 42.0674C100.467 42.0674 99.8644 41.9329 99.3382 41.664C98.8237 41.395 98.4144 41.015 98.1104 40.5239V45.7157H96.2512ZM100.829 40.4537C101.624 40.4537 102.279 40.1848 102.794 39.6469C103.308 39.0973 103.565 38.384 103.565 37.5071C103.565 36.9341 103.448 36.4254 103.214 35.9811C102.981 35.5368 102.659 35.1918 102.25 34.9462C101.841 34.689 101.367 34.5604 100.829 34.5604C100.034 34.5604 99.3791 34.8352 98.8646 35.3847C98.3618 35.9343 98.1104 36.6418 98.1104 37.5071C98.1104 38.384 98.3618 39.0973 98.8646 39.6469C99.3791 40.1848 100.034 40.4537 100.829 40.4537Z" fill="black"/>
<path d="M110.834 42.0674C109.735 42.0674 108.828 41.7985 108.115 41.2606C107.402 40.7227 106.993 40.0094 106.887 39.1207H108.764C108.858 39.5183 109.08 39.8632 109.431 40.1556C109.781 40.4362 110.243 40.5765 110.816 40.5765C111.377 40.5765 111.787 40.4596 112.044 40.2257C112.301 39.9919 112.43 39.7229 112.43 39.4189C112.43 38.9746 112.249 38.6764 111.886 38.5244C111.535 38.3607 111.044 38.2145 110.413 38.0859C109.922 37.9806 109.431 37.8403 108.939 37.6649C108.46 37.4895 108.057 37.244 107.729 36.9282C107.413 36.6008 107.256 36.1623 107.256 35.6128C107.256 34.8527 107.548 34.2213 108.133 33.7185C108.717 33.204 109.536 32.9467 110.588 32.9467C111.559 32.9467 112.342 33.1806 112.939 33.6483C113.547 34.116 113.903 34.7767 114.008 35.6303H112.219C112.161 35.2561 111.986 34.9638 111.693 34.7533C111.413 34.5428 111.033 34.4376 110.553 34.4376C110.085 34.4376 109.723 34.537 109.466 34.7358C109.208 34.9229 109.08 35.1684 109.08 35.4724C109.08 35.7765 109.255 36.0162 109.606 36.1916C109.968 36.367 110.442 36.5248 111.027 36.6651C111.611 36.7938 112.149 36.9458 112.64 37.1212C113.143 37.2849 113.547 37.5304 113.851 37.8579C114.155 38.1853 114.307 38.6647 114.307 39.2961C114.318 40.0913 114.008 40.7519 113.377 41.2781C112.757 41.8043 111.91 42.0674 110.834 42.0674Z" fill="black"/>
<path d="M120.296 42.0674C119.442 42.0674 118.682 41.8803 118.016 41.5061C117.361 41.1203 116.846 40.5882 116.472 39.91C116.098 39.2318 115.911 38.4425 115.911 37.5421C115.911 36.6301 116.092 35.8291 116.455 35.1392C116.829 34.4493 117.343 33.9114 117.998 33.5255C118.665 33.1396 119.436 32.9467 120.313 32.9467C121.167 32.9467 121.91 33.1396 122.541 33.5255C123.172 33.8997 123.664 34.4025 124.014 35.0339C124.365 35.6654 124.541 36.3611 124.541 37.1212C124.541 37.2381 124.535 37.3667 124.523 37.5071C124.523 37.6357 124.517 37.7818 124.505 37.9456H117.735C117.794 38.7875 118.068 39.4306 118.559 39.8749C119.062 40.3076 119.641 40.5239 120.296 40.5239C120.822 40.5239 121.261 40.407 121.611 40.1731C121.974 39.9276 122.243 39.6001 122.418 39.1909H124.277C124.044 40.0094 123.576 40.6935 122.874 41.243C122.184 41.7926 121.325 42.0674 120.296 42.0674ZM120.296 34.4727C119.676 34.4727 119.127 34.6598 118.647 35.0339C118.168 35.3964 117.875 35.946 117.77 36.6827H122.681C122.646 36.0045 122.407 35.4666 121.962 35.069C121.518 34.6715 120.962 34.4727 120.296 34.4727Z" fill="black"/>
<path d="M126.36 41.8569V33.1572H128.009L128.149 34.6832C128.418 34.1453 128.81 33.7243 129.324 33.4203C129.85 33.1046 130.453 32.9467 131.131 32.9467C132.183 32.9467 133.008 33.2741 133.604 33.9289C134.212 34.5838 134.516 35.5601 134.516 36.8581V41.8569H132.674V37.051C132.674 35.3672 131.984 34.5253 130.605 34.5253C129.915 34.5253 129.342 34.7708 128.886 35.262C128.441 35.7531 128.219 36.4547 128.219 37.3667V41.8569H126.36Z" fill="black"/>
<path d="M140.56 42.0674C139.718 42.0674 138.976 41.8686 138.333 41.4711C137.689 41.0735 137.187 40.5298 136.824 39.8399C136.462 39.15 136.28 38.3665 136.28 37.4895C136.28 36.6125 136.462 35.8349 136.824 35.1567C137.187 34.4668 137.689 33.9289 138.333 33.5431C138.987 33.1455 139.736 32.9467 140.578 32.9467C141.268 32.9467 141.87 33.0812 142.384 33.3501C142.91 33.6191 143.32 33.9991 143.612 34.4902V29.2283H145.471V41.8569H143.805L143.612 40.5064C143.331 40.9156 142.946 41.2781 142.454 41.5938C141.963 41.9095 141.332 42.0674 140.56 42.0674ZM140.893 40.4537C141.689 40.4537 142.338 40.179 142.84 39.6294C143.355 39.0798 143.612 38.3724 143.612 37.5071C143.612 36.6301 143.355 35.9226 142.84 35.3847C142.338 34.8352 141.689 34.5604 140.893 34.5604C140.098 34.5604 139.443 34.8352 138.929 35.3847C138.414 35.9226 138.157 36.6301 138.157 37.5071C138.157 38.08 138.274 38.5887 138.508 39.033C138.742 39.4774 139.063 39.8282 139.473 40.0854C139.894 40.331 140.367 40.4537 140.893 40.4537Z" fill="black"/>
<path d="M151.775 42.0674C150.921 42.0674 150.161 41.8803 149.495 41.5061C148.84 41.1203 148.326 40.5882 147.951 39.91C147.577 39.2318 147.39 38.4425 147.39 37.5421C147.39 36.6301 147.571 35.8291 147.934 35.1392C148.308 34.4493 148.823 33.9114 149.477 33.5255C150.144 33.1396 150.916 32.9467 151.793 32.9467C152.646 32.9467 153.389 33.1396 154.02 33.5255C154.652 33.8997 155.143 34.4025 155.494 35.0339C155.844 35.6654 156.02 36.3611 156.02 37.1212C156.02 37.2381 156.014 37.3667 156.002 37.5071C156.002 37.6357 155.996 37.7818 155.985 37.9456H149.214C149.273 38.7875 149.548 39.4306 150.039 39.8749C150.541 40.3076 151.12 40.5239 151.775 40.5239C152.301 40.5239 152.74 40.407 153.091 40.1731C153.453 39.9276 153.722 39.6001 153.897 39.1909H155.757C155.523 40.0094 155.055 40.6935 154.353 41.243C153.664 41.7926 152.804 42.0674 151.775 42.0674ZM151.775 34.4727C151.155 34.4727 150.606 34.6598 150.126 35.0339C149.647 35.3964 149.355 35.946 149.249 36.6827H154.16C154.125 36.0045 153.886 35.4666 153.441 35.069C152.997 34.6715 152.442 34.4727 151.775 34.4727Z" fill="black"/>
<path d="M157.839 41.8569V33.1572H159.505L159.663 34.8059C159.967 34.233 160.388 33.7828 160.926 33.4554C161.476 33.1163 162.136 32.9467 162.908 32.9467V34.8936H162.4C161.885 34.8936 161.423 34.9813 161.014 35.1567C160.616 35.3204 160.295 35.6069 160.049 36.0162C159.815 36.4137 159.698 36.9692 159.698 37.6825V41.8569H157.839Z" fill="black"/>
<defs>
<linearGradient id="paint0_linear_744_9996" x1="41.8414" y1="45.6489" x2="33.5424" y2="32.6243" gradientUnits="userSpaceOnUse">
<stop stop-color="white"/>
<stop offset="1" stop-color="#C4C4C4"/>
</linearGradient>
</defs>
</svg>
