<svg width="180" height="72" viewBox="0 0 180 72" fill="none" xmlns="http://www.w3.org/2000/svg">
<g clip-path="url(#clip0)">
<path d="M76.5889 46.4395C76.4277 46.3769 76.1908 46.3184 75.8308 46.2297C75.9403 46.1791 76.1016 46.0758 76.2497 45.9517C76.3859 45.8384 76.5101 45.7075 76.5889 45.5969V46.4395V46.4395ZM72.621 43.8517C72.5956 43.9819 72.5834 44.1144 72.5845 44.2471V44.2628C72.2808 44.2351 71.9757 44.2264 71.671 44.2367C71.707 44.0744 71.744 43.9127 71.7831 43.7536C71.9856 43.7635 72.2725 43.7901 72.621 43.8517V43.8517ZM67.2122 43.3826C67.1561 43.5457 67.1188 43.7146 67.101 43.8861C66.8181 43.8714 66.5346 43.8714 66.2517 43.8861C66.3038 43.7035 66.3591 43.5235 66.4165 43.3435C66.6096 43.3398 66.8788 43.3466 67.2122 43.3826V43.3826ZM61.7329 43.2793C61.6885 43.4384 61.6087 43.7969 61.6087 43.7969C61.3211 43.7912 61.0334 43.8009 60.7468 43.8261C60.8031 43.6377 60.8657 43.4515 60.9283 43.2652C61.1287 43.2553 61.401 43.2548 61.7329 43.2793V43.2793ZM76.5889 26.2894L67.3249 29.9207C67.472 30.3172 67.5675 30.6903 67.6202 31.1238C67.137 31.3445 66.6435 31.6137 66.1786 31.8657C63.4374 30.4831 60.4431 29.5539 57.2762 29.0864C57.3403 28.9805 57.4056 28.8767 57.477 28.7765L53.4106 26.3906V24.4106H54.2485L58.0588 28.1275C58.5023 27.6381 59.0339 27.2301 59.6261 26.9254L58.185 24.4106H59.8082L60.4217 26.592C61.0526 26.3846 61.7158 26.293 62.3793 26.3217L62.3856 24.4106H63.7437L63.2313 26.4224C63.8986 26.5555 64.5221 26.809 65.0783 27.1591L66.6826 24.4106H68.9026L65.7492 27.6355C66.2553 28.0758 66.681 28.6054 67.0003 29.2012L75.2449 24.4106H76.5883V26.2889L76.5889 26.2894ZM76.5889 27.5598C74.2557 28.2052 69.9664 29.5946 67.8717 30.3219L67.8539 30.2541L76.5889 26.903V27.5603V27.5598ZM76.5889 28.9226C72.128 29.2962 68.6652 30.6704 68.0157 30.9L67.9984 30.8061C70.9327 29.5763 75.092 28.4557 76.5889 28.1922V28.9226V28.9226ZM76.5889 30.4289C72.3414 30.7445 68.3397 32.543 65.229 35.5586C62.989 37.7334 61.3208 40.4278 60.3727 43.4024C60.2045 42.9893 59.9171 42.6356 59.547 42.3865C59.177 42.1374 58.7412 42.0041 58.2951 42.0037C57.8621 42.0037 57.4588 42.1278 57.116 42.3412C58.2847 39.5437 60.1572 36.9955 62.6329 34.8929C66.4447 31.656 71.3683 29.7537 76.5894 29.4725V30.4289H76.5889ZM76.5889 31.3706C76.3864 31.393 76.0963 31.4212 75.8955 31.4515C75.8438 31.2991 75.7896 31.1489 75.7306 31.0012C75.9403 30.972 76.3786 30.901 76.5889 30.8791V31.3706ZM74.4675 31.2063C74.7015 31.1583 74.9363 31.1141 75.1718 31.0737C75.2329 31.2219 75.2903 31.3737 75.344 31.5287C75.1442 31.5647 74.8671 31.6205 74.6694 31.6633C74.6063 31.5083 74.539 31.3555 74.4675 31.2063V31.2063ZM73.2205 31.5037C73.4292 31.4463 73.711 31.3737 73.9212 31.3242C73.9932 31.4718 74.0621 31.6237 74.1278 31.7786C73.9035 31.8343 73.6802 31.8938 73.4579 31.957C73.3826 31.804 73.3033 31.653 73.22 31.5042L73.2205 31.5037ZM72.1223 31.8475C72.3283 31.776 72.5344 31.7061 72.7437 31.6409C72.8292 31.7885 72.9111 31.9409 72.9889 32.0969C72.7906 32.1595 72.595 32.2273 72.3993 32.2977C72.3112 32.145 72.219 31.9947 72.1228 31.847L72.1223 31.8475ZM71.0563 32.2565C71.2551 32.173 71.456 32.0943 71.6569 32.0181C71.756 32.1637 71.851 32.3155 71.9428 32.472C71.7539 32.5456 71.565 32.6233 71.3793 32.7052C71.275 32.5508 71.1675 32.4021 71.0563 32.2565V32.2565ZM70.0207 32.7391C70.2137 32.6426 70.4083 32.5482 70.6045 32.459C70.7177 32.6024 70.8263 32.7511 70.9332 32.9066C70.747 32.9932 70.5633 33.084 70.3812 33.1769C70.2643 33.0256 70.1443 32.8795 70.0207 32.7397V32.7391ZM69.0336 33.2718C69.2141 33.1675 69.3941 33.0637 69.5777 32.9656C69.705 33.1049 69.8282 33.253 69.9482 33.4059C69.777 33.4998 69.6075 33.5984 69.4395 33.6991C69.309 33.5522 69.1736 33.4097 69.0336 33.2718V33.2718ZM76.5889 32.892C71.7043 33.6678 67.605 37.8115 65.8875 43.4108C65.7202 42.9955 65.4327 42.6396 65.0618 42.3889C64.6909 42.1382 64.2535 42.004 63.8057 42.0037C63.3602 42.0037 62.9459 42.1341 62.5963 42.359C65.0381 36.48 70.4245 32.4214 76.5894 31.861V32.892H76.5889ZM76.5889 33.8708C76.4391 33.9021 76.291 33.937 76.1423 33.9762C76.0713 33.8198 75.9956 33.6657 75.9153 33.5139C76.076 33.4565 76.4151 33.3923 76.5889 33.349V33.8708V33.8708ZM74.9647 33.7894C75.1202 33.7362 75.2777 33.6861 75.4358 33.6407C75.5193 33.7936 75.5981 33.949 75.6727 34.1103C75.5287 34.1551 75.3852 34.2037 75.2423 34.2553C75.1536 34.0951 75.0612 33.9412 74.9647 33.7894V33.7894ZM73.9473 34.1927C74.1299 34.1097 74.3136 34.032 74.4988 33.959C74.5995 34.1123 74.6955 34.2699 74.7883 34.4322C74.6189 34.5026 74.4513 34.5776 74.2859 34.657C74.1774 34.4958 74.0642 34.3424 73.9478 34.1927H73.9473ZM73.0176 34.668C73.1777 34.5772 73.34 34.4906 73.5028 34.4071C73.6228 34.5574 73.7391 34.7139 73.8513 34.8772C73.7031 34.9565 73.5555 35.0395 73.4094 35.1277C73.2843 34.9702 73.1538 34.817 73.0181 34.6685L73.0176 34.668ZM76.5889 35.5591C74.2478 36.6522 72.3492 39.5421 71.3746 43.355C71.2004 42.9538 70.9128 42.6122 70.5471 42.3721C70.1815 42.1321 69.7537 42.004 69.3163 42.0037C68.8645 42.0037 68.4445 42.1383 68.0918 42.3699C69.7828 38.1496 72.9461 35.1616 76.5889 34.3638V35.5591ZM76.5889 36.8186C76.4323 36.935 76.3645 36.9412 76.2132 37.0784C76.0745 36.9096 75.9301 36.7455 75.7802 36.5864C75.9534 36.4357 76.3113 36.1847 76.5889 36.0934V36.8186ZM76.5889 42.8619C76.2298 42.4036 75.7061 42.1034 75.1291 42.0251C74.5521 41.9469 73.9673 42.0968 73.4991 42.443C74.2348 40.164 75.3299 38.3901 76.5889 37.427V42.8619ZM73.112 45.6908C73.2226 45.8217 73.3483 45.9386 73.4856 46.0424C72.4958 46.0169 71.756 46.1113 71.3308 46.2157C71.3522 46.045 71.371 45.913 71.3955 45.7461C71.6689 45.6981 72.2772 45.6235 73.112 45.6908ZM72.6435 44.7537C72.6784 44.905 72.729 45.0501 72.7932 45.1873C72.3529 45.1674 71.9117 45.1864 71.4748 45.2442C71.5045 45.0694 71.5363 44.8967 71.5697 44.725C71.7993 44.711 72.1692 44.7052 72.6435 44.7537V44.7537ZM72.8663 42.9433C72.8245 43.0883 72.7864 43.2344 72.7489 43.3847C72.47 43.3323 72.1883 43.2964 71.9052 43.2772C71.9511 43.1066 71.9991 42.9391 72.0492 42.7722C72.2616 42.8019 72.537 42.8546 72.8663 42.9433V42.9433ZM73.1391 42.0522C73.0922 42.193 73.0463 42.3355 73.0019 42.4795C72.7365 42.4065 72.4672 42.3484 72.1953 42.3052C72.2511 42.1362 72.3085 41.9682 72.3685 41.8038C72.5751 41.857 72.8365 41.9363 73.1391 42.0522ZM74.1602 42.6845C73.9052 42.9894 73.7814 43.3829 73.8162 43.7788C73.8509 44.1747 74.0412 44.5407 74.3454 44.7965C74.5072 44.932 74.6959 45.0318 74.8989 45.0894C75.1019 45.147 75.3149 45.1611 75.5237 45.1308C75.7326 45.1005 75.9327 45.0265 76.1111 44.9136C76.2894 44.8007 76.4419 44.6515 76.5586 44.4757C76.5148 44.8057 76.3778 45.1165 76.1637 45.3715C75.9881 45.5812 75.7662 45.7472 75.5155 45.8563C75.2647 45.9654 74.992 46.0147 74.7189 46.0002C74.4458 45.9858 74.1798 45.908 73.942 45.7729C73.7042 45.6379 73.5011 45.4494 73.3487 45.2223C73.1963 44.9953 73.0989 44.7358 73.0641 44.4646C73.0292 44.1933 73.058 43.9177 73.1481 43.6595C73.2383 43.4013 73.3872 43.1676 73.5832 42.977C73.7793 42.7863 74.017 42.6438 74.2776 42.5609C74.2363 42.5995 74.1967 42.6412 74.1602 42.6845V42.6845ZM75.3237 42.6167C75.3544 42.8562 75.4741 43.0755 75.659 43.2309C75.8439 43.3863 76.0805 43.4665 76.3217 43.4557C76.0817 43.6743 75.7113 43.6878 75.4557 43.4739C75.334 43.3713 75.2537 43.2281 75.2293 43.0709C75.2049 42.9136 75.2383 42.7529 75.3231 42.6183L75.3237 42.6167ZM75.2402 43.7301C75.5501 43.991 75.9737 44.0275 76.3165 43.8605C76.3077 43.871 76.3003 43.883 76.2915 43.8939C76.1361 44.0787 75.9137 44.1943 75.6732 44.2154C75.4327 44.2364 75.1936 44.1611 75.0085 44.0061C74.8236 43.8507 74.7078 43.6282 74.6868 43.3876C74.6658 43.1469 74.7411 42.9077 74.8963 42.7226C74.9052 42.7122 74.9151 42.7033 74.9245 42.6929C74.8191 43.0586 74.9297 43.4703 75.2402 43.7301V43.7301ZM74.7925 44.2633C74.9858 44.425 75.2236 44.5244 75.4745 44.5483C75.7254 44.5723 75.9777 44.5196 76.1981 44.3974C75.9995 44.6329 75.7157 44.78 75.4088 44.8066C75.1019 44.8332 74.797 44.7371 74.5609 44.5393C74.3251 44.341 74.1776 44.0574 74.1505 43.7505C74.1234 43.4437 74.219 43.1386 74.4163 42.9021C74.3342 43.1404 74.3261 43.3981 74.3933 43.6411C74.4604 43.884 74.5996 44.101 74.7925 44.2633ZM73.4663 41.1553C73.4089 41.2993 73.352 41.4464 73.2972 41.5967C73.0487 41.5016 72.7955 41.4192 72.5386 41.3499C72.608 41.1751 72.6795 41.004 72.7525 40.835C72.9873 40.9247 73.2257 41.0327 73.4663 41.1553V41.1553ZM73.9009 40.1817C73.8294 40.3294 73.7198 40.5537 73.653 40.7087C73.4177 40.5887 73.1824 40.4838 72.9503 40.3941C73.0332 40.2183 73.159 39.972 73.2466 39.804C73.4637 39.9146 73.6828 40.0424 73.9009 40.1817V40.1817ZM74.4127 39.2494C74.3323 39.3877 74.1957 39.6021 74.119 39.7487C73.905 39.613 73.6901 39.4894 73.4772 39.3798C73.5717 39.2113 73.7266 38.9739 73.8257 38.8153C74.0235 38.9468 74.2191 39.0929 74.4127 39.2494ZM74.865 37.4572C75.0043 37.296 75.2459 37.0753 75.3915 36.9313C75.5428 37.0915 75.6894 37.2595 75.8323 37.4348C75.7103 37.5631 75.4922 37.7682 75.3748 37.9106C75.2111 37.7525 75.041 37.601 74.865 37.4567V37.4572ZM75.0774 38.2946C74.9678 38.4459 74.7711 38.6703 74.6663 38.8341C74.4804 38.6853 74.2884 38.5443 74.0908 38.4115C74.2144 38.2325 74.4299 37.9946 74.5583 37.8292C74.7346 37.9743 74.9078 38.1303 75.0774 38.2946ZM76.5889 47.1908C76.2675 47.0781 75.1504 46.8167 73.7297 46.8C72.5454 46.787 71.6866 46.9216 71.241 47.0583L71.2781 46.6383C71.6365 46.5376 72.5125 46.379 73.773 46.4118C75.5099 46.4577 76.3718 46.74 76.5889 46.8136V47.1908ZM76.5889 47.5889H71.1957L71.2087 47.4997C71.673 47.3687 72.8282 47.2049 73.8805 47.2179C74.72 47.2268 75.981 47.4245 76.5889 47.5304V47.5889V47.5889ZM69.8183 42.6167C69.8499 42.8558 69.9698 43.0744 70.1546 43.2295C70.3393 43.3846 70.5754 43.4649 70.8163 43.4546C70.5769 43.6732 70.2059 43.6868 69.9508 43.4729C69.8292 43.3702 69.7488 43.2271 69.7244 43.0698C69.7001 42.9126 69.7334 42.7518 69.8183 42.6172V42.6167ZM69.7348 43.7301C70.0452 43.991 70.4689 44.0275 70.8111 43.8605C70.8028 43.871 70.7955 43.883 70.7866 43.8939C70.6311 44.0788 70.4087 44.1944 70.1681 44.2154C69.9274 44.2364 69.6883 44.1612 69.5031 44.0061C69.3183 43.8506 69.2027 43.6282 69.1816 43.3875C69.1606 43.1469 69.2359 42.9078 69.391 42.7226L69.4197 42.6929C69.3143 43.0586 69.4249 43.4703 69.7353 43.7301H69.7348ZM69.2877 44.2633C69.481 44.425 69.7187 44.5244 69.9696 44.5483C70.2205 44.5723 70.4728 44.5196 70.6932 44.3974C70.4947 44.633 70.2109 44.7802 69.9039 44.8068C69.597 44.8334 69.2921 44.7372 69.056 44.5393C68.8203 44.3409 68.6729 44.0573 68.6459 43.7504C68.6189 43.4436 68.7146 43.1385 68.912 42.9021C68.8298 43.1404 68.8216 43.398 68.8887 43.641C68.9557 43.884 69.0948 44.1009 69.2877 44.2633V44.2633ZM70.6588 45.3715C70.4833 45.5812 70.2613 45.7472 70.0106 45.8563C69.7598 45.9654 69.4871 46.0147 69.214 46.0002C68.941 45.9858 68.675 45.908 68.4372 45.7729C68.1993 45.6379 67.9962 45.4494 67.8438 45.2223C67.6914 44.9953 67.594 44.7358 67.5592 44.4646C67.5244 44.1933 67.5532 43.9177 67.6433 43.6595C67.7334 43.4013 67.8824 43.1676 68.0784 42.977C68.2744 42.7863 68.5121 42.6438 68.7727 42.5609C68.6198 42.7064 68.4993 42.8825 68.419 43.0777C68.3388 43.2729 68.3006 43.4829 68.307 43.6939C68.3134 43.9048 68.3642 44.1121 68.4562 44.3021C68.5481 44.4921 68.6791 44.6606 68.8405 44.7965C69.0024 44.932 69.191 45.0318 69.394 45.0894C69.5971 45.147 69.81 45.1611 70.0189 45.1308C70.2277 45.1005 70.4279 45.0265 70.6062 44.9136C70.7845 44.8007 70.937 44.6515 71.0537 44.4757C71.0098 44.8057 70.8728 45.1164 70.6588 45.3715ZM70.8226 46.3826C70.6843 46.344 70.5273 46.2976 70.3092 46.2558C70.5247 46.1494 70.7209 46.0106 70.8904 45.8447C70.8643 46.0325 70.845 46.1922 70.8226 46.3826V46.3826ZM67.364 45.3475C67.4777 45.5483 67.6217 45.7294 67.7903 45.8859C66.871 45.865 66.1729 45.9814 65.7628 46.0769C65.7983 45.8593 65.8374 45.6423 65.8797 45.4278C66.1588 45.3793 66.6753 45.3172 67.364 45.3475V45.3475ZM67.0797 44.3687C67.089 44.5383 67.1162 44.7021 67.1605 44.8586C66.7674 44.8491 66.3742 44.8705 65.9845 44.9228C66.0252 44.7402 66.0701 44.5597 66.116 44.3812C66.4365 44.354 66.7585 44.3498 67.0797 44.3687V44.3687ZM67.544 42.4497C67.485 42.6037 67.4271 42.7586 67.3718 42.9157C67.0557 42.877 66.788 42.8635 66.5757 42.8603C66.6357 42.6882 66.6983 42.5186 66.7635 42.349C66.9591 42.3621 67.2237 42.3908 67.5445 42.4497H67.544ZM67.9473 41.4903C67.8717 41.6562 67.7991 41.8242 67.7282 41.9937C67.4719 41.9427 67.2131 41.9051 66.9529 41.881C67.0301 41.6963 67.1094 41.5132 67.1923 41.3343C67.387 41.3614 67.6426 41.4104 67.9473 41.4908V41.4903ZM68.3923 40.5897C68.3121 40.7414 68.2342 40.8943 68.1586 41.0483C67.9112 40.9792 67.6604 40.9226 67.4073 40.8788C67.4908 40.7087 67.5763 40.5397 67.6645 40.3727C67.8628 40.4212 68.109 40.4896 68.3923 40.5897V40.5897ZM68.8943 39.7132C68.8045 39.8598 68.7158 40.0096 68.6287 40.1614C68.3558 40.0623 68.1132 39.9897 67.9071 39.9365C68.0042 39.7696 68.1033 39.6042 68.2045 39.4424C68.3965 39.5061 68.6303 39.5937 68.8943 39.7127V39.7132ZM69.4181 38.915C69.3283 39.0423 69.2417 39.1706 69.1557 39.301C68.9326 39.1986 68.7051 39.1061 68.4737 39.024C68.5687 38.881 68.6647 38.7402 68.7638 38.6014C68.948 38.6791 69.1697 38.7814 69.4181 38.9144V38.915ZM70.0457 38.0833C69.9291 38.2269 69.8151 38.3726 69.704 38.5205C69.4635 38.3901 69.2449 38.2847 69.0555 38.2017C69.1807 38.0384 69.3075 37.8783 69.4369 37.7212C69.6398 37.8292 69.8428 37.9508 70.0457 38.0833ZM70.7052 37.3268C70.5878 37.4525 70.472 37.5809 70.3583 37.7118C70.1638 37.5823 69.9639 37.461 69.7593 37.3482C69.885 37.2052 70.0144 37.0664 70.1454 36.9308C70.3322 37.0508 70.52 37.1838 70.7052 37.3273V37.3268ZM71.4096 36.6287C71.2854 36.7424 71.1633 36.8593 71.0438 36.9788C70.8652 36.8394 70.6811 36.7073 70.4918 36.5828C70.6249 36.4539 70.7595 36.3282 70.8962 36.2066C71.0683 36.336 71.2405 36.4779 71.4096 36.6292V36.6287ZM72.1186 35.2346C72.2751 35.1261 72.4332 35.0212 72.5934 34.9216C72.7317 35.0677 72.8663 35.2216 72.9962 35.3843C72.8527 35.4788 72.7108 35.5769 72.571 35.6786C72.4256 35.5254 72.2747 35.3775 72.1186 35.2351V35.2346ZM72.1823 35.9703C72.0433 36.0792 71.9067 36.1913 71.7727 36.3063C71.6057 36.1565 71.4383 36.0151 71.2682 35.8837C71.4169 35.7616 71.5671 35.641 71.721 35.5252C71.8776 35.6635 72.0315 35.8127 72.1823 35.9703V35.9703ZM70.7475 47.1443C69.8737 46.9184 68.9755 46.8004 68.073 46.7932C66.9252 46.7797 66.0842 46.908 65.6277 47.0437C65.6464 46.8715 65.6626 46.7656 65.6856 46.596C66.0403 46.4984 66.9174 46.248 68.1586 46.3283C69.4233 46.4118 70.4021 46.5892 70.7788 46.7249C70.7694 46.824 70.7548 47.0452 70.7475 47.1443V47.1443ZM70.7063 47.5889H65.5755L65.5911 47.4376C66.0477 47.3306 67.2325 47.1814 68.0746 47.1908C68.8729 47.2007 70.2294 47.3619 70.7146 47.4845C70.7146 47.4845 70.7099 47.5226 70.7063 47.5889V47.5889ZM64.3134 42.6167C64.3448 42.8559 64.4647 43.0747 64.6494 43.2298C64.8342 43.3849 65.0704 43.4651 65.3115 43.4546C65.1938 43.5618 65.0412 43.6226 64.8821 43.626C64.723 43.6294 64.568 43.575 64.4459 43.4729C64.3243 43.3702 64.2439 43.2271 64.2196 43.0698C64.1952 42.9126 64.2285 42.7518 64.3134 42.6172V42.6167ZM64.2299 43.7301C64.5403 43.991 64.964 44.0275 65.3063 43.8605C65.2979 43.871 65.2906 43.883 65.2817 43.8939C65.1263 44.0786 64.9039 44.1941 64.6634 44.2152C64.423 44.2362 64.1839 44.161 63.9988 44.0061C63.8138 43.8507 63.6981 43.6282 63.6771 43.3876C63.656 43.1469 63.7314 42.9077 63.8866 42.7226C63.8955 42.7122 63.9049 42.7033 63.9148 42.6929C63.8094 43.0586 63.92 43.4703 64.2299 43.7301V43.7301ZM63.7823 44.2633C63.9757 44.4251 64.2135 44.5245 64.4645 44.5484C64.7155 44.5723 64.9679 44.5197 65.1883 44.3974C64.9898 44.6329 64.7059 44.78 64.3991 44.8066C64.0922 44.8332 63.7873 44.7371 63.5511 44.5393C63.3154 44.341 63.1678 44.0574 63.1407 43.7505C63.1137 43.4437 63.2093 43.1386 63.4066 42.9021C63.3244 43.1404 63.3163 43.398 63.3834 43.6409C63.4505 43.8839 63.5895 44.1009 63.7823 44.2633V44.2633ZM65.1539 45.3715C64.9784 45.5812 64.7565 45.7472 64.5057 45.8563C64.255 45.9654 63.9823 46.0147 63.7092 46.0002C63.4361 45.9858 63.1701 45.908 62.9323 45.7729C62.6945 45.6379 62.4913 45.4494 62.339 45.2223C62.1866 44.9953 62.0891 44.7358 62.0543 44.4646C62.0195 44.1933 62.0483 43.9177 62.1384 43.6595C62.2285 43.4013 62.3775 43.1676 62.5735 42.977C62.7695 42.7863 63.0072 42.6438 63.2678 42.5609C63.1148 42.7063 62.9943 42.8824 62.914 43.0776C62.8337 43.2729 62.7955 43.4829 62.8019 43.6939C62.8083 43.9049 62.8591 44.1121 62.9511 44.3021C63.0431 44.4921 63.1741 44.6606 63.3357 44.7965C63.4975 44.932 63.6861 45.0318 63.8892 45.0894C64.0922 45.147 64.3051 45.1611 64.514 45.1308C64.7229 45.1005 64.923 45.0265 65.1013 44.9136C65.2796 44.8007 65.4321 44.6515 65.5489 44.4757C65.5051 44.8057 65.3681 45.1165 65.1539 45.3715V45.3715ZM65.2238 46.403C65.1132 46.3612 64.9713 46.3117 64.795 46.2584C64.9791 46.1671 65.1487 46.0518 65.301 45.9157C65.2739 46.0774 65.2468 46.2397 65.2238 46.403ZM61.8403 45.3277C61.9504 45.527 62.0908 45.707 62.2541 45.864C61.3202 45.8395 60.6169 45.9579 60.2193 46.0529C60.2543 45.8494 60.2923 45.6475 60.3341 45.4477C60.5882 45.3955 61.1157 45.312 61.8403 45.3277V45.3277ZM61.5638 44.281C61.5664 44.4751 61.5951 44.664 61.6447 44.8435C61.1344 44.844 60.728 44.8894 60.4504 44.9343C60.499 44.7308 60.5485 44.5289 60.6033 44.329C60.9216 44.2889 61.2426 44.2728 61.5633 44.281H61.5638ZM62.119 42.2483C62.0433 42.433 61.9708 42.6203 61.9009 42.8087C61.6343 42.7838 61.3666 42.7733 61.099 42.7774C61.172 42.5791 61.2477 42.3803 61.3285 42.1831C61.52 42.1863 61.7892 42.2024 62.1195 42.2483H62.119ZM62.5489 41.2831C62.4685 41.4506 62.3887 41.6181 62.3136 41.7892C62.0552 41.7483 61.7948 41.7211 61.5336 41.7078C61.6144 41.5252 61.6969 41.3437 61.783 41.1631C61.9718 41.1819 62.2332 41.2169 62.5489 41.2831ZM63.0565 40.3023C62.9579 40.4786 62.8635 40.657 62.7706 40.8376C62.5195 40.7806 62.2658 40.7356 62.0104 40.703C62.1085 40.5115 62.2123 40.3242 62.3177 40.1358C62.504 40.1671 62.756 40.2183 63.0565 40.3017V40.3023ZM63.6132 39.3657C63.5073 39.5327 63.403 39.6997 63.3023 39.8708C63.0622 39.7998 62.819 39.74 62.5734 39.6913C62.683 39.5092 62.792 39.3266 62.9073 39.1477C63.1369 39.205 63.3737 39.2797 63.6132 39.3657V39.3657ZM64.2216 38.4772C64.1089 38.6327 63.9983 38.7903 63.8897 38.9494C63.6616 38.8633 63.4295 38.7879 63.1943 38.7235C63.3101 38.5534 63.429 38.3859 63.5506 38.2205C63.7713 38.2925 63.9962 38.3781 64.2216 38.4772V38.4772ZM64.891 37.6111C64.7637 37.7656 64.6395 37.9221 64.5174 38.0807C64.3001 37.9822 64.0787 37.8931 63.8537 37.8136C63.9857 37.644 64.123 37.4797 64.2607 37.3137C64.4694 37.4003 64.6797 37.501 64.891 37.6111ZM65.6245 36.7774C65.4845 36.9264 65.3471 37.0779 65.2123 37.2318C65.0063 37.1202 64.7986 37.0184 64.5925 36.9282C64.7376 36.7654 64.8837 36.6021 65.0339 36.443C65.2306 36.5426 65.4278 36.6558 65.6245 36.7774V36.7774ZM66.3988 36.0016C66.2537 36.1383 66.1103 36.2781 65.9704 36.419C65.7774 36.2974 65.5833 36.1852 65.3897 36.0824C65.4482 36.0245 65.505 35.9624 65.5645 35.905C65.6595 35.8127 65.7576 35.7271 65.853 35.6384C66.0357 35.7475 66.2177 35.8711 66.3988 36.0016V36.0016ZM67.2216 35.268C67.0656 35.3984 66.9117 35.532 66.7598 35.6677C66.5848 35.5383 66.4048 35.4158 66.2203 35.3003C66.3847 35.1563 66.5517 35.017 66.7207 34.8788C66.8897 34.9988 67.0562 35.1303 67.2216 35.268V35.268ZM68.047 33.8927C68.2322 33.7675 68.42 33.6475 68.6089 33.5301C68.7497 33.6642 68.8885 33.8077 69.0231 33.9563C68.8457 34.069 68.6704 34.1859 68.4967 34.3054C68.349 34.1603 68.1993 34.0226 68.047 33.8932V33.8927ZM68.096 34.5882C67.9306 34.7097 67.7663 34.8334 67.604 34.9602C67.4423 34.8219 67.2784 34.6925 67.1125 34.5699C67.2863 34.4358 67.4605 34.3038 67.6379 34.1765C67.7934 34.3054 67.9457 34.4431 68.096 34.5882ZM65.1304 47.099C64.7292 46.9706 63.8271 46.8083 62.5468 46.7932C61.3755 46.7802 60.525 46.9028 60.0748 47.0395C60.0962 46.8584 60.1134 46.753 60.139 46.573C60.4593 46.4828 61.3723 46.3049 62.671 46.367C63.8725 46.4243 64.9426 46.68 65.167 46.7713C65.1565 46.861 65.1398 47.0077 65.1304 47.099ZM65.0762 47.5894H60.0007C60.0174 47.509 60.0268 47.4548 60.0268 47.4548C60.5078 47.3343 61.5649 47.1965 62.5457 47.2075C63.4483 47.2179 64.581 47.3614 65.0887 47.4736L65.0762 47.5894ZM59.6574 46.5005C59.4763 46.4249 59.251 46.4118 59.0115 46.3722C59.2828 46.2803 59.5317 46.1384 59.7445 45.9574C59.6986 46.2235 59.6751 46.3784 59.6574 46.5005V46.5005ZM59.5572 47.137C58.5597 46.8167 56.6042 46.9675 55.8581 47.0838C55.8706 46.9779 55.8852 46.8725 55.8998 46.7666C56.6454 46.6017 58.6817 46.5047 59.601 46.8157C59.589 46.9158 59.5677 47.0369 59.5572 47.137V47.137ZM59.5123 47.5894H55.8007C55.8007 47.5857 55.8226 47.4678 55.8226 47.4657C56.4278 47.352 58.5372 47.2195 59.5306 47.4657L59.5123 47.5894ZM53.4106 44.8675V44.4344C53.9089 44.3228 55.1428 44.2231 55.8377 44.459C55.7897 44.6181 55.749 44.7522 55.7052 44.9123C55.2497 44.7402 53.9532 44.7767 53.4106 44.8675V44.8675ZM55.508 45.7513C54.7609 45.6522 53.6527 45.7393 53.4106 45.7617V45.3031C53.7539 45.2337 55.1897 45.1628 55.6097 45.2953C55.5315 45.612 55.568 45.431 55.508 45.7513V45.7513ZM55.3322 46.6701C55.1532 46.6419 53.5854 46.679 53.4106 46.7191V46.2355C53.5541 46.2026 54.957 46.115 55.4141 46.2005C55.3984 46.2809 55.3473 46.5866 55.3322 46.6701ZM55.209 47.5894H53.4106V47.1449C53.4106 47.1449 55.0437 47.1073 55.291 47.1183C55.2701 47.2837 55.2534 47.3358 55.209 47.5894ZM53.4106 43.655C53.8927 43.513 55.1344 43.3247 56.084 43.6393C56.037 43.7708 56.0016 43.8965 55.9577 44.0306C55.3097 43.7948 54.2214 43.86 53.4106 44.0431V43.655V43.655ZM53.4106 42.7769C53.9856 42.6005 55.4172 42.467 56.3647 42.731C56.3094 42.8995 56.2416 43.0315 56.1951 43.1734C55.3817 42.985 54.3075 43.0028 53.4106 43.2063V42.7769V42.7769ZM53.4122 41.9228C54.008 41.6901 55.2706 41.6536 55.9687 41.7031C56.0323 41.8544 56.12 42.0339 56.1722 42.1873C55.3687 42.1257 54.0842 42.1456 53.4106 42.3683L53.4122 41.9228V41.9228ZM53.4106 41.0932C53.9219 40.8809 54.908 40.7692 55.5299 40.7963C55.6066 40.932 55.6917 41.1089 55.7595 41.2477C55.0692 41.1955 54.0263 41.2915 53.4106 41.4877V41.0937V41.0932ZM53.4106 40.1823C53.7962 40.0294 54.5188 39.9548 54.9878 39.9673C55.0854 40.0988 55.1793 40.2334 55.2685 40.3701C54.6899 40.3654 53.9042 40.4823 53.4111 40.6508V40.1823H53.4106ZM53.4106 39.3845C53.6454 39.2817 54.0711 39.2332 54.3633 39.2139C54.4718 39.3313 54.5772 39.4513 54.68 39.575C54.2741 39.5812 53.7617 39.6376 53.4106 39.7471V39.3845V39.3845ZM53.4106 38.3734C53.4565 38.401 53.828 38.6656 53.9631 38.8117C53.7749 38.8321 53.5895 38.8737 53.4106 38.9358V38.3734V38.3734ZM53.4106 36.8692C54.4014 36.3798 55.915 36.097 56.7758 36.1231C56.912 36.2343 57.0471 36.3517 57.1812 36.4732C56.4597 36.4351 54.2803 36.8541 53.4106 37.3283V36.8692V36.8692ZM53.4106 35.9697C53.8802 35.8106 54.6237 35.5169 55.8351 35.4245C56.0209 35.5523 56.1555 35.6405 56.3146 35.7584C55.1882 35.8096 53.8979 36.2473 53.4106 36.4257V35.9697V35.9697ZM53.4106 35.1068C53.743 35.0202 54.2021 34.848 54.7656 34.8177C54.944 34.9028 55.123 35.0024 55.2988 35.0948C54.3007 35.2294 53.8473 35.3984 53.4106 35.5346V35.1068V35.1068ZM53.4106 34.3002C53.635 34.3706 53.8572 34.4551 54.0784 34.549C53.8332 34.596 53.6125 34.6456 53.4106 34.6983V34.3002V34.3002ZM53.4106 33.1899C53.6167 33.0329 55.2101 32.291 56.1409 32.0572C56.36 32.1188 56.5781 32.1845 56.7951 32.2539C55.4339 32.653 53.9339 33.4294 53.4106 33.696V33.1899V33.1899ZM53.4106 32.2722C53.8417 32.0804 54.2771 31.8986 54.7165 31.727C54.9576 31.7723 55.197 31.8209 55.436 31.8767C54.7483 32.1355 54.0847 32.3687 53.4117 32.7292V32.2722H53.4106ZM53.4106 31.5376C53.5812 31.5553 53.9188 31.595 54.0889 31.6184C53.9209 31.6878 53.5838 31.8329 53.4106 31.9085V31.5376V31.5376ZM53.4106 30.5056C53.8588 30.2797 54.8209 29.7835 55.8732 29.3635C56.1602 29.3974 56.4456 29.4344 56.7304 29.4746C55.327 29.9739 53.947 30.7383 53.4106 31.0106V30.5056V30.5056ZM53.4106 29.5883L54.1588 29.2028C54.4322 29.2038 54.7557 29.2351 55.0108 29.2732C54.3471 29.557 53.7915 29.8523 53.4106 30.0423V29.5883V29.5883ZM53.4106 28.0769L55.1527 28.848C54.1014 28.7661 53.4106 28.7843 53.4106 28.7843V28.0769V28.0769ZM54.8167 31.2882C54.5595 31.2412 54.3002 31.1995 54.0403 31.1635C54.7739 30.8003 56.1304 30.0157 57.5042 29.5946C57.7374 29.6337 57.9696 29.6739 58.2007 29.7177C56.8311 30.1231 55.363 31.0064 54.8167 31.2887V31.2882ZM56.1336 31.5877C55.9082 31.5273 55.6817 31.4713 55.4543 31.4197C56.576 30.7497 59.0683 29.8878 59.0683 29.8878C59.2885 29.9353 59.5087 29.9838 59.7268 30.0355C59.5045 30.0866 56.8379 31.1583 56.1336 31.5877V31.5877ZM57.3216 31.9513C57.1217 31.8822 56.9206 31.8167 56.7184 31.7546C57.2965 31.4713 59.2906 30.443 60.5177 30.2452C60.7077 30.2963 60.9643 30.3454 61.1532 30.3991C60.045 30.635 57.8532 31.643 57.3216 31.9513V31.9513ZM58.4083 32.3677C58.2329 32.2928 58.056 32.2214 57.8777 32.1537C58.5623 31.7134 60.9216 30.6981 61.8466 30.5833C62.0282 30.6412 62.4873 30.791 62.4873 30.791C61.2967 30.9923 59.3433 31.7948 58.4083 32.3677V32.3677ZM59.3527 32.7991C59.2134 32.7313 59.0741 32.6645 58.9337 32.5998C59.588 32.1261 61.7235 31.2031 63.1671 31.0503C63.2882 31.0962 63.7911 31.2595 63.9111 31.3054C62.6668 31.3539 60.4963 32.0838 59.3527 32.7991V32.7991ZM60.2558 33.2713C60.1097 33.1894 59.9637 33.1111 59.8155 33.0344C61.5894 31.9357 63.812 31.5757 64.4772 31.5407C64.5936 31.5892 65.1278 31.7932 65.2431 31.8443C64.4188 31.8918 61.7725 32.3014 60.2558 33.2713V33.2713ZM61.244 33.8692C61.1193 33.791 60.8736 33.6318 60.7473 33.5572C62.2603 32.6416 64.4402 32.197 65.6078 32.2148C65.4482 32.3024 64.9557 32.5795 64.7986 32.6718C63.4734 32.797 61.8299 33.4179 61.244 33.8692V33.8692ZM61.7052 34.1875C62.1101 33.9235 63.0278 33.457 63.9795 33.2875C63.6863 33.4753 62.7675 34.0607 62.1852 34.5626C62.072 34.4828 61.82 34.2637 61.7052 34.187V34.1875ZM60.5997 34.0017C60.7343 34.0805 60.8616 34.1619 60.991 34.2443C59.6558 34.4217 57.8449 35.2148 57.0544 35.7537C56.9063 35.6327 56.7883 35.5513 56.6083 35.4052C57.6852 34.7577 59.7419 33.9944 60.5997 34.0017ZM59.6955 33.4852C59.8066 33.5416 59.9631 33.6308 60.0962 33.7054C58.8492 33.9558 57.3701 34.5292 56.2348 35.1391C56.096 35.0451 55.9551 34.9543 55.8122 34.8668C57.0252 34.2094 58.6859 33.6277 59.6955 33.4857V33.4852ZM54.4103 34.1687C54.1536 34.0675 54.033 34.033 53.8134 33.959C54.9523 33.3146 56.1673 32.815 57.4301 32.472C57.6419 32.5492 57.8522 32.6301 58.0614 32.7162C56.9089 33.0198 55.2962 33.6146 54.4108 34.1682L54.4103 34.1687ZM54.979 34.3289C56.1353 33.7186 57.3657 33.2602 58.6395 32.965C58.8169 33.0449 58.9932 33.1289 59.168 33.2155C57.8965 33.5238 56.7351 33.9094 55.4751 34.5725L55.3859 34.62C55.2249 34.5338 55.0613 34.4524 54.8955 34.3758L54.979 34.3289V34.3289ZM57.7859 36.3923C57.6711 36.2833 57.5005 36.1362 57.3842 36.0334C57.8861 35.6296 59.8139 34.7603 61.4668 34.56C61.5711 34.6315 61.8007 34.7859 61.8743 34.8496C61.0123 34.991 59.0026 35.4412 57.7859 36.3923V36.3923ZM53.8906 38.1224C53.7377 38.0013 53.5792 37.8873 53.4158 37.7807C54.3967 37.2777 56.253 36.8588 57.5866 36.8551C57.7056 36.9715 57.8475 37.1489 57.9649 37.2725C56.5786 37.3492 55.0927 37.5402 53.8906 38.123V38.1224ZM54.6346 38.783C54.5209 38.662 54.402 38.5461 54.2783 38.4355C55.5837 37.6899 57.6925 37.6409 58.3677 37.6873C58.472 37.8057 58.7997 38.221 58.7997 38.221C57.0534 37.932 55.3797 38.3238 54.6346 38.783ZM55.2346 39.5003C55.1548 39.3976 55.0416 39.2447 54.9607 39.1487C55.6536 38.7282 57.1186 38.4579 58.5951 38.6546C58.4955 38.7887 58.3979 38.9447 58.3395 39.0344C57.0998 38.9045 55.9343 39.1586 55.2351 39.5003H55.2346ZM55.7459 40.2203C55.652 40.0743 55.604 39.9981 55.508 39.8624C56.3146 39.4127 57.608 39.3376 58.089 39.4242C57.9774 39.5927 57.9075 39.6976 57.801 39.8687C57.1562 39.8009 56.3647 39.9021 55.7464 40.2203H55.7459ZM56.2343 41.0082C56.1544 40.8642 56.083 40.7551 55.9943 40.6096C55.9943 40.6096 56.7195 40.2214 57.5548 40.3263C57.4817 40.4515 57.3127 40.775 57.3127 40.775C57.0231 40.7854 56.5103 40.873 56.2343 41.0082V41.0082ZM56.6856 42.0793C56.6438 41.9003 56.443 41.4704 56.4017 41.3828C56.4017 41.3828 56.7837 41.2706 57.0534 41.2748C56.9626 41.4642 56.8108 41.784 56.6856 42.0793ZM56.097 45.6313C56.1346 45.4508 56.1743 45.2713 56.2176 45.0929C56.2917 45.2755 56.3897 45.444 56.5071 45.5979L56.3543 45.6094L56.097 45.6313V45.6313ZM56.3803 46.019L56.8635 45.9741C57.019 46.1024 57.1922 46.2099 57.3779 46.2934C56.8139 46.3127 56.2927 46.3649 55.9515 46.4134C55.9713 46.2923 55.9906 46.1708 56.0125 46.0508L56.3803 46.0195V46.019ZM57.6456 42.6856C57.3903 42.9903 57.2665 43.3838 57.3011 43.7798C57.3357 44.1757 57.526 44.5418 57.8303 44.7976C57.9921 44.9331 58.1808 45.033 58.3839 45.0906C58.587 45.1483 58.7999 45.1624 59.0089 45.1321C59.2178 45.1019 59.418 45.0278 59.5964 44.9149C59.7748 44.8019 59.9273 44.6526 60.044 44.4767C60.0003 44.8067 59.8635 45.1175 59.6496 45.3725C59.349 45.7307 58.9185 45.9548 58.4527 45.9956C57.9869 46.0363 57.524 45.8904 57.1658 45.5898C56.8076 45.2893 56.5835 44.8588 56.5428 44.393C56.502 43.9272 56.648 43.4643 56.9485 43.1061C57.1625 42.8507 57.4451 42.6618 57.763 42.5619C57.7217 42.6005 57.6826 42.6423 57.6456 42.6856ZM58.8085 42.6177C58.8399 42.857 58.9598 43.0757 59.1446 43.2308C59.3294 43.386 59.5656 43.4662 59.8066 43.4557C59.5666 43.6743 59.1962 43.6878 58.941 43.4739C58.8194 43.3713 58.739 43.2281 58.7147 43.0709C58.6903 42.9136 58.7237 42.7529 58.8085 42.6183V42.6177ZM58.725 43.7311C59.0355 43.992 59.4591 44.0285 59.8019 43.8616C59.793 43.872 59.7852 43.884 59.7769 43.895C59.6214 44.0798 59.3989 44.1954 59.1583 44.2165C58.9177 44.2375 58.6786 44.1622 58.4934 44.0071C58.3085 43.8517 58.1929 43.6292 58.172 43.3885C58.151 43.1478 58.2265 42.9087 58.3817 42.7237C58.3906 42.7132 58.4005 42.7043 58.4099 42.6939C58.3045 43.0597 58.4151 43.4713 58.725 43.7311ZM58.2779 44.2643C58.4712 44.4261 58.709 44.5254 58.9599 44.5494C59.2108 44.5733 59.4631 44.5207 59.6835 44.3984C59.485 44.634 59.2011 44.7813 58.8942 44.8079C58.5873 44.8345 58.2823 44.7383 58.0463 44.5403C57.8105 44.3421 57.663 44.0584 57.6359 43.7516C57.6088 43.4447 57.7044 43.1397 57.9017 42.9031C57.8196 43.1414 57.8115 43.399 57.8785 43.642C57.9456 43.885 58.0846 44.1019 58.2774 44.2643H58.2779ZM60.1875 36.6146C59.565 37.2433 59.3224 37.609 59.1221 37.8652C59.0183 37.7426 58.9077 37.596 58.8023 37.4786C59.2358 37.044 59.8056 36.7351 60.1875 36.6146ZM58.4501 37.0685C58.3614 36.9746 58.2101 36.7962 58.1203 36.7075C59.168 35.784 60.8323 35.4882 61.3943 35.3619C61.184 35.5497 60.6576 36.0783 60.6576 36.0783C60.6576 36.0783 59.5713 36.2082 58.4506 37.0685H58.4501ZM53.4106 26.9525L56.851 28.9706C56.839 28.9931 56.8274 29.0157 56.816 29.0384L53.4106 27.5875V26.953V26.9525ZM55.5466 24.4106L58.1094 27.42C58.0952 27.4337 58.0808 27.4471 58.0661 27.4602L54.9398 24.4106H55.5466ZM56.6579 24.4106L58.5257 27.0663L58.4762 27.107L56.1805 24.4106H56.6579V24.4106ZM57.6283 24.4106L58.9723 26.7553C58.9546 26.7657 58.9358 26.7757 58.9191 26.7877L57.248 24.4106H57.6289H57.6283ZM60.5261 24.4106L60.8157 25.9873C60.7958 25.992 60.777 25.9977 60.7572 26.003L60.3096 24.4101H60.5261V24.4106ZM61.2221 24.4106L61.3546 25.8913C61.3332 25.8934 61.3113 25.8955 61.2899 25.8986L61.0165 24.4106H61.2221ZM61.903 24.4106L61.8977 25.8464C61.8774 25.8464 61.8565 25.8464 61.8351 25.8485L61.7073 24.4106H61.9035H61.903ZM64.2414 24.4106H64.4762L63.8762 26.0979C63.8565 26.0912 63.8367 26.0849 63.8167 26.0791L64.2414 24.4106V24.4106ZM65.2624 24.4106L64.3937 26.2821L64.3317 26.256L64.988 24.4106H65.2624ZM66.1233 24.4106L64.8957 26.5158L64.833 26.483L65.7946 24.4106H66.1233ZM70.3363 24.4106L66.4609 27.6944C66.4452 27.6772 66.429 27.6621 66.4134 27.6443L69.5751 24.4106H70.3363V24.4106ZM72.1092 24.4106L66.8157 28.115L66.7739 28.0628L71.0803 24.4106H72.1092V24.4106ZM74.2906 24.4106L67.1308 28.5704C67.1183 28.5501 67.1047 28.5313 67.0922 28.511L72.9477 24.4111H74.2906V24.4106ZM53 48H77V24H53V48ZM85.7579 25.8386V30.2609H84.8261V25.0435H87.9565V25.8386H85.7579ZM94.9463 26.6369C94.9463 26.3781 94.8842 26.1803 94.761 26.0431C94.6379 25.907 94.4501 25.8386 94.1991 25.8386H93.4958V27.4497H94.2059C94.4579 27.4497 94.6442 27.3767 94.7642 27.2296C94.8857 27.0835 94.9468 26.8852 94.9468 26.6369H94.9463ZM95.7826 26.6551C95.7826 26.88 95.7497 27.0903 95.6856 27.2849C95.6214 27.48 95.5275 27.6501 95.4012 27.7946C95.276 27.9391 95.1163 28.0534 94.9233 28.1358C94.7313 28.2183 94.5075 28.2595 94.2503 28.2595H93.4958V30.2609H92.6522V25.0435H94.2059C94.4475 25.0435 94.665 25.0763 94.8576 25.1416C95.0501 25.2063 95.215 25.3049 95.3532 25.4369C95.491 25.5699 95.5974 25.7369 95.6715 25.9393C95.7456 26.1417 95.7826 26.3802 95.7826 26.6551V26.6551ZM102.499 27.0923C102.306 27.7768 102.108 28.4598 101.904 29.1412C101.831 29.3849 101.754 29.5805 101.672 29.7271C101.606 29.8536 101.518 29.9673 101.412 30.0631C101.328 30.1369 101.227 30.1893 101.118 30.216C101.006 30.242 100.891 30.257 100.776 30.2609H100.394V29.5591H100.674C100.764 29.561 100.852 29.5321 100.923 29.4772C100.994 29.4224 101.062 29.3155 101.125 29.1563C101.135 29.1261 101.146 29.0953 101.16 29.0624C101.174 29.0276 101.185 28.9917 101.194 28.955L99.9565 25.0435H100.763L101.214 26.6483L101.556 27.8723H101.59L101.744 27.2828L101.953 26.4798L102.164 25.6659C102.232 25.405 102.284 25.1979 102.321 25.0435H103.087C102.886 25.7301 102.69 26.413 102.499 27.0923V27.0923ZM110.057 30.2609V25.8308H108.638V30.2609H107.783V25.0435H110.913V30.2609H110.057ZM118.405 30.2609V25.8308H116.986V30.2609H116.13V25.0435H119.261V30.2609H118.405ZM125.53 27.3224L125.273 28.3717H126.285L126.035 27.3297L125.989 27.1054C125.966 26.995 125.943 26.8849 125.918 26.7751L125.843 26.449C125.825 26.3763 125.81 26.3027 125.8 26.2283H125.765L125.53 27.3224V27.3224ZM126.469 29.1365H125.096C125.086 29.1814 125.067 29.2565 125.039 29.3609C125.01 29.4663 124.981 29.5784 124.95 29.6984C124.919 29.8184 124.89 29.9311 124.864 30.036C124.846 30.1115 124.826 30.1864 124.804 30.2609H123.957L125.387 25.0435H126.171L127.609 30.2609H126.748L126.469 29.1365ZM86.6553 36V39.1075C86.6553 39.8817 86.7769 40.4228 87.0195 40.7317C87.2621 41.0405 87.6591 41.195 88.2096 41.195C88.425 41.195 88.676 41.161 88.9624 41.0932C89.2442 41.027 89.5142 40.9183 89.7633 40.7708V36H91.6087V46.9565H89.7633V42.3397C89.4624 42.4842 89.1439 42.5886 88.8158 42.6501C88.4722 42.7182 88.1227 42.7528 87.7723 42.7534C86.8014 42.7534 86.0668 42.4863 85.5706 41.9504C85.0755 41.4157 84.8261 40.5339 84.8261 39.3052V36H86.6553ZM101.128 37.6372V46.9565H99.2913V37.6372H96.8261V36H103.609V37.6372H101.128V37.6372ZM114.276 46.9565V37.6529H111.202V46.9565H109.348V36H116.13V46.9565H114.276ZM120.826 44.449C120.921 44.4188 121.045 44.3797 121.199 44.3337C121.351 44.2868 121.513 44.2357 121.682 44.1788C121.851 44.1219 122.012 44.0682 122.165 44.016C122.318 43.9649 122.442 43.9237 122.537 43.8929C122.622 44.3363 122.817 44.6797 123.124 44.9223C123.43 45.1643 123.795 45.2854 124.217 45.2854C124.693 45.2854 125.065 45.1372 125.334 44.8383C125.604 44.5409 125.738 44.1407 125.738 43.6372C125.738 43.4113 125.715 43.201 125.667 43.0059C125.623 42.8183 125.539 42.6423 125.422 42.4894C125.3 42.3362 125.142 42.2149 124.962 42.1357C124.772 42.0485 124.535 42.0047 124.249 42.0047H123.393V40.5037H124.265C124.709 40.5037 125.057 40.3743 125.311 40.1144C125.565 39.8557 125.692 39.4816 125.692 38.9937C125.692 38.5998 125.57 38.281 125.327 38.0374C125.083 37.7932 124.741 37.6722 124.296 37.6722C123.863 37.6722 123.507 37.7953 123.227 38.0431C122.947 38.2904 122.754 38.6103 122.648 39.0026L120.984 38.4141C121.164 37.6743 121.542 37.0868 122.118 36.6522C122.693 36.2176 123.43 36 124.328 36C125.353 36 126.14 36.2426 126.689 36.7278C127.239 37.213 127.513 37.9247 127.513 38.8633C127.513 39.0386 127.494 39.2395 127.458 39.467C127.42 39.6977 127.356 39.9234 127.268 40.14C127.176 40.3658 127.047 40.575 126.888 40.7593C126.717 40.9543 126.503 41.1053 126.262 41.1997V41.2617C126.526 41.365 126.745 41.507 126.919 41.6875C127.094 41.868 127.233 42.072 127.339 42.2984C127.444 42.5254 127.516 42.7607 127.553 43.0028C127.59 43.2449 127.609 43.4802 127.609 43.7071C127.609 44.2435 127.527 44.7125 127.363 45.1153C127.211 45.5015 126.972 45.848 126.665 46.1285C126.354 46.4083 125.987 46.6193 125.588 46.7478C125.171 46.8866 124.708 46.9565 124.202 46.9565C123.293 46.9565 122.54 46.7379 121.944 46.3007C121.346 45.863 120.973 45.2468 120.826 44.449V44.449Z" fill="#444A52"/>
</g>
<defs>
<clipPath id="clip0">
<rect width="74.6087" height="24" fill="white" transform="translate(53 24)"/>
</clipPath>
</defs>
</svg>
