<svg fill="none" height="72" viewBox="0 0 180 72" width="180" xmlns="http://www.w3.org/2000/svg"><path clip-rule="evenodd" d="m88.0827 28.0336c-3.6098.374-6.4257 2.6888-7.2513 5.9563-.2823 1.1221-.3247 2.3712-.1236 3.4898.4941 2.7029 2.2725 4.8378 4.9013 5.8822 2.1631.8575 4.8483.8434 6.9867-.0388 2.5794-1.0656 4.319-3.211 4.7813-5.8893.1941-1.1115.1411-2.3641-.1412-3.4898-.2399-.9492-.7163-1.9372-1.3232-2.7452-.3035-.4058-1.108-1.1998-1.5314-1.5138-1.2562-.9316-2.7382-1.4856-4.4249-1.655-.427-.0423-1.4432-.0388-1.8737.0036zm1.7467 4.2132c1.3796.2646 2.3288 1.2985 2.6076 2.844.1659.9245.0635 2.0149-.2646 2.7912-.3458.8116-.9598 1.4361-1.715 1.7467-.4516.1834-.7657.2364-1.4043.2364-.5152 0-.6458-.0106-.9175-.0812-1.362-.3529-2.2371-1.3656-2.5088-2.9076-.0777-.434-.0777-1.2738 0-1.7149.3105-1.729 1.3691-2.777 3.0028-2.9676.3035-.0353.8681-.0106 1.1998.053zm-33.2044-4.2309c-.0565.0071-.2576.0318-.4411.053-2.4418.2787-4.619 1.5631-5.8858 3.4721-1.1327 1.7044-1.5455 3.8604-1.1538 5.9987.6386 3.4686 3.3733 5.9387 7.0784 6.3903.561.0706 1.7361.0777 2.3042.0177 1.6761-.18 2.9534-.6881 4.1355-1.6479.36-.2929.8893-.8045 1.1539-1.1256.8822-1.0586.5716-2.6747-.6387-3.3099-.6598-.3493-1.3373-.3528-2.0184-.0211-.247.1235-.3669.2152-.7233.561-.734.7128-1.3021 1.0692-2.0149 1.2597-.314.0847-.4128.0918-.9845.0953-.7586.0035-1.0586-.06-1.6231-.3317-.7622-.3705-1.295-.9986-1.5844-1.8702-.1835-.5469-.2435-.9492-.2435-1.5878 0-.7869.1271-1.3938.4058-1.9584.5752-1.1574 1.6161-1.7643 3.0099-1.7573 1.1645.0071 2.2019.547 2.9429 1.5314.8293 1.1045 2.3924 1.2209 3.3558.247.4657-.4657.6527-.928.6492-1.5914-.007-.748-.2188-1.1538-1.1115-2.096-1.0409-1.0974-2.2618-1.8102-3.6415-2.1171-.7164-.1624-1.0869-.2012-2.0008-.2153-.4763-.0071-.9104-.0035-.9703.0035zm45.809 2.2725c1.298-1.2456 2.942-1.9902 4.95-2.2407.29-.0353.66-.0459 1.288-.0353.981.0141 1.493.0741 2.213.2611 1.556.4023 2.805 1.2492 3.991 2.6994.402.494.568.9351.564 1.5209-.007.8539-.462 1.5808-1.228 1.9619-.649.3211-1.327.3211-1.979-.0035-.343-.1659-.583-.3741-.861-.7375-.921-1.2104-2.428-1.7291-3.903-1.3409-1.253.3282-2.114 1.3409-2.347 2.7664-.067.4023-.056 1.3339.018 1.7467.222 1.235.886 2.1701 1.842 2.5935.589.2612 1.443.36 2.156.2506.886-.1341 1.496-.4764 2.414-1.348.607-.5787.921-.7339 1.549-.7763.952-.067 1.87.5399 2.187 1.4433.223.6351.138 1.3338-.229 1.9195-.18.2823-1.087 1.1786-1.517 1.4962-1.292.9562-2.562 1.3938-4.411 1.5137-1.355.0918-2.83-.127-4.023-.5892-.78-.3035-1.651-.8116-2.269-1.3268-1.326-1.108-2.233-2.6535-2.579-4.3896-.5576-2.7982.25-5.5435 2.174-7.3854zm20.9-2.2689c-1.129.1058-1.895.2964-2.633.6492-1.309.6246-2.085 1.5844-2.417 2.9958-.092.3847-.13 1.4926-.07 1.9514.233 1.7572 1.298 3.0134 3.179 3.758.448.1764 1.037.3493 2.029.5892 2.121.5117 2.392.6105 2.558.9351.095.1835.095.5187.004.6987-.198.3846-.625.5293-1.669.561-1.458.0459-2.368-.2399-3.656-1.1573-.483-.3459-.702-.4447-1.119-.4976-.864-.1164-1.736.4411-2.039 1.3056-.106.3035-.106.8963.003 1.2139.078.2187.269.5469.42.7163.254.2858 1.094.8962 1.652 1.1997 1.598.8716 3.818 1.228 6.104.9845 2.495-.2682 4.079-1.3515 4.651-3.1722.18-.5752.272-1.1892.272-1.842 0-1.2668-.396-2.2477-1.228-3.0523-.886-.8539-2.036-1.3726-4.005-1.8137-1.779-.3952-2.156-.5046-2.488-.7163-.286-.187-.374-.3528-.378-.6951 0-.2117.015-.2682.099-.3952.173-.2647.477-.3988 1.048-.4693 1.158-.1412 2.386.2576 3.458 1.1221.452.3634.815.5046 1.306.5046.632 0 1.168-.2788 1.538-.7975.406-.5681.463-1.2633.159-1.9019-.152-.3211-.388-.5964-.85-.9881-1.144-.9703-2.481-1.5031-4.196-1.6761-.331-.0317-1.436-.0423-1.732-.0105zm-56.1619 1.6478c.374-.7869 1.048-1.2879 1.916-1.4255.2505-.0388.6881-.0106.9563.0564.4763.1235.9492.4199 1.2703.7975.2928.3458.5716.9774.5716 1.295 0 .06.0106.1094.0212.1094.0141 0 .127-.0988.254-.2188.6881-.6422 1.5809-1.168 2.4701-1.4538.6069-.1941.9845-.247 1.7713-.247.8222 0 1.0339.0459 1.6409.3458.6104.3035.9456.6246 1.2173 1.168.1941.3881.2576.6634.2612 1.1115 0 .6846-.2224 1.228-.7022 1.7149-.3141.3176-.6458.5293-1.0233.6564-.3564.1164-.9951.1093-1.602-.0177-.4941-.1058-.8046-.12-1.1574-.0459-1.2703.2682-2.2442 1.1786-2.7382 2.5512-.12.3353-.1835.5858-.2788 1.0904-.0706.3917-.0776.5751-.0988 2.5724-.0195 1.8746-.0214 2.2343-.1406 2.5497-.032.0848-.0725.1663-.1241.2732-.3034.6245-.9209 1.1326-1.6055 1.3126-.3564.0953-.9704.0847-1.3056-.0176-.7939-.2506-1.4114-.8363-1.6761-1.595l-.1058-.2999-.0106-5.7587c-.0093-5.5719-.0185-6.0027.1394-6.3594.0228-.0515.0491-.1014.0794-.1651z" fill="#280804" fill-rule="evenodd"/></svg>