<svg fill="none" height="72" viewBox="0 0 180 72" width="180" xmlns="http://www.w3.org/2000/svg"><path d="m41.2174 43.3913c-.5218-2.4348-3.5507-4.3478-5-5v-3.0435c.7246.2174 2.7391.913 4.1304 1.9565s2.3913 2.1739 3.4783 4.1305c.0724-.145.3913-.6957 1.0869-1.7392.6957-1.0435 1.5218-2.1739 2.8261-3.0435 1.1912-.7941 3.6957-1.884 4.7826-2.1739 0-.1449-.4348-.8261-2.1739-2.3913s-3.913-1.5217-5.2174-1.5217v-3.2609h2.1739c1.087 0 3.0435.6522 4.3479 1.5218 1.7814 1.1876 3.4782 3.2608 5 6.0869 1.2174 2.2609 1.2318 4.7102 1.0869 5.6522h-3.2609c0-.1449-.0908-1.4504-.2173-1.9565-.1266-.5062-.145-.7971-.4348-1.3044-1.0145.3623-3.5652 1.5652-5.6522 3.4783-2.087 1.913-2.7536 5-2.8261 6.3043h-3.4782c0-.2174-.1305-1.2608-.6522-3.6956z" fill="#ce2329"/><path d="m58.3913 31.6521c-1.0435 1.2174-.7246 3.9855-.4348 5 .1449-.0724.4348-.3043.4348-.6521 0-.4348.6522-1.087 1.5217-1.7392.8696-.6522 3.4783-1.5217 5.8696-2.6087 2.3913-1.0869 2.3913-3.2608 2.6087-4.3478s-.2174-2.1739-.8696-1.3043c-.6521.8695-1.7391 1.5217-4.1304 2.3913-2.3913.8695-3.6957 1.7391-5 3.2608z" fill="#ce2329"/><path d="m36.4 21.4h28.7652v29.2h-28.7652z" stroke="#ce2329" stroke-width=".8"/><g fill="#ce2329"><path d="m73.4219 31.6352.6522-.805c.7337-.9511 1.1515-2.3777 1.2534-4.2799l.1732-4.4022h7.1026v9.4871h1.4164v4.7792h-1.8852v-3.2404h-7.6936v3.2404h-1.8852l.0102-4.7792zm2.2317 0h5.0645v-7.7445h-3.3934l-.112 2.629c-.1155 2.1943-.6352 3.8995-1.5591 5.1155z"/><path d="m85.4124 33.174v-11.0259h4.3003c1.4673 0 2.5917.2582 3.3729.7745.7881.5095 1.1821 1.2602 1.1821 2.252 0 .5095-.1529.9715-.4586 1.3859-.3057.4076-.7575.7201-1.3553.9375.6658.1563 1.1991.462 1.5999.9171.4076.4552.6114.9987.6114 1.6305 0 1.0122-.3736 1.7866-1.1209 2.3233-.7405.5367-1.7901.8051-3.1488.8051zm1.8852-4.8404v3.322h3.1182c.788 0 1.3757-.146 1.7629-.4382.394-.2921.591-.7031.591-1.233 0-1.1005-.8084-1.6508-2.4253-1.6508zm0-1.5081h2.4354c1.7663 0 2.6495-.5164 2.6495-1.549s-.8356-1.5659-2.5068-1.5998h-2.5781z"/><path d="m100.868 33.3778c-1.495 0-2.7111-.4892-3.6486-1.4674-.9375-.9851-1.4062-2.2996-1.4062-3.9436v-.3465c0-1.0938.2072-2.0686.6216-2.9246.4212-.8628 1.0054-1.5353 1.7527-2.0177.7541-.4891 1.5693-.7337 2.4455-.7337 1.434 0 2.548.4722 3.343 1.4165.794.9443 1.192 2.2962 1.192 4.0557v.7846h-7.4696c.0272 1.087.3431 1.9667.9477 2.6393.6114.6658 1.3859.9986 2.3229.9986.666 0 1.23-.1358 1.692-.4076.462-.2717.866-.6318 1.213-1.0801l1.151.8967c-.924 1.4198-2.31 2.1298-4.157 2.1298zm-.235-9.8846c-.7607 0-1.3993.2786-1.9156.8356-.5163.5503-.8356 1.3248-.9579 2.3234h5.5235v-.1426c-.055-.9579-.313-1.6984-.775-2.2215-.462-.5299-1.087-.7949-1.875-.7949z"/><path d="m82.5319 49.6957h-1.8851v-9.4667h-5.0748v9.4667h-1.8954v-11.0258h8.8553z"/><path d="m91.4959 49.6957c-.1087-.2174-.197-.6046-.2649-1.1617-.8764.9103-1.9226 1.3655-3.1386 1.3655-1.0869 0-1.9803-.3057-2.68-.9171-.693-.6182-1.0394-1.3995-1.0394-2.3438 0-1.1481.4348-2.038 1.3043-2.6698.8764-.6386 2.106-.9579 3.6889-.9579h1.8342v-.8662c0-.6589-.197-1.182-.591-1.5692-.394-.3941-.9749-.5911-1.7425-.5911-.6726 0-1.2364.1699-1.6916.5095-.4552.3397-.6828.7507-.6828 1.233h-1.8953c0-.5502.1936-1.0801.5808-1.5896.394-.5163.9239-.9239 1.5897-1.2229.6725-.2989 1.4096-.4483 2.2113-.4483 1.2703 0 2.2656.3193 2.9857.9579.7201.6317 1.0937 1.5047 1.1209 2.6188v5.0748c0 1.0122.1291 1.8172.3872 2.4151v.163zm-3.1284-1.4368c.5911 0 1.1515-.1529 1.6814-.4586s.9138-.7031 1.1515-1.1922v-2.2623h-1.4776c-2.3097 0-3.4646.676-3.4646 2.0279 0 .591.197 1.053.591 1.3859.394.3328.9001.4993 1.5183.4993z"/><path d="m104.21 38.6699v11.0258h-1.895v-9.4667h-3.7504l-.2242 4.127c-.1223 1.8954-.4416 3.2507-.9579 4.0659-.5095.8152-1.3213 1.2398-2.4355 1.2738h-.754v-1.661l.54-.0408c.6114-.0679 1.0496-.4212 1.3146-1.0598.2649-.6385.4348-1.8206.5095-3.5461l.2038-4.7181z"/><path d="m106.737 44.0809c0-1.0802.211-2.0516.632-2.9144.428-.8628 1.019-1.5285 1.773-1.9973.761-.4687 1.627-.7031 2.599-.7031 1.501 0 2.714.5197 3.637 1.5591.931 1.0394 1.396 2.4219 1.396 4.1474v.1325c0 1.0733-.207 2.038-.621 2.894-.408.8492-.995 1.5115-1.763 1.9871-.761.4755-1.637.7133-2.629.7133-1.495 0-2.707-.5197-3.638-1.5591-.924-1.0394-1.386-2.4151-1.386-4.127zm1.895.2242c0 1.2228.282 2.2045.846 2.9449.571.7405 1.332 1.1108 2.283 1.1108.958 0 1.719-.3737 2.282-1.1209.564-.7541.846-1.8071.846-3.159 0-1.2093-.288-2.1875-.866-2.9348-.571-.7541-1.331-1.1311-2.282-1.1311-.931 0-1.682.3702-2.253 1.1107-.57.7405-.856 1.8003-.856 3.1794z"/><path d="m127.464 49.6957h-1.895v-3.9946c-.829.2174-1.678.3261-2.548.3261-1.379 0-2.432-.3532-3.159-1.0598-.72-.7065-1.087-1.7119-1.1-3.0163v-3.2914h1.885v3.3526c.034 1.644.825 2.466 2.374 2.466.87 0 1.719-.1087 2.548-.3261v-5.4823h1.895z"/><path d="m133.055 44.998h-1.376v4.6977h-1.895v-11.0258h1.895v4.6671h1.233l3.71-4.6671h2.282l-4.361 5.2989 4.728 5.7269h-2.395z"/><path d="m147.155 38.6699h1.885v11.0258h-1.885v-8.0401l-5.085 8.0401h-1.885v-11.0258h1.885v8.0503z"/></g></svg>