<svg fill="none" height="72" viewBox="0 0 180 72" width="180" xmlns="http://www.w3.org/2000/svg"><path clip-rule="evenodd" d="m44.7734 29v3.0103h-4.2296v2.2736h4.0073v3.0039h-4.0073v2.3625h4.2296v3.004h-7.7734v-13.6543zm38.5685 5.6395h.0254l4.2995-5.6395h4.4075l-5.43 6.4651 5.9253 7.1892h-4.6107l-4.5916-5.919h-.0254v5.919h-3.5628v-13.6543h3.5628zm48.7621-.9867.006.0024v-.0127zm0 0c-.967-.4195-2.014-.6245-3.068-.601-2.026 0-4.096 1.0035-4.096 3.2961 0 1.6703 1.041 2.1847 2.07 2.4514.208.0538.415.0985.615.1415.792.1703 1.455.3131 1.455.881 0 .5144-.635.7176-1.047.7176-.935-.0786-1.833-.4004-2.604-.9335l-1.182 2.2926c1.125.6935 2.42 1.0628 3.741 1.0669 2.166 0 4.395-1.0224 4.395-3.4548 0-1.7401-1.156-2.4514-2.699-2.7626-.053-.01-.113-.02-.177-.0308-.51-.0851-1.316-.2198-1.316-.7948 0-.47.635-.6351 1.023-.6351.619.0142 1.227.1683 1.778.4509zm5.134 1.951c-.345.2665-.592.6399-.702 1.0616h3.811c-.11-.4217-.357-.7951-.701-1.0616-.345-.2665-.769-.4111-1.204-.4111-.436 0-.86.1446-1.204.4111zm1.102-2.552c3.207 0 5.081 1.9942 5.081 5.1696l.012.3429h-6.954c-.037.281-.01.5669.081.8354.091.2686.242.5127.442.7135.2.2007.444.3528.712.4443.269.0915.554.1201.836.0835.317.0235.634-.0441.914-.1949.28-.1507.512-.3784.667-.6561h3.175c-.514 2.172-2.61 3.1754-4.725 3.1754-3.093 0-5.392-1.7401-5.392-4.9473 0-3.0928 2.115-4.9663 5.151-4.9663zm-24.762.3239v5.5887c0 3.0738 2.159 4.0074 4.947 4.0074s4.922-.9336 4.922-4.0074v-5.5887h-3.277v4.9663c0 1.1813-.292 2.0069-1.645 2.0069-1.352 0-1.651-.8256-1.651-2.0069v-4.9663zm-7.738 6.6036c.263.0963.543.1357.822.1156.281.0229.564-.0144.829-.1094.265-.0949.507-.2454.71-.4414.202-.1959.361-.4328.465-.6949.103-.262.15-.5432.136-.8247 0-.5643-.224-1.1054-.623-1.5044s-.94-.6231-1.504-.6231-1.106.2241-1.505.6231-.623.9401-.623 1.5044c-.014.2795.031.5588.133.8194s.258.4966.458.6924c.2.1957.439.3467.702.443zm2.848-5.7208v-.8891h3.296v9.2848h-3.296l-.044-1.0224c-.321.4376-.745.7887-1.235 1.0215s-1.031.3401-1.572.3121c-.638-.0096-1.266-.1467-1.85-.403-.583-.2564-1.109-.6269-1.547-1.0897s-.779-1.0085-1.003-1.6051c-.223-.5965-.326-1.2319-.3-1.8685 0-2.6737 1.918-4.9473 4.655-4.9473.54-.0127 1.077.0881 1.576.296.499.2078.949.5181 1.32.9107zm-12.0284-.8891h-3.2961v9.2849h3.2961v-3.7407c0-1.6067.4445-2.807 2.2735-2.807.4854-.0269.9693.0738 1.4039.2921v-3.1754h-.6354c-.6056-.0315-1.2081.1062-1.7398.3979-.5317.2916-.9716.7256-1.2705 1.2533v-1.5051zm-28.2739-4.1916v13.4765h3.2961v-4.7695c0-1.0923.4255-2.2037 1.7147-2.2037s1.4925 1.1177 1.4925 2.2037v4.7695h3.3024v-5.684c0-2.3625-1.1368-3.9248-3.4993-3.9248-.5832-.0236-1.1626.1037-1.6822.3696s-.9617.6614-1.2837 1.1482h-.0444v-5.5569h-3.2961zm-3.7596 3.8804c.7565-.0006 1.5018.1825 2.1719.5335h.0254v2.788c-.4819-.4061-1.085-.6406-1.7147-.6669-.6055.0093-1.1825.2587-1.6042.6934-.4216.4348-.6532 1.0192-.644 1.6247.0093.6055.2587 1.1825.6934 1.6042.4348.4216 1.0192.6532 1.6247.644.6087-.007 1.1947-.2324 1.6512-.6351v2.8198c-.7253.3616-1.5267.5446-2.3371.5334-.6545.0221-1.3068-.0869-1.9186-.3205-.6118-.2335-1.1708-.587-1.6441-1.0396s-.8513-.9952-1.112-1.5959c-.2607-.6008-.3987-1.2475-.406-1.9024-.0119-.6818.1159-1.3589.3754-1.9895.2596-.6306.6454-1.2015 1.1339-1.6774.4884-.4759 1.069-.8468 1.7062-1.09.6371-.2431 1.3172-.3533 1.9986-.3237zm-6.3954.2985h-3.3087v9.2975h3.3087zm-3.3087-4.3503h3.3024v3.3024h-3.3024zm-5.2648 4.363h-3.2961v9.2849h3.2961v-3.7407c0-1.6067.4445-2.807 2.299-2.807.4771-.0261.9526.0747 1.3781.2921v-3.1754h-.6351c-.6049-.033-1.2068.105-1.7369.3981-.5302.2931-.967.7296-1.2607 1.2595h-.0444z" fill="#e61a29" fill-rule="evenodd"/></svg>