<svg fill="none" height="72" viewBox="0 0 180 72" width="180" xmlns="http://www.w3.org/2000/svg"><path d="m53.916 26.1116-.0111.0178-.0103.0183c-.8042 1.4246-1.2694 3.2237-1.5389 4.9567-.2717 1.7478-.3557 3.5053-.3557 4.8956 0 1.3901.0839 3.1577.3556 4.9105.2692 1.7365.7345 3.5398 1.5424 4.9479l.006.0104.0062.0102c1.8246 3.0106 5.3112 5.121 9.3948 5.121h54.111c4.047 0 7.527-2.1136 9.389-5.1116l.01-.0149.008-.0151c.808-1.4081 1.274-3.2114 1.543-4.9479.271-1.7528.355-3.5204.355-4.9105s-.084-3.1577-.355-4.9105c-.269-1.7365-.735-3.5398-1.543-4.9479l-.006-.0104-.006-.0102c-1.824-3.0106-5.311-5.121-9.395-5.121h-54.111c-4.047 0-7.5266 2.1136-9.389 5.1116z" fill="#fff" stroke="#0094a1" stroke-width="2"/><path d="m99.3108 34.4809h4.5572v-.1232c0-2.0938-.821-2.217-2.34-2.217-1.8477-.041-2.1761.5338-2.2172 2.3402zm-31.9824-2.2581c1.478 0 2.2992.1643 2.2992 2.176v.0821h-4.4751c.041-1.7243.4105-2.2581 2.1759-2.2581zm-6.3225 3.8593c0 4.8856 1.2316 6.651 6.4046 6.651 1.9297 0 3.4898-.1642 4.6393-.78 1.0675-.6159 1.7244-1.6833 1.7244-3.613h-4.0645c-.0411 1.3959-.9854 1.5602-2.2992 1.5602-1.8885 0-2.258-.7801-2.258-3.1203v-.0821h8.6217v-.6158c0-5.3373-1.437-6.6921-6.3637-6.6921-5.2551 0-6.4046 1.6422-6.4046 6.6921zm15.519-2.4223c0 2.6276.9032 3.8182 6.4047 3.8182.4927 0 1.2727-.0411 1.7243.1642.4106.2053.6159.5748.6159 1.2317 0 1.1495-.4106 1.2727-2.3812 1.2727-1.0675 0-2.176-.0411-2.2581-1.478h-4.1056c.0411 2.8739 1.3959 3.8182 3.9414 4.0235.78.041 1.6011.041 2.4633.041 3.4897 0 6.4047-.5748 6.4047-4.3519 0-3.6129-1.8886-3.8592-6.4047-3.9824-2.2581-.0411-2.3812-.5337-2.3812-1.2727 0-.8622.0821-1.1496 2.3812-1.1496.8211 0 1.6833.0821 1.8475 1.1085h3.9003v-.5337c0-3.1202-3.2844-3.1613-5.7478-3.1613-3.7361 0-6.4047.0821-6.4047 4.2698zm33.9941-4.2698h10.182v2.9971h-3.038v10.2228h-4.147v-10.2228h-3.038v-2.9971zm-15.2727 6.61c0-5.0499 1.1085-6.6511 6.3637-6.6511 4.886 0 6.323 1.3138 6.323 6.6511v.5748h-8.6222v.1231c0 2.3402.3695 3.1613 2.2992 3.1613 1.273 0 2.258-.1232 2.34-1.5601h3.983c-.042 1.8475-.657 2.9149-1.725 3.5308-1.108.6158-2.668.78-4.598.78-5.132 0-6.3637-1.7243-6.3637-6.6099zm-37.2375 9.0733c-2.0939-2.2581-2.5455-5.7478-2.5455-9.0733s.4516-6.8153 2.5455-9.0733c1.3138-1.3959 3.8592-2.4634 5.9941-2.4634h27.8769v23.0733h-27.8769c-2.1759 0-4.6803-1.0674-5.9941-2.4633z" fill="#0094a1"/></svg>