<svg width="180" height="72" viewBox="0 0 180 72" fill="none" xmlns="http://www.w3.org/2000/svg">
<path d="M52.9142 25.3772C54.1919 28.17 54.3211 30.9263 52.4339 33.8403C55.732 32.8012 58.7286 33.0492 61.6846 34.3281C56.0766 33.8695 50.875 34.2118 48.0792 40.4366C51.2115 40.1626 53.9074 39.5463 55.988 37.0038C53.7757 36.7551 52.1177 37.7592 50.3906 38.556C51.6268 36.3924 53.5603 35.4525 55.9027 35.207C56.2479 35.1664 56.7772 35.0971 56.9513 35.0971C57.1254 35.0971 58.6132 34.8737 58.8871 35.4119C59.2325 36.09 58.5108 36.8347 58.08 37.4648C57.7419 37.9592 57.3079 38.3885 56.7707 39.0178C58.257 38.84 59.3885 38.84 60.4331 39.1012C60.9752 39.2792 61.9078 39.6234 61.9877 40.1138C62.0926 40.7569 61.5001 41.2675 60.9986 41.6911C60.7442 41.9074 60.3858 42.1212 59.9705 42.1212C60.8645 40.3455 59.3444 40.3262 58.257 40.1457C56.5161 39.9716 54.7982 40.1691 52.9857 40.7024C54.1033 40.9333 55.2249 41.1423 56.3359 41.3984C58.2369 41.8358 59.8526 42.7806 61.3083 44.0717C62.0397 44.7221 61.904 45.1051 61.2343 45.6555C59.5015 47.0808 57.4745 47.828 55.2907 48.0394C50.1111 48.5402 45.3037 47.4703 41.0676 44.2815C42.9768 44.7425 44.7924 45.536 46.7252 45.9222C48.7432 46.3287 50.7767 46.458 52.8134 46.2474C54.8502 46.0369 56.817 45.5165 58.7432 44.3449C56.5683 43.0099 54.3024 42.3789 51.891 42.1147C49.5186 41.8553 47.1518 42.0041 44.4763 42.196C47.6062 39.6609 49.4917 36.6534 50.5881 33.1484C51.0425 31.6962 51.3747 30.6904 51.2934 29.1781C51.2763 28.8651 51.2934 27.7854 50.8572 27.7822C50.5971 27.7854 50.3118 27.9578 50.0664 28.1123C48.1718 29.3067 46.6666 30.8921 45.3524 32.9248C45.007 31.7532 45.3524 30.8621 45.7588 30.0092C46.7999 27.8286 48.2854 26.7974 50.423 25.9575C50.8407 25.7949 51.03 25.7287 51.7286 25.3482C51.7286 25.3482 52.3379 25 52.5702 25C52.7695 25 52.9142 25.3772 52.9142 25.3772Z" fill="#DC151E"/>
<path d="M36.8056 36.6924C35.4987 34.3158 34.7039 31.8255 34.9054 29.0651C34.9786 28.0643 35.1533 27.7708 36.1782 28.3131C39.4722 30.0554 40.5272 31.188 43.1101 36.1834C43.6481 33.8963 43.0394 31.9759 41.9828 30.1115C43.2019 30.3392 44.6307 32.1393 45.0192 33.8817C45.4841 35.9728 44.7648 37.999 43.08 39.173C41.8024 35.9972 40.6743 32.719 37.3233 30.788C36.8674 33.3638 37.5078 35.5631 38.9862 37.5103C39.8136 38.599 40.8263 39.5495 41.7561 40.5617L41.5813 40.7536C38.9407 39.4104 36.509 37.6201 33.21 36.9054C34.3828 38.8421 35.8636 40.1479 37.264 41.5398C34.2146 40.7707 32.1526 38.8958 30.7515 36.0265C32.8914 35.6793 34.7843 36.0192 36.5943 36.929C36.7178 36.9924 36.844 37.0991 36.9576 37.0989C37.0712 37.0987 36.9311 36.925 36.8056 36.6924Z" fill="#DC151E"/>
<path d="M24.0748 41.8869C26.8755 45.2513 30.6361 46.5587 34.7527 47.1416C26.713 48.1506 21.7178 45.3554 19 38.3168C22.7939 40.8063 27.1275 41.1812 31.3578 41.9275C33.5734 42.3186 35.5678 43.2187 37.2185 44.7692C37.5436 45.0692 37.9955 45.3123 38.011 46.0213C33.6587 43.4268 28.6619 43.3455 24.0748 41.8869Z" fill="#1D1D1E"/>
<path d="M35.9099 47.7889C32.9556 50.2143 30.1906 49.8769 27.0217 48.08C30.1606 48.5979 32.9158 48.5353 35.9099 47.7889Z" fill="#1D1D1E"/>
<path d="M41.757 40.5617C41.8293 40.6333 41.9748 40.7536 41.9643 40.7699C41.8391 40.9544 41.7091 40.839 41.5823 40.7528L41.757 40.5617Z" fill="#DC151E"/>
<path d="M76.3027 29.5625V29.2754C76.3027 29.1992 76.3301 29.1348 76.3848 29.082C76.4395 29.0273 76.5068 29 76.5869 29H77.126C77.2061 29 77.2725 29.0273 77.3252 29.082C77.3799 29.1348 77.4072 29.1992 77.4072 29.2754V29.5625C78.0752 29.5625 78.6064 29.7002 79.001 29.9756C79.3955 30.249 79.5928 30.6855 79.5928 31.2852C79.5928 31.8848 79.3955 32.3223 79.001 32.5977C78.6064 32.8711 78.0752 33.0078 77.4072 33.0078V33.2949C77.4072 33.3711 77.3789 33.4355 77.3223 33.4883C77.2676 33.543 77.2021 33.5703 77.126 33.5703H76.5869C76.5107 33.5703 76.4443 33.543 76.3877 33.4883C76.3311 33.4355 76.3027 33.3711 76.3027 33.2949V33.0078C75.6348 33.0078 75.1035 32.8711 74.709 32.5977C74.3164 32.3223 74.1201 31.8848 74.1201 31.2852C74.1201 30.6855 74.3164 30.249 74.709 29.9756C75.1035 29.7002 75.6348 29.5625 76.3027 29.5625ZM76.335 32.2168V30.3564C75.9912 30.3564 75.7197 30.4336 75.5205 30.5879C75.3232 30.7402 75.2246 30.9727 75.2246 31.2852C75.2246 31.5977 75.3232 31.8311 75.5205 31.9854C75.7197 32.1396 75.9912 32.2168 76.335 32.2168ZM77.3779 32.2168C77.7217 32.2168 77.9922 32.1396 78.1895 31.9854C78.3887 31.8311 78.4883 31.5977 78.4883 31.2852C78.4883 30.9727 78.3887 30.7402 78.1895 30.5879C77.9922 30.4336 77.7217 30.3564 77.3779 30.3564V32.2168Z" fill="black"/>
<path d="M84.9078 32.9521C84.5094 33.3018 83.9234 33.4766 83.15 33.4766C82.3785 33.4766 81.7926 33.3018 81.3922 32.9521C80.9918 32.6006 80.7916 32.0449 80.7916 31.2852C80.7916 30.5254 80.9918 29.9707 81.3922 29.6211C81.7926 29.2715 82.3785 29.0967 83.15 29.0967C83.9234 29.0967 84.5094 29.2715 84.9078 29.6211C85.3082 29.9707 85.5084 30.5254 85.5084 31.2852C85.5084 32.0449 85.3082 32.6006 84.9078 32.9521ZM84.108 30.2393C83.9107 30.0049 83.5914 29.8877 83.15 29.8877C82.7105 29.8877 82.3912 30.0049 82.192 30.2393C81.9947 30.4736 81.8961 30.8232 81.8961 31.2881C81.8961 31.751 81.9947 32.0996 82.192 32.334C82.3912 32.5664 82.7105 32.6826 83.15 32.6826C83.5914 32.6826 83.9107 32.5664 84.108 32.334C84.3053 32.0996 84.4039 31.751 84.4039 31.2881C84.4039 30.8232 84.3053 30.4736 84.108 30.2393Z" fill="black"/>
<path d="M87.0119 33.1104V29.4629C87.0119 29.3867 87.0393 29.3213 87.0939 29.2666C87.1486 29.2119 87.216 29.1846 87.2961 29.1846H87.841C87.9172 29.1846 87.9816 29.2119 88.0344 29.2666C88.0891 29.3213 88.1164 29.3867 88.1164 29.4629V30.7812H90.132V29.4629C90.132 29.3867 90.1594 29.3213 90.2141 29.2666C90.2687 29.2119 90.3342 29.1846 90.4104 29.1846H90.9553C91.0354 29.1846 91.1018 29.2119 91.1545 29.2666C91.2092 29.3213 91.2365 29.3867 91.2365 29.4629V33.1104C91.2365 33.1865 91.2082 33.252 91.1516 33.3066C91.0969 33.3594 91.0314 33.3857 90.9553 33.3857H90.4104C90.3342 33.3857 90.2687 33.3604 90.2141 33.3096C90.1594 33.2568 90.132 33.1924 90.132 33.1162V31.6104H88.1164V33.1162C88.1164 33.1924 88.0891 33.2568 88.0344 33.3096C87.9816 33.3604 87.9172 33.3857 87.841 33.3857H87.2961C87.2199 33.3857 87.1535 33.3594 87.0969 33.3066C87.0402 33.252 87.0119 33.1865 87.0119 33.1104Z" fill="black"/>
<path d="M92.5613 33.1104V32.8291C92.5613 32.7529 92.5877 32.6885 92.6404 32.6357C92.6951 32.583 92.7605 32.5566 92.8367 32.5566H93.0652L93.6102 30.3389C93.7996 29.5693 94.4344 29.1846 95.5145 29.1846H97.0965C97.1727 29.1846 97.2371 29.2109 97.2898 29.2637C97.3445 29.3164 97.3719 29.3809 97.3719 29.457V33.1162C97.3719 33.1924 97.3445 33.2568 97.2898 33.3096C97.2371 33.3604 97.1727 33.3857 97.0965 33.3857H92.8367C92.7605 33.3857 92.6951 33.3594 92.6404 33.3066C92.5877 33.252 92.5613 33.1865 92.5613 33.1104ZM94.1932 32.5566H96.2703V30.0137H95.3943C95.2088 30.0137 95.0555 30.0645 94.9344 30.166C94.8133 30.2676 94.7303 30.4092 94.6854 30.5908L94.1932 32.5566Z" fill="black"/>
<path d="M102.116 33.1104V29.4629C102.116 29.3867 102.143 29.3213 102.195 29.2666C102.248 29.2119 102.312 29.1846 102.389 29.1846H104.624C105.806 29.1846 106.396 29.7295 106.396 30.8193C106.396 31.9072 105.806 32.4512 104.624 32.4512H103.221V33.1104C103.221 33.1865 103.193 33.252 103.139 33.3066C103.086 33.3594 103.021 33.3857 102.945 33.3857H102.395C102.318 33.3857 102.253 33.3594 102.198 33.3066C102.144 33.252 102.116 33.1865 102.116 33.1104ZM103.221 31.6221H104.29C104.618 31.6221 104.867 31.5674 105.037 31.458C105.207 31.3467 105.292 31.1338 105.292 30.8193C105.292 30.5029 105.207 30.29 105.037 30.1807C104.867 30.0693 104.618 30.0137 104.29 30.0137H103.221V31.6221Z" fill="black"/>
<path d="M107.405 33.1162L108.14 30.3271C108.339 29.5674 108.988 29.1865 110.086 29.1846H111.665C111.737 29.1846 111.796 29.2119 111.843 29.2666C111.892 29.3213 111.917 29.3848 111.917 29.457V33.1162C111.917 33.1924 111.889 33.2568 111.835 33.3096C111.78 33.3604 111.714 33.3857 111.638 33.3857H111.088C111.007 33.3857 110.941 33.3604 110.888 33.3096C110.838 33.2568 110.812 33.1904 110.812 33.1104V32.3721H108.729L108.533 33.1104C108.513 33.1904 108.469 33.2568 108.401 33.3096C108.333 33.3604 108.26 33.3857 108.184 33.3857H107.607C107.531 33.3857 107.476 33.3643 107.443 33.3213C107.41 33.2764 107.393 33.2373 107.393 33.2041C107.395 33.1709 107.399 33.1416 107.405 33.1162ZM108.946 31.543H110.812V30.0137H109.977C109.79 30.0137 109.626 30.0674 109.485 30.1748C109.346 30.2803 109.253 30.4229 109.204 30.6025L108.946 31.543Z" fill="black"/>
<path d="M113.385 32.2402C113.385 32.125 113.419 32.042 113.487 31.9912C113.556 31.9404 113.622 31.915 113.687 31.915H114.032C114.212 31.915 114.353 32.0234 114.454 32.2402C114.503 32.3438 114.585 32.4268 114.7 32.4893C114.816 32.5518 114.944 32.583 115.084 32.583H116.001C116.214 32.583 116.373 32.5488 116.479 32.4805C116.584 32.4121 116.637 32.2959 116.637 32.1318C116.637 31.9678 116.584 31.8516 116.479 31.7832C116.373 31.7148 116.214 31.6807 116.001 31.6807H115.245C115.169 31.6807 115.104 31.6543 115.049 31.6016C114.996 31.5469 114.97 31.4814 114.97 31.4053V31.165C114.97 31.0928 114.995 31.0293 115.046 30.9746C115.099 30.918 115.161 30.8896 115.234 30.8896H115.893C116.129 30.8896 116.302 30.8545 116.411 30.7842C116.523 30.7139 116.578 30.5996 116.578 30.4414C116.578 30.2812 116.523 30.166 116.411 30.0957C116.302 30.0254 116.129 29.9902 115.893 29.9902H115.181C114.864 29.9902 114.646 30.1104 114.525 30.3506C114.437 30.5342 114.305 30.626 114.129 30.626H113.78C113.687 30.626 113.613 30.5918 113.561 30.5234C113.508 30.4551 113.482 30.3809 113.482 30.3008C113.482 29.9688 113.65 29.6963 113.986 29.4834C114.321 29.2686 114.686 29.1611 115.078 29.1611H115.978C117.114 29.1611 117.683 29.5889 117.683 30.4443C117.683 30.7998 117.548 31.0801 117.279 31.2852C117.587 31.4766 117.741 31.7588 117.741 32.1318C117.741 32.583 117.6 32.9092 117.317 33.1104C117.035 33.3096 116.631 33.4092 116.104 33.4092H114.982C114.585 33.4092 114.22 33.3008 113.886 33.084C113.552 32.8652 113.385 32.584 113.385 32.2402Z" fill="black"/>
<path d="M119.242 29.4629C119.242 29.3867 119.269 29.3213 119.324 29.2666C119.379 29.2119 119.444 29.1846 119.52 29.1846H121.902C122.486 29.1846 122.917 29.3525 123.194 29.6885C123.348 29.874 123.426 30.1113 123.426 30.4004C123.426 30.6875 123.294 30.9385 123.03 31.1533C123.405 31.3545 123.593 31.667 123.593 32.0908C123.593 32.5146 123.442 32.8369 123.141 33.0576C122.843 33.2764 122.475 33.3857 122.04 33.3857H119.52C119.444 33.3857 119.379 33.3594 119.324 33.3066C119.269 33.252 119.242 33.1865 119.242 33.1104V29.4629ZM120.346 32.5947H122.022C122.173 32.5947 122.288 32.5498 122.368 32.46C122.448 32.3701 122.488 32.2471 122.488 32.0908C122.488 31.9346 122.448 31.8115 122.368 31.7217C122.288 31.6318 122.173 31.5869 122.022 31.5869H120.346V32.5947ZM120.346 30.8164H121.914C122.037 30.8164 122.136 30.7803 122.21 30.708C122.284 30.6338 122.321 30.5312 122.321 30.4004C122.321 30.2676 122.284 30.1641 122.21 30.0898C122.136 30.0156 122.037 29.9785 121.914 29.9785H120.346V30.8164Z" fill="black"/>
<path d="M125.093 33.1104V29.4629C125.093 29.3828 125.12 29.3164 125.172 29.2637C125.225 29.2109 125.291 29.1846 125.371 29.1846H125.887C125.963 29.1846 126.028 29.2109 126.08 29.2637C126.135 29.3164 126.162 29.3809 126.162 29.457V32.3896L127.829 29.4629C127.874 29.3867 127.936 29.3213 128.014 29.2666C128.092 29.2119 128.164 29.1846 128.231 29.1846H129.095C129.171 29.1846 129.236 29.2119 129.288 29.2666C129.341 29.3213 129.368 29.3867 129.368 29.4629V33.1104C129.368 33.1865 129.34 33.252 129.286 33.3066C129.231 33.3594 129.165 33.3857 129.089 33.3857H128.574C128.497 33.3857 128.432 33.3594 128.377 33.3066C128.325 33.252 128.298 33.1865 128.298 33.1104V30.3916L126.769 33.1104C126.724 33.1865 126.661 33.252 126.579 33.3066C126.496 33.3594 126.417 33.3857 126.341 33.3857H125.371C125.295 33.3857 125.23 33.3594 125.175 33.3066C125.121 33.252 125.093 33.1865 125.093 33.1104Z" fill="black"/>
<path d="M130.748 29.7383V29.4629C130.748 29.3828 130.774 29.3164 130.827 29.2637C130.88 29.2109 130.946 29.1846 131.026 29.1846H134.744C134.824 29.1846 134.891 29.2109 134.943 29.2637C134.996 29.3164 135.022 29.3828 135.022 29.4629V29.7383C135.022 29.8184 134.996 29.8848 134.943 29.9375C134.891 29.9883 134.824 30.0137 134.744 30.0137H133.438V33.1162C133.438 33.1924 133.41 33.2568 133.355 33.3096C133.303 33.3604 133.238 33.3857 133.162 33.3857H132.608C132.532 33.3857 132.467 33.3604 132.412 33.3096C132.359 33.2568 132.333 33.1924 132.333 33.1162V30.0137H131.026C130.946 30.0137 130.88 29.9883 130.827 29.9375C130.774 29.8848 130.748 29.8184 130.748 29.7383Z" fill="black"/>
<path d="M136.403 33.1104V29.4629C136.403 29.3828 136.429 29.3164 136.482 29.2637C136.535 29.2109 136.601 29.1846 136.681 29.1846H137.197C137.273 29.1846 137.338 29.2109 137.39 29.2637C137.445 29.3164 137.472 29.3809 137.472 29.457V32.3896L139.139 29.4629C139.184 29.3867 139.246 29.3213 139.324 29.2666C139.402 29.2119 139.474 29.1846 139.541 29.1846H140.405C140.481 29.1846 140.546 29.2119 140.598 29.2666C140.651 29.3213 140.677 29.3867 140.677 29.4629V33.1104C140.677 33.1865 140.65 33.252 140.595 33.3066C140.541 33.3594 140.475 33.3857 140.399 33.3857H139.883C139.807 33.3857 139.742 33.3594 139.687 33.3066C139.634 33.252 139.608 33.1865 139.608 33.1104V30.3916L138.079 33.1104C138.034 33.1865 137.97 33.252 137.888 33.3066C137.806 33.3594 137.727 33.3857 137.651 33.3857H136.681C136.605 33.3857 136.54 33.3594 136.485 33.3066C136.43 33.252 136.403 33.1865 136.403 33.1104Z" fill="black"/>
<path d="M142.184 33.2188C142.184 33.1875 142.196 33.1514 142.222 33.1104L143.03 31.7773C142.478 31.5371 142.202 31.1289 142.204 30.5527C142.204 30.1172 142.355 29.7803 142.655 29.542C142.958 29.3037 143.337 29.1846 143.792 29.1846H146.086C146.158 29.1846 146.22 29.2109 146.271 29.2637C146.323 29.3164 146.35 29.3809 146.35 29.457V33.1162C146.35 33.1924 146.322 33.2568 146.268 33.3096C146.215 33.3604 146.151 33.3857 146.074 33.3857H145.521C145.445 33.3857 145.379 33.3594 145.324 33.3066C145.272 33.252 145.245 33.1865 145.245 33.1104V31.8975H144.196L143.493 33.1162C143.394 33.2959 143.252 33.3857 143.069 33.3857H142.33C142.233 33.3857 142.184 33.3301 142.184 33.2188ZM143.792 30.0137C143.468 30.0137 143.306 30.1855 143.306 30.5293C143.306 30.873 143.468 31.0449 143.792 31.0449H145.245V30.0137H143.792Z" fill="black"/>
<path d="M74 42.3994V42.1182C74 42.042 74.0264 41.9775 74.0791 41.9248C74.1338 41.8721 74.1992 41.8457 74.2754 41.8457H74.5039L75.0488 39.6279C75.2383 38.8584 75.873 38.4736 76.9531 38.4736H78.5352C78.6113 38.4736 78.6758 38.5 78.7285 38.5527C78.7832 38.6055 78.8105 38.6699 78.8105 38.7461V42.4053C78.8105 42.4814 78.7832 42.5459 78.7285 42.5986C78.6758 42.6494 78.6113 42.6748 78.5352 42.6748H74.2754C74.1992 42.6748 74.1338 42.6484 74.0791 42.5957C74.0264 42.541 74 42.4756 74 42.3994ZM75.6318 41.8457H77.709V39.3027H76.833C76.6475 39.3027 76.4941 39.3535 76.373 39.4551C76.252 39.5566 76.1689 39.6982 76.124 39.8799L75.6318 41.8457Z" fill="black"/>
<path d="M80.2057 42.4053L80.941 39.6162C81.1402 38.8564 81.7887 38.4756 82.8863 38.4736H84.4654C84.5377 38.4736 84.5973 38.501 84.6441 38.5557C84.693 38.6104 84.7174 38.6738 84.7174 38.7461V42.4053C84.7174 42.4814 84.69 42.5459 84.6354 42.5986C84.5807 42.6494 84.5152 42.6748 84.4391 42.6748H83.8883C83.8082 42.6748 83.7418 42.6494 83.6891 42.5986C83.6383 42.5459 83.6129 42.4795 83.6129 42.3994V41.6611H81.5299L81.3336 42.3994C81.3141 42.4795 81.2701 42.5459 81.2018 42.5986C81.1334 42.6494 81.0611 42.6748 80.985 42.6748H80.4078C80.3316 42.6748 80.277 42.6533 80.2438 42.6104C80.2105 42.5654 80.1939 42.5264 80.1939 42.4932C80.1959 42.46 80.1998 42.4307 80.2057 42.4053ZM81.7467 40.832H83.6129V39.3027H82.7779C82.5904 39.3027 82.4264 39.3564 82.2857 39.4639C82.1471 39.5693 82.0533 39.7119 82.0045 39.8916L81.7467 40.832Z" fill="black"/>
<path d="M86.1096 42.4287L86.8537 39.6162C87.0529 38.8564 87.7004 38.4756 88.7961 38.4736H90.2609C90.3293 38.4736 90.3869 38.502 90.4338 38.5586C90.4826 38.6152 90.507 38.6797 90.507 38.752V42.3994C90.507 42.4756 90.4807 42.541 90.4279 42.5957C90.3771 42.6484 90.3137 42.6748 90.2375 42.6748H89.6779C89.6018 42.6748 89.5363 42.6484 89.4816 42.5957C89.4289 42.541 89.4025 42.4756 89.4025 42.3994V39.3027H88.6877C88.5002 39.3027 88.3361 39.3564 88.1955 39.4639C88.0568 39.5693 87.9631 39.7119 87.9143 39.8916L87.2434 42.3994C87.2238 42.4795 87.1799 42.5459 87.1115 42.5986C87.0432 42.6494 86.9709 42.6748 86.8947 42.6748H86.3C86.2316 42.6748 86.1809 42.6533 86.1477 42.6104C86.1164 42.5674 86.1008 42.5312 86.1008 42.502C86.1027 42.4727 86.1057 42.4482 86.1096 42.4287Z" fill="black"/>
<path d="M92.2479 42.3936V38.752C92.2479 38.6719 92.2742 38.6055 92.327 38.5527C92.3797 38.5 92.4461 38.4736 92.5262 38.4736H93.077C93.1531 38.4736 93.2176 38.501 93.2703 38.5557C93.325 38.6104 93.3523 38.6758 93.3523 38.752V39.9033H94.7996C95.2605 39.9033 95.6414 40.0254 95.9422 40.2695C96.2449 40.5137 96.3963 40.8535 96.3963 41.2891C96.3963 41.7246 96.2449 42.0645 95.9422 42.3086C95.6395 42.5527 95.2586 42.6748 94.7996 42.6748H92.5115C92.4393 42.6748 92.3768 42.6475 92.324 42.5928C92.2732 42.5361 92.2479 42.4697 92.2479 42.3936ZM93.3523 41.8457H94.7996C95.1277 41.8457 95.2918 41.6602 95.2918 41.2891C95.2918 40.916 95.1277 40.7295 94.7996 40.7295H93.3523V41.8457Z" fill="black"/>
<path d="M97.8354 42.3994V38.752C97.8354 38.6758 97.8627 38.6104 97.9174 38.5557C97.9721 38.501 98.0395 38.4736 98.1195 38.4736H98.6645C98.7406 38.4736 98.8051 38.501 98.8578 38.5557C98.9125 38.6104 98.9398 38.6758 98.9398 38.752V40.0703H100.955V38.752C100.955 38.6758 100.983 38.6104 101.038 38.5557C101.092 38.501 101.158 38.4736 101.234 38.4736H101.779C101.859 38.4736 101.925 38.501 101.978 38.5557C102.033 38.6104 102.06 38.6758 102.06 38.752V42.3994C102.06 42.4756 102.032 42.541 101.975 42.5957C101.92 42.6484 101.855 42.6748 101.779 42.6748H101.234C101.158 42.6748 101.092 42.6494 101.038 42.5986C100.983 42.5459 100.955 42.4814 100.955 42.4053V40.8994H98.9398V42.4053C98.9398 42.4814 98.9125 42.5459 98.8578 42.5986C98.8051 42.6494 98.7406 42.6748 98.6645 42.6748H98.1195C98.0434 42.6748 97.977 42.6484 97.9203 42.5957C97.8637 42.541 97.8354 42.4756 97.8354 42.3994Z" fill="black"/>
<path d="M103.804 42.3936V38.7461C103.804 38.6699 103.831 38.6055 103.886 38.5527C103.94 38.5 104.006 38.4736 104.082 38.4736H107.46C107.536 38.4736 107.601 38.501 107.653 38.5557C107.708 38.6104 107.735 38.6758 107.735 38.752V39.0273C107.735 39.1035 107.708 39.1689 107.653 39.2236C107.601 39.2764 107.536 39.3027 107.46 39.3027H104.908V40.1553H107.105C107.182 40.1553 107.246 40.1826 107.299 40.2373C107.354 40.29 107.381 40.3545 107.381 40.4307V40.7061C107.381 40.7822 107.354 40.8477 107.299 40.9023C107.246 40.9551 107.182 40.9814 107.105 40.9814H104.908V41.8457H107.454C107.528 41.8457 107.592 41.8721 107.645 41.9248C107.697 41.9775 107.724 42.042 107.724 42.1182V42.3994C107.724 42.4756 107.696 42.541 107.642 42.5957C107.587 42.6484 107.521 42.6748 107.445 42.6748H104.082C104.006 42.6748 103.94 42.6484 103.886 42.5957C103.831 42.541 103.804 42.4736 103.804 42.3936Z" fill="black"/>
<path d="M109.174 42.4053V38.752C109.174 38.6719 109.201 38.6055 109.254 38.5527C109.306 38.5 109.373 38.4736 109.453 38.4736H112.283C112.363 38.4736 112.428 38.5 112.479 38.5527C112.532 38.6055 112.558 38.6719 112.558 38.752V39.0273C112.558 39.1074 112.532 39.1738 112.479 39.2266C112.428 39.2773 112.363 39.3027 112.283 39.3027H110.279V42.4053C110.279 42.4814 110.252 42.5459 110.197 42.5986C110.144 42.6494 110.08 42.6748 110.004 42.6748H109.453C109.377 42.6748 109.311 42.6494 109.256 42.5986C109.202 42.5459 109.174 42.4814 109.174 42.4053Z" fill="black"/>
<path d="M117.73 42.2412C117.331 42.5908 116.745 42.7656 115.972 42.7656C115.2 42.7656 114.614 42.5908 114.214 42.2412C113.814 41.8896 113.613 41.334 113.613 40.5742C113.613 39.8145 113.814 39.2598 114.214 38.9102C114.614 38.5605 115.2 38.3857 115.972 38.3857C116.745 38.3857 117.331 38.5605 117.73 38.9102C118.13 39.2598 118.33 39.8145 118.33 40.5742C118.33 41.334 118.13 41.8896 117.73 42.2412ZM116.93 39.5283C116.733 39.2939 116.413 39.1768 115.972 39.1768C115.532 39.1768 115.213 39.2939 115.014 39.5283C114.817 39.7627 114.718 40.1123 114.718 40.5771C114.718 41.04 114.817 41.3887 115.014 41.623C115.213 41.8555 115.532 41.9717 115.972 41.9717C116.413 41.9717 116.733 41.8555 116.93 41.623C117.127 41.3887 117.226 41.04 117.226 40.5771C117.226 40.1123 117.127 39.7627 116.93 39.5283Z" fill="black"/>
<path d="M122.837 38.752C122.837 38.6758 122.865 38.6104 122.919 38.5557C122.974 38.501 123.039 38.4736 123.116 38.4736H125.497C126.081 38.4736 126.512 38.6416 126.789 38.9775C126.944 39.1631 127.021 39.4004 127.021 39.6895C127.021 39.9766 126.889 40.2275 126.625 40.4424C127 40.6436 127.188 40.9561 127.188 41.3799C127.188 41.8037 127.037 42.126 126.737 42.3467C126.438 42.5654 126.071 42.6748 125.635 42.6748H123.116C123.039 42.6748 122.974 42.6484 122.919 42.5957C122.865 42.541 122.837 42.4756 122.837 42.3994V38.752ZM123.942 41.8838H125.618C125.768 41.8838 125.883 41.8389 125.963 41.749C126.043 41.6592 126.083 41.5361 126.083 41.3799C126.083 41.2236 126.043 41.1006 125.963 41.0107C125.883 40.9209 125.768 40.876 125.618 40.876H123.942V41.8838ZM123.942 40.1055H125.509C125.632 40.1055 125.731 40.0693 125.805 39.9971C125.879 39.9229 125.916 39.8203 125.916 39.6895C125.916 39.5566 125.879 39.4531 125.805 39.3789C125.731 39.3047 125.632 39.2676 125.509 39.2676H123.942V40.1055Z" fill="black"/>
<path d="M132.564 42.2412C132.166 42.5908 131.58 42.7656 130.807 42.7656C130.035 42.7656 129.449 42.5908 129.049 42.2412C128.648 41.8896 128.448 41.334 128.448 40.5742C128.448 39.8145 128.648 39.2598 129.049 38.9102C129.449 38.5605 130.035 38.3857 130.807 38.3857C131.58 38.3857 132.166 38.5605 132.564 38.9102C132.965 39.2598 133.165 39.8145 133.165 40.5742C133.165 41.334 132.965 41.8896 132.564 42.2412ZM131.765 39.5283C131.567 39.2939 131.248 39.1768 130.807 39.1768C130.367 39.1768 130.048 39.2939 129.849 39.5283C129.651 39.7627 129.553 40.1123 129.553 40.5771C129.553 41.04 129.651 41.3887 129.849 41.623C130.048 41.8555 130.367 41.9717 130.807 41.9717C131.248 41.9717 131.567 41.8555 131.765 41.623C131.962 41.3887 132.061 41.04 132.061 40.5771C132.061 40.1123 131.962 39.7627 131.765 39.5283Z" fill="black"/>
<path d="M134.97 42.1797C134.609 41.834 134.428 41.2998 134.428 40.5771C134.428 39.8525 134.609 39.3174 134.97 38.9717C135.334 38.624 135.878 38.4502 136.602 38.4502H137.255C137.699 38.4502 138.09 38.5654 138.43 38.7959C138.772 39.0264 138.943 39.3418 138.943 39.7422C138.943 39.8574 138.909 39.9404 138.84 39.9912C138.772 40.04 138.706 40.0645 138.641 40.0645H138.293C138.113 40.0645 137.973 39.957 137.874 39.7422C137.729 39.4336 137.489 39.2793 137.153 39.2793H136.631C136.204 39.2793 135.914 39.3711 135.761 39.5547C135.609 39.7383 135.533 40.0781 135.533 40.5742C135.533 41.0703 135.609 41.4111 135.761 41.5967C135.914 41.7803 136.204 41.8721 136.631 41.8721H137.214C137.55 41.8721 137.79 41.7178 137.932 41.4092C138.032 41.1924 138.172 41.084 138.354 41.084H138.703C138.795 41.084 138.867 41.1182 138.92 41.1865C138.974 41.2549 139.002 41.3291 139.002 41.4092C139.002 41.8096 138.832 42.125 138.492 42.3555C138.152 42.584 137.76 42.6982 137.317 42.6982H136.602C135.878 42.6982 135.334 42.5254 134.97 42.1797Z" fill="black"/>
<path d="M140.054 39.0273V38.752C140.054 38.6719 140.08 38.6055 140.133 38.5527C140.186 38.5 140.252 38.4736 140.332 38.4736H144.05C144.13 38.4736 144.196 38.5 144.249 38.5527C144.302 38.6055 144.328 38.6719 144.328 38.752V39.0273C144.328 39.1074 144.302 39.1738 144.249 39.2266C144.196 39.2773 144.13 39.3027 144.05 39.3027H142.743V42.4053C142.743 42.4814 142.716 42.5459 142.661 42.5986C142.609 42.6494 142.544 42.6748 142.468 42.6748H141.914C141.838 42.6748 141.773 42.6494 141.718 42.5986C141.665 42.5459 141.639 42.4814 141.639 42.4053V39.3027H140.332C140.252 39.3027 140.186 39.2773 140.133 39.2266C140.08 39.1738 140.054 39.1074 140.054 39.0273Z" fill="black"/>
<path d="M149.497 42.2412C149.098 42.5908 148.512 42.7656 147.739 42.7656C146.968 42.7656 146.382 42.5908 145.981 42.2412C145.581 41.8896 145.381 41.334 145.381 40.5742C145.381 39.8145 145.581 39.2598 145.981 38.9102C146.382 38.5605 146.968 38.3857 147.739 38.3857C148.512 38.3857 149.098 38.5605 149.497 38.9102C149.897 39.2598 150.097 39.8145 150.097 40.5742C150.097 41.334 149.897 41.8896 149.497 42.2412ZM148.697 39.5283C148.5 39.2939 148.18 39.1768 147.739 39.1768C147.3 39.1768 146.98 39.2939 146.781 39.5283C146.584 39.7627 146.485 40.1123 146.485 40.5771C146.485 41.04 146.584 41.3887 146.781 41.623C146.98 41.8555 147.3 41.9717 147.739 41.9717C148.18 41.9717 148.5 41.8555 148.697 41.623C148.894 41.3887 148.993 41.04 148.993 40.5771C148.993 40.1123 148.894 39.7627 148.697 39.5283Z" fill="black"/>
<path d="M155.949 42.5459C155.949 42.6318 155.898 42.6748 155.796 42.6748H155.125C155.049 42.6748 154.967 42.6484 154.879 42.5957C154.791 42.541 154.723 42.4756 154.674 42.3994L154.159 41.582C154.036 41.3828 153.912 41.2334 153.787 41.1338C153.662 41.0322 153.511 40.9814 153.335 40.9814H152.705V42.4053C152.705 42.4814 152.678 42.5459 152.623 42.5986C152.571 42.6494 152.506 42.6748 152.43 42.6748H151.879C151.803 42.6748 151.738 42.6475 151.683 42.5928C151.628 42.5361 151.601 42.4697 151.601 42.3936V38.752C151.601 38.6758 151.628 38.6094 151.683 38.5527C151.738 38.4961 151.803 38.4678 151.879 38.4678H152.43C152.506 38.4678 152.571 38.4961 152.623 38.5527C152.678 38.6094 152.705 38.6758 152.705 38.752V40.1553H153.335C153.507 40.1553 153.658 40.1084 153.787 40.0146C153.917 39.9209 154.041 39.7695 154.159 39.5605L154.613 38.752C154.716 38.5645 154.857 38.4697 155.035 38.4678H155.711C155.805 38.4678 155.852 38.5088 155.852 38.5908C155.852 38.6357 155.835 38.6895 155.802 38.752L155.166 39.9033C155.075 40.0713 154.971 40.21 154.856 40.3193C154.743 40.4287 154.594 40.5059 154.411 40.5508C154.539 40.5781 154.671 40.6592 154.806 40.7939C154.943 40.9287 155.063 41.0752 155.166 41.2334L155.899 42.3994C155.932 42.4561 155.949 42.5049 155.949 42.5459Z" fill="black"/>
<path d="M156.925 42.4053L157.66 39.6162C157.859 38.8564 158.508 38.4756 159.605 38.4736H161.185C161.257 38.4736 161.316 38.501 161.363 38.5557C161.412 38.6104 161.437 38.6738 161.437 38.7461V42.4053C161.437 42.4814 161.409 42.5459 161.354 42.5986C161.3 42.6494 161.234 42.6748 161.158 42.6748H160.607C160.527 42.6748 160.461 42.6494 160.408 42.5986C160.357 42.5459 160.332 42.4795 160.332 42.3994V41.6611H158.249L158.053 42.3994C158.033 42.4795 157.989 42.5459 157.921 42.5986C157.853 42.6494 157.78 42.6748 157.704 42.6748H157.127C157.051 42.6748 156.996 42.6533 156.963 42.6104C156.93 42.5654 156.913 42.5264 156.913 42.4932C156.915 42.46 156.919 42.4307 156.925 42.4053ZM158.466 40.832H160.332V39.3027H159.497C159.31 39.3027 159.146 39.3564 159.005 39.4639C158.866 39.5693 158.772 39.7119 158.724 39.8916L158.466 40.832Z" fill="black"/>
</svg>
