<svg fill="none" height="72" viewBox="0 0 180 72" width="180" xmlns="http://www.w3.org/2000/svg"><path clip-rule="evenodd" d="m51.137 43c-1.3591 0-8.137-.336-8.137-6.9626 0-.7202.2281-7.0371 8.1377-7.0374 3.7068 0 6.0955 1.2953 6.1242 1.3117.431.2923.4904.6583.3138 1.0114 0 0-.4241.8582-.4251.8616-.2233.4241-.6379.572-1.0385.3644l-.0008-.0005c-.0537-.0325-2.2898-1.3866-5.673-1.0971-4.2099.3603-4.423 3.922-4.423 4.633 0 .8472.2671 3.6751 3.6949 4.495 2.3631.5635 5.304-.2957 5.9498-.5593 0-.1271.0031-2.1319.0031-2.1319 0-.3156-.2565-.5717-.572-.5717h-3.2684c-.4224 0-.6997-.3442-.6997-.7663v-.4736c0-.4214.2773-.7646.6997-.7646h5.6506c.4217 0 .7649.3432.7649.7646v4.5739c0 .6013-.3425.9223-.6239 1.0814-.0788.0526-1.9796 1.268-6.4773 1.268zm16.5754-13.7357c.3685 0 .8039.2688.9675.598 0 0 6.2065 12.173 6.3397 12.4332.1325.2596-.0287.5389-.3968.5389h-1.9909c-.5276 0-.7994-.264-.9613-.586-.0978-.1963-.2574-.4923-.3831-.7256-.0805-.1493-.1471-.2729-.1749-.3282-.1089-.2176-.3455-.2876-.7137-.2882l-6.3882-.0035c-.3678-.0003-.6287.1107-.7134.2917-.0357.0764-.1577.3232-.2832.5771-.0943.1906-.1905.3852-.2536.5146-.1465.3019-.3947.5481-.9363.5481h-1.3721c-.3685 0-.5478-.2349-.3828-.5631l5.9371-12.4036c.1591-.3315.5894-.6034.9572-.6034zm-3.1697 9.1161c-.1546.3329.0185.6068.3863.6068l4.3983.0034c.3675 0 .544-.2739.3921-.6082l-2.2778-5.012c-.1519-.3336-.4036-.336-.5593-.0021zm50.0133 3.883v-12.3052c0-.4675.301-.6939.67-.6935h1.686c.367 0 .605.3001.605.6686v12.298c0 .3682-.301.6031-.669.6031h-1.622c-.369 0-.67-.2322-.67-.571zm-26.9307-5.3368c-.3521.1052-.4682.4378-.2568.739 0 0 3.1321 4.4623 3.2582 4.6415.1273.1803.0696.5273-.2985.5273h-2.0841c-.3678 0-.6451-.152-.9367-.5433l-3.1376-4.4178c-.2128-.3012-.6874-.5471-1.0549-.5471 0 0-3.0225.0034-3.0225.0075 0 .0034-.0017.0061-.0044.0061-.0031 0-.0041 4.8915-.0041 4.8915 0 .3682-.3009.6031-.669.6031h-1.5944c-.3678 0-.6686-.2346-.6686-.6031v-12.2983c0-.3685.3012-.6687.6686-.6687h6.7376c.3674 0 .9688.0137 1.3369.0304 0 0 .908.0427 1.5811.1885.672.1465 1.2491.3804 1.7313.6994.4822.3172.8527.7318 1.1112 1.2382.2585.5078.3883 1.1321.3883 1.8745 0 1.1354-.3374 2.0065-1.0088 2.61-.671.6017-2.0728 1.0213-2.0728 1.0213zm-2.403-1.6446s.4647-.0191.8776-.114c.4128-.0939.7403-.2285.9801-.4013.2407-.1728.4125-.3753.5163-.6082.1024-.2325.1547-.4876.1547-.7632 0-.2769-.0523-.5307-.1547-.7636-.1038-.2328-.2756-.4353-.5163-.6081-.2398-.1718-.5673-.3046-.9801-.3999-.4129-.0953-.8776-.1137-.8776-.1137-.3675-.0154-.9688-.0287-1.337-.0287h-3.1232c-.3681 0-.669.3008-.669.6689v2.4919c0 .3678.3009.669.669.669h3.1232c.3682 0 .9695-.013 1.337-.0291zm48.5887-5.4207c0-.3545.297-.597.665-.597v.0004h1.369c.368 0 .669.3001.669.6686v12.2321c0 .3681-.301.669-.669.669h-1.115c-.564 0-.88-.2128-1.141-.474l-8.214-8.5382c-.254-.2657-.462-.1817-.462.1861 0 0-.008 8.1172-.008 8.2872 0 .3388-.257.5389-.624.5389h-1.484c-.369 0-.608-.2394-.608-.4904v-12.5794c0-.2517.204-.5003.67-.5003h1.481c.504 0 .879.2159 1.135.4808l7.876 8.1702c.256.265.464.1813.464-.1875zm-32.098 7.0718c.176.3221.47.3231.649.0017l3.978-7.0896c.182-.32.49-.5805 1-.5805h2.002c.369 0 .669.3001.669.6686v12.2321c0 .4856-.3.669-.669.669h-1.495c-.368 0-.652-.2319-.652-.587 0-.0211 0-.0994 0-.2253.001-1.3996.004-8.6824-.01-8.6824s-4.845 8.908-4.845 8.908c-.176.3227-.602.3214-.776-.0027 0 0-4.7912-8.931-4.8056-8.931-.014 0-.0194 8.7633-.0194 8.9334 0 .3548-.2654.587-.6338.587h-1.298c-.4279 0-.6697-.2513-.6697-.6188v-12.2826c0-.3685.3015-.6687.6697-.6687h2.0882c.4678 0 .8035.2698.9671.598z" fill="#000" fill-rule="evenodd"/></svg>