<svg fill="none" height="72" viewBox="0 0 180 72" width="180" xmlns="http://www.w3.org/2000/svg"><path d="m74.1211 13.858-7.7598 11.157c-.4596.6608-.4806 1.5301-.0638 2.2188 1.3562 2.241 4.3422 7.3746 5.7034 11.2832 1.4539 4.1752 2.2876 10.4958 2.588 13.1166.085.7409.5623 1.3802 1.2531 1.661l13.6642 5.5533c.2401.0976.5088.0981.7493.0015l13.8265-5.555c.697-.2803 1.179-.9243 1.261-1.6715.284-2.5785 1.06-8.6949 2.417-12.7588 1.35-4.0419 4.381-9.3693 5.729-11.6476.403-.6808.382-1.5322-.064-2.1857l-7.611-11.1578c-.373-.5462-.991-.873-1.652-.873h-28.399c-.6547 0-1.268.3205-1.6419.858z" stroke="#234b8d" stroke-width="2"/><g clip-rule="evenodd" fill="#234b8d" fill-rule="evenodd"><path d="m82.9771 31.1344c-.4169-.2207-1.2066-.7799-1.0301-1.2507.0192-.0511.0389-.105.0595-.1613.2168-.5923.5322-1.454 1.3385-2.1931.7063-.6475 1.9619-1.6432 2.5015-2.0601-.3924-.049-1.2361-.1618-1.4715-.2207-.2943-.0736-.515-.9565-.3679-1.1036.1472-.1472.5886-.2207 1.1036-.2943.2447-.035.4562-.1363.6581-.2331.2231-.107.4345-.2083.6663-.2083h.7357c-.1471-.1472-.515-.4856-.8093-.6622-.0561-.0337-.1139-.0656-.17-.0966-.312-.1724-.572-.3162-.1979-.5656.2686-.1791.4283-.0585.6116.08.1179.089.2456.1855.4185.2143.1175.0196.2351.0496.3554.0804.3315.0847.6842.1747 1.116.0668.104-.026.1896-.0497.2625-.0699.3399-.0941.4041-.1119.7676.0699.4414.2207 1.1772.0735 1.6186-.2208.2814-.1876.4432-.136.6379-.0739.1107.0353.2321.0739.3921.0739.077 0 .1518.0068.2274.0135.358.0322.7359.0661 1.4648-.6021.3674-.3367.5564-.5716.689-.7363.1861-.2312.2611-.3243.5618-.3673.515-.0735 1.6922-.1471 1.6922 0 0 .1472-.7357 1.0301-1.6922 1.5451-.1539.0829-.3045.1693-.4562.2563-.7913.454-1.6118.9248-3.0754.9945-1.236.0588-2.1336.0245-2.4279 0l-.2943.2207c-.0524.0262.0016.0188.1116.0037.1986-.0272.5797-.0795.8449-.0037.515.1471.8093.2943.7357.4414-.0736.1472-.2943.515-.7357.5886-.1026.0171-.1854.0342-.2547.0485-.2289.0474-.3116.0645-.4811-.0485-.0958-.0639-.1223.0943-.1698.378-.0619.3696-.1594.9523-.4923 1.5349-.4709.8241-.7848 1.4715-.8829 1.6922 2.2072-.049 6.6805-.1324 6.9159-.0735.2943.0735 2.1337 1.1036 2.5016 1.545.041.0493.0821.0977.1221.1448.3178.3742.5643.6645.1722.6645-.4415 0-.5886.1472-.5151.5151.0105.0525.0211.1186.0331.1941.072.453.1982 1.2458.7027 1.4981.179.0895.3307.1449.4574.1912.2897.1059.4478.1637.499.4709.009.0538.0191.1239.031.2073.0861.6008.2704 1.8868.8519 2.6621.086.1147.1634.217.2326.3086.4639.6138.5669.7501.5029.9422-.0488.1471.098.1635.246.1798.073.0082.147.0164.196.0409.096.0483.288.5402.45.9559.085.2177.161.4144.212.5156.147.2943.073.4414-.368.3678-.441-.0735-1.545-1.3243-1.8393-1.9865-.0358-.0805-.076-.174-.1204-.2777-.3214-.7492-.8699-2.0279-1.6454-2.7388-.7063-.6474-1.8148-1.2998-2.2808-1.545-.0245.1962-.0589.6474 0 .8828.065.2601-.1572.4052-.5144.6386-.047.0307-.0964.0629-.1478.0972-.0783.0522-.1891.1206-.3207.202-.6105.3772-1.6705 1.0321-2.0337 1.6373-.1871.312-.3082.6108-.408.857-.1355.3345-.2318.5721-.4013.6145-.2943.0736-.515.1472-.4414.6622s-.1472.8093-.4415.8829c-.2943.0735-1.03.1471-1.03 0 0-.1472.1472-.8829.2943-1.1036.1026-.1539.1694-.2005.2254-.2396.0243-.0169.0466-.0325.0689-.0547.0249-.025.033-.0752.0441-.1451.0218-.1363.0556-.3474.2502-.5907.0525-.0656.1471-.1827.2689-.3334.5608-.694 1.6965-2.0997 1.9383-2.4624.0177-.0265.0351-.0524.0521-.0779.2671-.3986.4497-.6711.2422-.8786-.1766-.1765-.6622-.7112-.8829-.9564-.3433-.0245-1.2802-.0147-2.2808.2207-.881.2073-1.835.4876-2.4249.6609-.2476.0728-.431.1267-.518.1484-.2943.0736-.5886-.0736-.8094-.2943-.1931-.1931-.3862.0081-.5794.2093-.0275.0287-.0551.0574-.0827.085l-1.1036 1.1036c-.1472.1472.3678.2208.6621.2208s.8829 0 1.1036.5885c.2043.5447-.2164.5332-.7132.5195-.0799-.0022-.1617-.0044-.2432-.0044-.5886 0-1.1036-.2208-1.3243-.3679-.2208-.1472-.8829.5886-1.398 1.4715-.1381.2368-.2392.4206-.3174.5629-.2135.3883-.2568.4671-.4183.4671-.1485 0-.1638.0333-.2251.1672-.0299.0651-.0706.1539-.1428.2743-.0617.1029-.1062.2174-.1495.3289-.1115.2869-.2153.5539-.5862.5539-.515 0-.9565 0-1.03-.0735-.0736-.0736 0-.2943.2942-.6622.1219-.1524.2943-.3552.4963-.5929.2856-.3361.6304-.7419.9752-1.1729.4709-.5886 1.2263-1.7167 1.5451-2.2072l-1.6186-1.6186c-.5151-.515-.6622-.8093-.5151-1.2508.1472-.4414.3679-.6621.9565-.7357.4709-.0589 1.3734-.1226 1.7658-.1472zm-.1472 3.943c-.1471-.1226-.5003-.4709-.7357-.8829-.0338-.0591-.0666-.1142-.097-.1655-.2354-.3963-.3337-.5618.3177-.4967.2452.0246.4578.0409.6349.0545.3543.0273.5668.0436.6158.0927.0476.0475-.0583.2177-.1789.4116-.0662.1064-.1368.2199-.1889.3241-.1177.2355-.2943.5396-.3679.6622z"/><path d="m84.3636 47.5868h-3.3636v-3.5868c0-.5523.4477-1 1-1h4.2748c.38 0 .688.308.688.688s-.308.688-.688.688h-1.0448c-.4785 0-.8664.3879-.8664.8664zm3.0607-3.2193-1.0731 3.2193h1.6819v-.6116h1.8347v.6116h3.6694l-1.4655-3.382c-.317-.7314-1.038-1.2048-1.8352-1.2048h-.9148c-.8609 0-1.6252.5509-1.8974 1.3675zm7.1067.0085h1.4525c.1689 0 .3058.1369.3058.3058s-.1369.3058-.3058.3058h-.8409c-.2111 0-.3823.1711-.3823.3822s.1712.3823.3823.3823h.8409c.1689 0 .3058.1369.3058.3058 0 .1688-.1369.3057-.3058.3057h-1.529c-.3377 0-.6115.2738-.6115.6116s.2738.6116.6115.6116h3.7841c.6967 0 1.2614-.5648 1.2614-1.2614v-.3695c0-.0281-.0228-.0509-.051-.0509-.0563 0-.1019-.0457-.1019-.102v-.5606c0-.0563.0456-.1019.1019-.1019.0282 0 .051-.0228.051-.051v-1.3065c0-.2077-.0825-.4068-.2293-.5537-.1469-.1468-.346-.2293-.5537-.2293h-4.186c-.38 0-.688.308-.688.688s.308.688.688.688zm-6.1922 1.2232.6116-1.3761h.4587l.4587 1.3761z"/></g></svg>