<svg width="180" height="72" viewBox="0 0 180 72" fill="none" xmlns="http://www.w3.org/2000/svg">
<g clip-path="url(#clip0)">
<path d="M79.9737 22C80.3868 22.17 80.837 22.1328 81.2647 22.2231C83.6235 22.7544 85.3022 24.4013 85.5745 26.9075C85.965 30.4815 84.8746 33.5708 81.9819 35.822C81.094 36.534 80.0576 37.0373 78.949 37.2948C77.8405 37.5523 76.6883 37.5573 75.5775 37.3096C73.147 36.8075 71.6011 35.1633 71.1947 32.7221C70.8414 30.5665 71.2956 28.5212 72.3037 26.6299C73.7341 23.9457 75.976 22.3799 79.052 22.0837C79.1051 22.0837 79.1529 22.0292 79.2047 22L79.9737 22ZM83.1201 28.3485C83.1201 28.1267 83.136 27.9023 83.1201 27.6845C82.9594 25.768 81.7202 24.4332 79.9086 24.3163C77.6415 24.1715 75.8671 25.0813 74.7289 27.0483C73.9103 28.4808 73.5156 30.1164 73.5906 31.7645C73.6584 33.7435 74.9108 35.057 76.6799 35.2815C77.4234 35.3909 78.182 35.3333 78.9004 35.1127C79.6188 34.8922 80.279 34.5143 80.833 34.0065C82.5251 32.499 83.0218 30.5001 83.1201 28.3485Z" fill="#444A8E"/>
<path d="M124.625 22C125.064 22.1873 125.545 22.1488 126.003 22.255C128.122 22.7517 129.333 24.3708 129.597 26.444C129.632 26.7096 129.523 26.8066 129.285 26.8557C128.739 26.9673 128.198 27.0921 127.654 27.2183C127.325 27.294 127.107 27.1585 127.061 26.8424C126.694 24.319 124.686 23.9896 122.684 24.4518C121.291 24.7758 120.263 25.6298 119.569 26.8663C118.76 28.3205 118.352 29.9631 118.387 31.6264C118.408 34.4275 120.429 35.931 123.152 35.146C124.746 34.6865 125.731 33.5669 126.339 32.0913C126.49 31.7287 126.628 31.5866 127.029 31.7367C127.459 31.8974 127.916 31.985 128.357 32.1046C128.686 32.1922 128.803 32.4074 128.668 32.7129C126.697 37.1714 122.489 38.2539 118.972 37.0054C117.21 36.3799 116.34 34.9375 116.05 33.1724C115.539 30.0831 116.204 27.2435 118.226 24.8237C119.486 23.3149 121.188 22.4782 123.14 22.1674C123.38 22.1302 123.645 22.1753 123.852 21.996L124.625 22Z" fill="#444A8E"/>
<path d="M144.705 26.7813C144.053 26.9234 143.398 27.0549 142.75 27.2117C142.424 27.29 142.175 27.1944 142.134 26.8783C141.8 24.3468 139.743 23.9843 137.735 24.4597C137.095 24.6062 136.493 24.8869 135.97 25.2832C135.446 25.6796 135.013 26.1825 134.699 26.7588C133.615 28.658 133.181 30.6914 133.59 32.8682C133.894 34.4965 135.255 35.1965 136.456 35.2948C138.684 35.4767 140.407 34.4036 141.357 32.1896C141.57 31.6902 141.786 31.5879 142.262 31.7752C142.63 31.9199 143.029 31.9837 143.411 32.0913C143.747 32.1856 143.891 32.3914 143.735 32.7341C141.825 36.9749 137.856 38.2605 134.165 37.0506C132.38 36.4662 131.508 35.0371 131.135 33.2773C130.866 31.9795 130.873 30.6393 131.158 29.3447C131.563 27.391 132.364 25.6365 133.845 24.2525C135.221 22.9722 136.869 22.3041 138.728 22.1009C138.844 22.0877 138.994 22.1488 139.068 22H139.642C139.691 22.1182 139.799 22.0784 139.886 22.0877C140.922 22.1992 141.879 22.4144 142.774 23.0731C143.566 23.6499 144.147 24.4692 144.431 25.4067C144.547 25.7613 144.617 26.1292 144.709 26.4918L144.705 26.7813Z" fill="#444A8E"/>
<path d="M98.0446 50C98.0446 49.8977 97.9755 49.8672 97.8971 49.8459C96.318 49.2987 95.703 48.2907 95.9328 46.6252C96.2383 44.4138 98.0857 42.8599 100.251 43.0312C101.277 43.1136 102.11 43.5771 102.455 44.5904C102.682 45.285 102.717 46.028 102.556 46.7407C102.502 47.0063 102.333 46.9638 102.167 46.9638C101.051 46.9638 99.9372 46.9638 98.8215 46.9718C98.625 46.9718 98.3275 46.831 98.2544 47.1458C98.176 47.4911 98.176 47.8471 98.52 48.0954C98.6487 48.184 98.7949 48.2438 98.9487 48.2709C99.1026 48.298 99.2604 48.2917 99.4116 48.2524C99.5628 48.2131 99.7037 48.1417 99.8249 48.0431C99.946 47.9445 100.045 47.8211 100.114 47.681C100.289 47.3211 100.49 47.2454 100.852 47.3065C101.215 47.3676 101.581 47.3676 101.947 47.3942C102.312 47.4207 102.39 47.5774 102.206 47.8962C101.6 48.9415 100.745 49.644 99.5387 49.8884C99.4232 49.911 99.2731 49.8552 99.2 50.004L98.0446 50ZM99.548 45.5281C99.7871 45.5281 100.025 45.5281 100.264 45.5281C100.357 45.5281 100.451 45.5348 100.482 45.4033C100.501 45.3181 100.502 45.2299 100.487 45.1441C100.471 45.0582 100.438 44.9764 100.39 44.9034C100.342 44.8305 100.28 44.7679 100.208 44.7194C100.135 44.6708 100.053 44.6374 99.9677 44.621C99.7725 44.5762 99.5687 44.5869 99.3793 44.6519C99.1899 44.717 99.0224 44.8337 98.8959 44.9889C98.7777 45.1217 98.5825 45.2891 98.6728 45.475C98.7392 45.6078 98.965 45.5148 99.119 45.5255C99.2731 45.5361 99.4006 45.5281 99.548 45.5281Z" fill="#B63306"/>
<path d="M111.908 50C111.803 49.7981 111.564 49.826 111.403 49.7609C110.141 49.2496 109.53 47.9161 109.877 46.3742C110.343 44.2969 111.914 42.9887 113.925 43.0179C115.53 43.0418 116.564 44.1097 116.548 45.7234C116.535 46.9652 116.535 46.9652 115.31 46.9652C114.435 46.9652 113.559 46.9585 112.682 46.9652C112.471 46.9652 112.159 46.839 112.128 47.2228C112.098 47.6067 112.084 47.9799 112.492 48.1685C113.096 48.4487 113.733 48.2216 114.061 47.5881C114.194 47.3304 114.326 47.2534 114.609 47.2959C115.008 47.3543 115.406 47.349 115.805 47.3889C116.235 47.4314 116.296 47.5655 116.07 47.9427C115.507 48.8724 114.742 49.5604 113.654 49.8273C113.548 49.8526 113.389 49.818 113.349 49.996L111.908 50ZM113.439 45.5308C113.677 45.5308 113.915 45.5308 114.152 45.5308C114.26 45.5308 114.393 45.5494 114.382 45.3754C114.364 45.0487 114.32 44.7405 113.927 44.6356C113.703 44.5766 113.467 44.5884 113.25 44.6692C113.034 44.7501 112.848 44.8961 112.718 45.0872C112.64 45.1961 112.478 45.3037 112.535 45.4458C112.592 45.5879 112.786 45.5188 112.917 45.5295C113.095 45.5414 113.265 45.5308 113.439 45.5308V45.5308Z" fill="#B63306"/>
<path d="M126.633 50C126.288 49.83 125.955 49.6379 125.635 49.4249C124.861 48.8378 124.606 48.0117 124.631 47.0701C124.704 44.4629 126.921 42.5902 129.353 43.0856C130.573 43.334 131.345 44.2385 131.414 45.4856C131.547 47.8351 129.856 49.5869 128.199 49.8618C128.094 49.8791 127.933 49.8353 127.875 49.9947L126.633 50ZM129.046 45.5746C129.024 45.2505 129.122 44.8574 128.722 44.6661C128.41 44.516 128.099 44.5984 127.822 44.7896C127.616 44.9225 127.516 45.1469 127.411 45.3621C127.116 45.9637 127.111 46.6384 126.937 47.2706C126.804 47.7514 127.084 48.2256 127.423 48.3331C127.822 48.466 128.301 48.2202 128.555 47.7514C128.624 47.6266 128.682 47.4954 128.726 47.3596C128.909 46.7808 129.016 46.1808 129.046 45.5746V45.5746Z" fill="#B63306"/>
<path d="M94.2687 28.2225C95.2873 28.2225 96.3074 28.2132 97.3234 28.2225C97.601 28.2225 97.7059 28.1441 97.7511 27.8612C98.0286 26.1678 98.3328 24.4771 98.613 22.7837C98.6688 22.4503 98.7804 22.2896 99.1576 22.3215C99.6317 22.3614 100.112 22.3215 100.591 22.3321C101.002 22.3401 101.172 22.534 101.09 22.9418C100.733 24.7188 100.478 26.5158 100.102 28.2822C99.9186 29.1588 99.8057 30.0633 99.6556 30.9545C99.3196 32.9374 98.949 34.9137 98.6077 36.8953C98.5625 37.1609 98.4643 37.2419 98.2093 37.2313C97.7311 37.214 97.253 37.2313 96.7762 37.2193C96.2688 37.2047 96.1559 37.0679 96.2449 36.5765C96.569 34.6799 96.8838 32.7833 97.2384 30.8934C97.3101 30.5042 97.1839 30.4763 96.8705 30.4777C94.8637 30.487 92.8568 30.4936 90.85 30.4777C90.4861 30.4777 90.3612 30.5906 90.3015 30.9372C89.9562 32.9082 89.5869 34.8831 89.2536 36.8501C89.2004 37.1622 89.0836 37.2486 88.7927 37.2326C88.3478 37.2127 87.9002 37.2326 87.4553 37.2247C86.9014 37.2247 86.7819 37.0799 86.8788 36.5207C87.2959 34.1088 87.716 31.6974 88.1393 29.2863C88.5111 27.1427 88.8897 24.9991 89.2456 22.8528C89.312 22.4543 89.4501 22.2803 89.8805 22.3215C90.2895 22.3653 90.7079 22.3295 91.1209 22.3321C91.6735 22.3321 91.8169 22.4955 91.7239 23.0201C91.4583 24.5254 91.1869 26.027 90.9098 27.5252C90.7836 28.2172 90.777 28.2158 91.4968 28.2158L94.2687 28.2225Z" fill="#444A8E"/>
<path d="M64.8105 24.5925C64.238 24.5925 63.6616 24.6297 63.0919 24.5819C62.6336 24.5447 62.4716 24.6921 62.3946 25.1477C61.9952 27.5206 61.5738 29.8909 61.1302 32.2586C60.9429 33.2653 60.7424 34.2747 60.3545 35.2283C59.6254 37.0266 57.9772 37.8846 55.8521 37.2763C55.548 37.1887 55.4537 36.9735 55.548 36.6866C55.6967 36.251 55.8614 35.8207 56.0274 35.3903C56.0447 35.3325 56.0741 35.2791 56.1136 35.2336C56.1532 35.188 56.202 35.1515 56.2568 35.1263C56.3116 35.1012 56.3712 35.088 56.4315 35.0878C56.4918 35.0875 56.5515 35.1001 56.6065 35.1247C57.5043 35.4182 58.0104 35.045 58.2826 34.1538C58.6067 33.0913 58.7408 31.9823 58.9348 30.8906C59.4209 28.1511 59.8954 25.4089 60.3585 22.664C60.4037 22.3984 60.5099 22.3293 60.757 22.3293C63.6231 22.3293 66.4906 22.3293 69.3567 22.3293C69.8309 22.3293 69.961 22.5113 69.876 22.9934C69.6383 24.3216 69.4045 25.6497 69.1668 26.9845C68.5842 30.2606 68.002 33.5393 67.4203 36.8208C67.3672 37.1262 67.2543 37.2497 66.9289 37.2285C66.4693 37.198 65.9992 37.2285 65.5436 37.2179C65.0881 37.2072 64.9526 37.0439 65.0296 36.5936C65.4546 34.0874 65.8717 31.5799 66.3033 29.0737C66.5326 27.7455 66.777 26.4174 67.0364 25.0892C67.1108 24.712 67.071 24.5434 66.6221 24.5726C66.0231 24.6231 65.4148 24.5925 64.8105 24.5925Z" fill="#444A8E"/>
<path d="M107.783 32.8829C107.003 32.8829 106.222 32.8975 105.442 32.8829C105.312 32.8644 105.178 32.8906 105.064 32.9571C104.95 33.0236 104.861 33.1266 104.813 33.2495C104.177 34.4687 103.502 35.6667 102.86 36.8833C102.728 37.1489 102.574 37.2472 102.273 37.2299C101.782 37.2021 101.287 37.2392 100.794 37.2299C100.364 37.2233 100.216 36.955 100.427 36.5778C101.838 34.0517 103.25 31.5282 104.663 29.0074C105.835 26.9063 107.002 24.8011 108.164 22.692C108.211 22.5771 108.295 22.4808 108.402 22.4178C108.509 22.3548 108.634 22.3284 108.757 22.3427C109.314 22.3627 109.872 22.3613 110.43 22.3427C110.71 22.3348 110.852 22.3945 110.908 22.7093C111.094 23.7599 111.331 24.8064 111.581 25.8397C111.794 26.719 112.003 27.6049 112.223 28.4854C112.665 30.2612 113.05 32.0502 113.462 33.8339C113.668 34.7264 113.88 35.6162 114.087 36.5074C114.22 37.0838 114.12 37.2193 113.516 37.2339C113.023 37.2472 112.528 37.2127 112.037 37.2472C111.662 37.2724 111.513 37.1516 111.444 36.7757C111.237 35.6348 110.978 34.5033 110.755 33.365C110.689 33.0237 110.565 32.8643 110.171 32.8829C109.376 32.9108 108.579 32.8829 107.783 32.8829ZM109.093 25.2886C108.218 27.2224 107.101 28.9343 106.165 30.7977C107.466 30.7977 108.704 30.7977 109.942 30.7977C110.168 30.7977 110.208 30.7207 110.16 30.5122C109.797 28.7949 109.451 27.0736 109.088 25.2886H109.093Z" fill="#444A8E"/>
<path d="M53.9248 22.3361C55.3592 22.3361 56.7932 22.3361 58.2267 22.3361C58.8071 22.3361 58.9399 22.4849 58.8403 23.052C58.7513 23.5527 58.8004 24.2115 58.5003 24.5023C58.2001 24.7932 57.5307 24.586 57.0234 24.5873C55.2082 24.5971 53.3931 24.5971 51.578 24.5873C51.2911 24.5873 51.1609 24.6537 51.1065 24.9579C50.4065 28.9423 49.6907 32.9268 48.9907 36.9112C48.9482 37.1503 48.8579 37.2366 48.6281 37.2326C48.1673 37.2233 47.7051 37.2326 47.2429 37.2326C46.6439 37.2326 46.5283 37.1078 46.6266 36.5181C46.8498 35.1899 47.0862 33.8618 47.3173 32.5336C47.8831 29.3049 48.4422 26.0762 48.9881 22.8501C49.0571 22.445 49.2085 22.3189 49.6243 22.3255C51.0573 22.3534 52.4917 22.3361 53.9248 22.3361Z" fill="#444A8E"/>
<path d="M139.099 46.0581C138.536 47.2255 137.995 48.316 137.491 49.417C137.349 49.7264 137.176 49.83 136.848 49.8154C136.403 49.7849 135.956 49.7849 135.51 49.8154C135.143 49.8447 135.069 49.6946 135.039 49.3612C134.935 48.2243 134.791 47.0901 134.571 45.9412C134.439 46.5907 134.315 47.2402 134.192 47.8896C134.093 48.4049 133.984 48.9203 133.914 49.4396C133.877 49.7052 133.792 49.838 133.498 49.8128C133.149 49.7889 132.797 49.8008 132.446 49.8128C132.096 49.8247 132.005 49.68 132.068 49.3413C132.431 47.3703 132.785 45.3976 133.13 43.4231C133.169 43.1999 133.271 43.1388 133.481 43.1415C134.324 43.1415 135.17 43.1561 136.014 43.1415C136.356 43.1335 136.356 43.35 136.37 43.5731C136.447 44.8747 136.699 46.1617 136.682 47.4713C136.682 47.5098 136.715 47.5496 136.738 47.5974C136.944 47.5204 136.955 47.3212 137.025 47.1764C137.612 45.9585 138.193 44.7379 138.76 43.5094C138.881 43.2438 139.026 43.1309 139.33 43.1415C140.014 43.1667 140.701 43.1561 141.385 43.1415C141.774 43.1349 141.895 43.2982 141.824 43.6728C141.46 45.611 141.1 47.5501 140.745 49.49C140.7 49.7344 140.612 49.8367 140.346 49.8207C139.933 49.7968 139.517 49.8022 139.104 49.8207C138.691 49.8393 138.556 49.7145 138.648 49.2895C138.836 48.4063 138.978 47.5124 139.136 46.6226C139.196 46.4365 139.183 46.2347 139.099 46.0581V46.0581Z" fill="#B63306"/>
<path d="M120.286 45.3755C120.938 44.811 121.614 44.2652 122.237 43.6715C122.655 43.2731 123.086 43.0406 123.675 43.1283C123.945 43.1496 124.217 43.1496 124.487 43.1283C124.62 43.1283 124.738 43.1283 124.806 43.2757C124.887 43.451 124.775 43.5413 124.665 43.6356C124.059 44.1749 123.469 44.7287 122.845 45.2533C122.602 45.4565 122.546 45.6225 122.666 45.9333C123.091 47.0397 123.477 48.1606 123.876 49.2776C124.023 49.6933 123.958 49.7916 123.512 49.7929C122.908 49.7929 122.184 49.9789 121.732 49.7146C121.281 49.4503 121.283 48.676 121.068 48.1301C121.054 48.0845 121.037 48.0401 121.016 47.9973C120.858 47.7463 120.947 47.3332 120.601 47.2256C120.436 47.1725 119.769 47.9681 119.724 48.2045C119.639 48.6414 119.541 49.0771 119.477 49.5167C119.445 49.7425 119.344 49.8036 119.134 49.7996C118.626 49.7876 118.116 49.789 117.606 49.7996C117.275 49.7996 117.142 49.6827 117.207 49.3361C117.566 47.3983 117.922 45.4618 118.258 43.5201C118.314 43.1987 118.441 43.1044 118.755 43.1216C119.214 43.1482 119.678 43.1363 120.138 43.1216C120.518 43.1137 120.67 43.2545 120.569 43.6529C120.436 44.2041 120.323 44.7619 120.202 45.3171L120.286 45.3755Z" fill="#B63306"/>
<path d="M93.5966 40.9248C94.6007 40.9248 95.6034 40.9248 96.6075 40.9248C96.9781 40.9248 97.1481 41.0376 97.0418 41.4374C96.909 41.9381 97.0418 42.6328 96.6686 42.8984C96.3259 43.1414 95.6831 43.0179 95.1811 42.9701C94.679 42.9223 94.517 43.1029 94.4307 43.5903C94.1026 45.5188 93.7188 47.442 93.3814 49.3651C93.323 49.6972 93.2287 49.8287 92.8754 49.8074C92.3521 49.7755 91.8249 49.7928 91.2989 49.8074C90.9589 49.8074 90.8434 49.6746 90.9005 49.3359C91.2617 47.3849 91.6031 45.4312 91.9829 43.4841C92.0653 43.0604 91.963 42.9528 91.5552 42.9821C91.1475 43.0113 90.7584 42.9821 90.3599 42.9914C89.9615 43.0006 89.8565 42.82 89.9376 42.4601C90.0237 42.1047 90.0889 41.7446 90.1328 41.3816C90.1687 41.0297 90.3094 40.9115 90.6747 40.9221C91.6522 40.9433 92.6244 40.9248 93.5966 40.9248Z" fill="#B63306"/>
<path d="M106.094 45.8136C105.477 46.9903 104.846 48.1604 104.251 49.3478C104.08 49.6878 103.887 49.8618 103.494 49.81C103.244 49.7768 102.985 49.81 102.731 49.802C102.291 49.7901 102.219 49.6692 102.425 49.2801C103.237 47.7332 104.054 46.1868 104.874 44.6408C105.133 44.1508 105.291 43.5039 105.699 43.225C106.132 42.9302 106.809 43.148 107.38 43.14C108.104 43.1281 108.099 43.14 108.192 43.8559C108.421 45.6542 108.647 47.4525 108.898 49.2482C108.959 49.6825 108.832 49.8299 108.403 49.8087C107.926 49.7834 107.448 49.7834 106.971 49.8087C106.647 49.8272 106.572 49.6931 106.551 49.4009C106.448 48.2149 106.32 47.0302 106.201 45.8441L106.094 45.8136Z" fill="#B63306"/>
<path d="M44.0195 26.8397C44.6078 26.8397 45.1975 26.8464 45.7872 26.8397C46.0529 26.8397 46.1551 26.8716 46.0741 27.1864C45.6757 28.7496 45.2879 30.3195 44.9107 31.8893C44.8536 32.1271 44.7699 32.2267 44.5029 32.2267C43.3395 32.2015 42.176 32.1855 41.0139 32.1975C40.634 32.1975 40.6154 32.0075 40.6832 31.7512C41.0471 30.2066 41.4269 28.6659 41.7829 27.12C41.8426 26.8636 41.9529 26.7906 42.2026 26.7972C42.8082 26.8118 43.4138 26.7972 44.0195 26.7972V26.8397Z" fill="#B63306"/>
<path d="M38.1027 32.1337C37.4971 32.1337 36.8928 32.1244 36.2885 32.1337C36.0321 32.1337 35.9511 32.066 36.0109 31.803C36.3602 30.2584 36.7068 28.7124 37.0296 27.1625C37.0947 26.8543 37.2049 26.7468 37.525 26.7534C38.7017 26.7773 39.8789 26.7839 41.0565 26.7733C41.3939 26.7733 41.5094 26.8344 41.4098 27.201C41.1827 28.0364 41.0857 28.9276 40.7617 29.7152C40.4828 30.4031 40.5279 31.1296 40.2968 31.8083C40.2158 32.0461 40.1348 32.2068 39.82 32.1829C39.2489 32.1457 38.6752 32.1722 38.1014 32.1722L38.1027 32.1337Z" fill="#444A8E"/>
<path d="M39.383 26.4638C38.7628 26.4638 38.1425 26.4559 37.5236 26.4638C37.258 26.4638 37.1942 26.3709 37.258 26.1199C37.5382 24.898 37.8158 23.6774 38.0748 22.4515C38.1266 22.2071 38.2315 22.15 38.4586 22.1527C39.715 22.1686 40.971 22.1748 42.2266 22.1713C42.4922 22.1713 42.5679 22.2403 42.5055 22.5006C42.2097 23.7323 41.9215 24.9635 41.6408 26.1942C41.5824 26.4466 41.4403 26.5037 41.1999 26.497C40.5969 26.4811 39.9913 26.497 39.3883 26.497L39.383 26.4638Z" fill="#444A8E"/>
<path d="M45.1208 22.1966C45.7265 22.1966 46.3308 22.1966 46.9364 22.1966C47.2193 22.1913 47.291 22.2656 47.2193 22.5645C46.9072 23.7691 46.615 24.9791 46.3321 26.1916C46.2737 26.4387 46.1674 26.525 45.9111 26.521C44.7025 26.5024 43.4912 26.4931 42.2813 26.5011C41.9718 26.5011 41.9492 26.3856 42.0156 26.1332C42.3091 24.9126 42.5987 23.6921 42.8696 22.4675C42.9254 22.2152 43.0516 22.178 43.2681 22.182C43.8883 22.1913 44.5099 22.182 45.1275 22.182L45.1208 22.1966Z" fill="#444A8E"/>
<path d="M38.0429 32.4924C38.6325 32.4924 39.2222 32.4924 39.8119 32.4924C40.051 32.4924 40.1586 32.5336 40.0922 32.8098C39.7964 34.0149 39.5127 35.2248 39.2408 36.4397C39.1917 36.6522 39.0868 36.7159 38.8756 36.7133C37.682 36.692 36.4867 36.6787 35.2896 36.6734C35.0439 36.6734 34.9536 36.615 35.0173 36.3414C35.2936 35.1354 35.5486 33.9268 35.8076 32.7169C35.8541 32.4964 35.9709 32.4512 36.1768 32.4512C36.7984 32.4619 37.42 32.4512 38.0362 32.4512L38.0429 32.4924Z" fill="#B63306"/>
<path d="M44.6833 32.5044C44.4907 33.8552 44.0777 35.0903 43.8134 36.3561C43.7523 36.6469 43.6474 36.7731 43.3167 36.7625C42.2023 36.7253 41.0867 36.724 39.9711 36.7186C39.6948 36.7186 39.5235 36.7186 39.6231 36.3335C39.9272 35.1647 40.1929 33.9853 40.4625 32.8073C40.5063 32.6133 40.5541 32.4965 40.7905 32.4991C42.0788 32.5098 43.3671 32.5044 44.6833 32.5044Z" fill="#B63306"/>
</g>
<defs>
<clipPath id="clip0">
<rect x="35" y="22" width="109.702" height="28" fill="white"/>
</clipPath>
</defs>
</svg>
