<svg fill="none" height="72" viewBox="0 0 180 72" width="180" xmlns="http://www.w3.org/2000/svg"><g fill="#c11129"><path d="m26.4374 32.402v9.3755h-2.3212v-3.4824h-3.795v3.5266h-2.3212v-9.375h2.3212v3.7502h3.795v-3.7502h2.3212zm26.7854 9.3749h-2.3213v-4.6877l-2.0981 3.2146h-1.2954l-2.0976-3.2588v4.7319h-2.3212v-9.3749h1.7409l3.3035 5.0003 3.3035-5.0003h1.7409v9.3755zm-18.4374-9.7763c-3.7055 0-6.6965 2.8568-6.6965 6.3839 0 1.2495.3572 2.4107 1.027 3.3924h3.214c-.9817-.7586-1.6067-1.9192-1.6067-3.2587 0-2.2324 1.8298-4.0622 4.0622-4.0622 2.2323 0 4.0627 1.8298 4.0627 4.0622 0 1.3395-.625 2.5001-1.6073 3.2587h3.214c.6251-.9817 1.027-2.1429 1.027-3.3924-.0005-3.5271-2.9921-6.3845-6.6964-6.3845z"/><path d="m32.5977 39.4558c.3126.9375 1.1612 1.6073 2.1877 1.6073 1.027 0 1.8751-.6698 2.1876-1.6073zm24.8661-4.9997v1.6962h4.1517v1.9639h-4.1517v1.6074h4.732v2.0087h-7.0985v-9.375h7.0985v2.0093h-4.732zm74.0172 4.7319c0 1.5626-1.25 2.589-3.349 2.589h-4.731v-9.375h4.464c2.053 0 3.214.9823 3.214 2.5002 0 .8481-.491 1.7856-1.295 2.0534 1.116.2678 1.697 1.2501 1.697 2.2324zm-5.759-4.8661v1.964h1.741c.893 0 1.384-.4462 1.384-1.0265 0-.5809-.491-.8928-1.384-.8928h-1.741zm3.482 4.5536c0-.5809-.491-.8929-1.339-.8929h-2.143v1.8751h2.098c.937 0 1.384-.4019 1.384-.9822zm9.464 1.2948h-3.973l-.625 1.6067h-2.5l3.973-9.375h2.232l3.973 9.3756h-2.5zm-.759-1.9199-1.25-3.1699-1.25 3.1699zm13.259-5.8484v9.3756h-1.785l-4.509-5.1345v5.1339h-2.322v-9.375h1.786l4.509 5.2681v-5.2681zm5.67 5.8932-1.384 1.6067v1.9204h-2.322v-9.3755h2.322v4.2858l3.75-4.2858h2.768l-3.572 4.1068 3.884 5.2687h-2.901zm-72.723 3.4818-1.7856-2.7232h-1.741v2.7232h-2.3659v-9.375h4.1069c2.3218 0 3.8838 1.2501 3.8838 3.3036 0 1.2053-.5803 2.2323-1.5626 2.8126l2.1876 3.2588zm-3.5713-4.7761h1.7415c.8928 0 1.6068-.4908 1.6068-1.25 0-.7587-.7145-1.2501-1.6068-1.2501h-1.7415zm9.777-2.5448v1.6962h4.1516v1.9639h-4.1516v1.6074h4.7319v2.0087h-7.0985v-9.375h7.0985v2.0093h-4.7319zm15.1343 2.6337c0 2.7679-2.099 4.7319-5.045 4.7319h-3.7501v-9.3749h3.7501c2.902-.0448 5.045 1.8751 5.045 4.643zm-2.367 0c0-1.429-1.161-2.5443-2.678-2.5443h-1.4289v5.1781h1.4289c1.517-.0448 2.678-1.1607 2.678-2.6338zm5.938-4.6878v9.3756h-2.322v-9.3761zm8.928 2.0982h-2.678v7.2768h-2.322v-7.2768h-2.678v-2.0982h7.678zm-43.5259 3.9286c-.3572.8481-1.1165 1.3842-2.1435 1.3842-1.5172 0-2.589-1.1165-2.589-2.6785 0-1.5626 1.0718-2.6784 2.5896-2.6784 1.0264 0 1.7857.4908 2.1429 1.3836h2.4549c-.4909-2.1429-2.2318-3.5713-4.5978-3.5713-2.8126 0-4.955 2.0535-4.955 4.8661 0 2.8121 2.1424 4.8656 4.955 4.8656 2.366 0 4.1069-1.4284 4.5978-3.5713z"/></g></svg>