<svg fill="none" height="72" viewBox="0 0 180 72" width="180" xmlns="http://www.w3.org/2000/svg"><path clip-rule="evenodd" d="m102.133 21.5006h1.202c.195 0 .601 0 .796-.2115 0 .1079-.106.2115-.209.3131-.1.0975-.197.1932-.197.2888-.234.0824-.498.1623-.756.2406-.406.1229-.799.2421-1.047.3613-.39.2115-.195.4067.211.4067h.195c0 .1952-.195.4067-.406.4067-.354.2603-1.025.4049-1.643.538-.7732.1665-1.4631.3151-1.3458.6495 0 0 0 .2115.1949.2115h.4061c-.1593.4539-.6511.5655-1.1411.6767-.1597.0362-.3192.0724-.467.1204-.8879-.0721-1.7203-.2551-2.4573-.4172-1.2585-.2767-2.2386-.4922-2.7405.0105l.0118.0357c.5945 1.7859.9938 2.9857.7841 4.7795 0 .3904 0 .7971.2111 1.2038.1222.1223.1678.2447.2328.4191.0387.1038.0843.2262.1571.378.0739.3529.1696.6799.2629.9985.1733.5918.3381 1.1544.3381 1.7995 0 1.4153.4061 2.2124 1.0071 3.2047.1018.3143.2035.5221.3076.7347.0953.1945.1925.393.2934.6805 0 .3905 0 .7972.1949 1.3991 0 .3772.0765.518.1857.7187.065.1196.1415.2604.2204.485.1949.1953.3898.3905.3898.6019.2112.1952.4061.3905.4061.7971.0129.0259.0259.0519.039.078.1839.3673.38.7591.562 1.321.2389.2492.4106.5717.5975.9225.1182.2218.2424.4549.3933.688-.9908.9923-1.7867.9923-2.9887.9923l-.4061-2.1961c-.601.1952-1.803.1952-1.803 0v-.6019c-.601.6019-1.202.6019-1.9979.6019-.1571-.3277-.3142-.7823-.4798-1.2615-.0399-.1153-.0803-.2321-.1213-.3489-.0121-.0244-.0243-.0489-.0365-.0734-.1828-.3671-.3665-.7359-.5645-.919-.0072-.0078-.0144-.0156-.0216-.0234-.1875-.2028-.3682-.3983-.3682-.7899-.4061-.6019-.601-.7971-1.202-1.2038-.2206-.2121-.4412-.3666-.6279-.4974-.1571-.1099-.2902-.2031-.3792-.2997-.1595-.1598-.319-.4611-.4874-.7793-.0374-.0706-.0752-.1421-.1136-.213-1.202 0-2.404-.4067-3.5898-1.0086 0 .1952.796 1.2038.9909 1.399 0 .1078.1056.1607.2091.2125.0995.0497.197.0985.197.1942.2943.1474.3664.3041.475.5401.0352.0765.0743.1614.126.257.0706.0707.1945.3271.3431.6348.2617.5415.5999 1.2416.8589 1.3661.1949.2114.1949 0 .1949 0 0-.1952-.1949-.6019-.4061-.6019 1.0071-.3905 1.6081-.1952 1.9979.8133.4061 1.1876-.3898 2.0009-1.3969 2.0009-.3898 0-.7959-.2114-.9908-.6019-.1317 0-.1812-.0821-.2471-.1913-.0398-.066-.0856-.1418-.159-.2153v-.3905c-.4363-.4369-.9753-.6681-1.5425-.9114-.2141-.0918-.4322-.1854-.6504-.2924-.8121-.4066-1.4131-.8133-1.608-1.8056-.6011-.7972-1.2021-1.2038-1.8031-1.6105-.7959-.3904-.9908-.7971-1.202-1.7894-.0564-.1178-.0965-.2356-.1349-.3483-.094-.2763-.1776-.5217-.4661-.6603-.1949-.4067-.3898-.6019-.7959-.7971-.7959-.6019-1.202-1.6105-1.3969-2.4076v-1.0086c-.1949-.6019-.1949-1.2038 0-1.7894v-2.4076c.601-1.2038 1.0071-2.6028 1.3969-4.0018.102-.6836.2457-1.3634.389-2.0412.1533-.7256.3062-1.4488.4069-2.1721.2112-.1952.4061-.6019.4061-.7971 0-.4067 0-.6019-.4061-.8133 0 0 0-.1953.2112-.3905.2593-.2705.5258-.5338.7947-.7995.1354-.1337.2713-.2681.4073-.4043.1035-.2158.2069-.3721.3128-.5321.0936-.1414.1891-.2856.2882-.4764.1949-.3905.1949-.7971.1949-.7971.3374-.4475.7362-.6438 1.1275-.8363.3057-.1505.6068-.2987.8705-.5627.406-.4067.601-.6019.601-1.2038l.1949-.1952c0-.2115.2111-.2115.2111-.2115.0745-.0746.1205-.1492.1598-.2128.0636-.1031.1096-.1776.2301-.1776.0817-.0819.1318-.1613.1738-.228.0666-.1054.1128-.1787.2323-.1787 0-.1952.1949-.39045.1949-.1952v.7971.7971h.601.4061.601c.0616 0 .0842 0 .0864.0066.0047.0145-.0864.0602-.0864.2048v.3905c0 .0677 0 .092.0064.0938.0136.0039.056-.0938.1885-.0938.1846 0 .4094.0437.6547.0913.2944.0572.6182.1201.9371.1201l.0482.0067c1.3968.193 2.7778.3838 4.1589.3838.4686.1649.5718.4386.687.744.0325.0862.066.175.1089.2645 0 .1191.0785.1655.184.2279.0675.0399.146.0864.2221.1626.406.6019 0 .8133-.4061.8133-.2246 0-.5192.0648-.769.1197-.1839.0405-.3435.0755-.433.0755-.3899-.1952-.9909.4067-.3899.6019.0975.0976.3452.0976.6193.0976s.5746 0 .7777.0977c.406 0 0 .4066-.4061.4066 0 .4067-.3899.7971-.7959.7971-.181 0-.3619-.1681-.5558-.3484-.015-.0139-.0301-.028-.0453-.042-.7959 0-1.3969 0-1.9979.1952-.4061.1952-.7959.3905-1.202.6019h-.9908c-.2112 0-.2112.1952-.2112.1952v.0001c-.1949 1.399-.3898 2.7979-.3898 4.2132 0 .1952 0 .3904.1949.3904.3959 0 .7919-.0966 1.1898-.1937.402-.0981.8061-.1967 1.2142-.1967.1222.1224.2443.168.4185.2331.1037.0388.2258.0845.3774.1573.4061 0 .7959-.1952.7959-.1952.601-.1952 1.2021-.4067 1.6081-.6019 1.202-.4067 1.998-.4067 2.9888-.4067 2.2091.2115 4.4019.2115 6.6109.2115zm-9.5997-7.6132c.3899.1953.601 0 .601-.1952-.2111-.2114-.8121-.4067-1.007 0 .1949.1952.406.1952.406.1952zm-4.5968-.4066c.5847 0 .3898-.3905.1949-.6019-.1949 0-.601 0-.7959.2114 0 .1952.3898.3905.601.3905zm-1.0071 9.614c-.1949 0-.1949.2115-.1949.2115-.2112.9923 0 2.1961.3898 3.2047 0 .1952.4061.7971.8122 1.1875.0952.1207.1905.2384.2847.3547.6931.8563 1.3304 1.6437 1.502 3.0615h-.1949c-.076.0762-.1546.1226-.2221.1625-.1054.0624-.184.1089-.184.2279-.1949.2115-.1949.4067-.1949.4067.121.1212.2483.0919.4206.0523.1053-.0242.2275-.0523.3753-.0523.4061 0 .601.1952.8122.4067.1949.1952.3898.3904.7959.6019.4061 0 .796-.2115.796-.4067-.195-.6019-.6011-1.2038-.796-1.2038 0-.1952-.4061-.1952-.4061-.1952-.1949-.2115-.1949-.4067-.1949-.4067.1286 0 .3489-.0849.6564-.2033.1588-.0612.3409-.1314.5456-.2034.9909-1.399.195-6.4094-1.803-6.995 0 0-.1949-.2115-.4061-.2115v.2115.1952c0 .1952-.1949.1952-.1949.1952-.1099-.1101-.287-.1581-.4933-.214-.1596-.0433-.3367-.0913-.5138-.1764-.5847-.2115-.9908-.2115-1.5918-.2115zm-2.0457-6.1788c-.0089.0224.0478.0709.0478.1761-.195 1.5942-.601 5.0104-.4061 7.0113v.9923c.2111.8134.4061.2115.4061-.1952v-.6019c0-.4067 0-.7971.1949-1.399 0-.7971.1949-1.8057.4061-2.6028.1039-.3208.1524-.6971.2046-1.1017.0457-.3545.0942-.7308.1852-1.1107.2112 0 .2112-.1952 0-.6018 0-.1953-.1949-.3905-.7959-.5857-.1796 0-.2351 0-.2427.0191zm-.7482 23.2109c.601 0 .796-.1953.3899-.7972-.3899-.2114-1.202-1.6104-1.3969-2.4075-.195-.7971-1.0071-1.399-1.8031-.7971l-.1949.1952c-.1949.1952 0 .4067.4061.6019.6732.5415 1.2564 1.3609 1.8159 2.1469.264.3709.5227.7344.783 1.0578zm-.4976-6.1646c.383.1157.7737.2336.8875.3571 1.0071-.2115 1.202-.6019.601-.8134-.1355-.0679-.3221-.1357-.5331-.2125-.3959-.144-.8779-.3193-1.2699-.5846-.3899 0-.9909 0-.9909-.7971-.3298-.3304-.7184-.6607-1.069-.9588-.2882-.245-.5508-.4682-.734-.6517-.4061 0-.7959.2115-1.0071.4067 0 .4067.601 2.2124.601 2.2124.6185.2973.879.4814 1.2335.7319.111.0784.2313.1634.3746.2604.193 0 .3899-.0478.5888-.0961.203-.0493.4081-.0991.6132-.0991.1623.0812.4314.1624.7044.2448zm2.8906-.927c.4761-.0843.6362-.1126.807-.9283.18-.1803.322-.3641.4802-.569.1843-.2387.3908-.5061.7055-.83v-.1952c0-.1307-.0744-.3298-.1773-.6048-.0636-.1701-.1381-.3691-.2125-.599-.601-.1952-1.6081-.4067-2.2091-.4067-.1035.1123-.2069.1649-.3128.2188-.0936.0477-.1891.0963-.2882.1879 0 .4067.2112.7971.4061.9923l.0187.0098c.3993.2078.7805.4062.9884.9988 0 .4067 0 1.0086-.8122 1.2038 0 .1952 0 .4067.2112.6019.1522-.0374.2825-.0604.395-.0803zm7.4018 9.8896h.1949c0-.6624-.1346-1.0551-.2919-1.5143-.032-.0935-.065-.1897-.098-.2914-.3913-.6195-.5398-1.2095-.6809-1.77-.2221-.882-.4257-1.691-1.5282-2.427-.391-.3282-.6755-.7407-.9227-1.0992-.5127-.7434-.8652-1.2547-1.6762-.2998-.0719.144-.1173.2637-.1565.3672-.0671.177-.1163.3067-.2496.4299 0 .6019.4061.7971.601.7971.4061.1952.8122.4067 1.0071.7971.601 1.8057 1.0071 2.4076 2.404 3.2047 0 .6019.601 1.2038 1.397 1.8057zm3.3948 1.6104c0-.2114-.1949-.4067-.1949-.4067 0-.4066-1.202-2.1961-1.3969-2.0008-.2112 0-.4061.6018-.4061 1.0085h.601c0 .5857 0 1.1876.1949 2.0009.601 0 1.0071-.4067 1.202-.6019zm-3.4424-8.7997c.023-.135.0476-.2795.0476-.4239-.601-.6019-1.397-1.2038-1.6081-1.2038-.361 0-.5549.1813-.7493.3632-.0155.0145-.031.029-.0467.0435.2112.6019.6011 1.6105 1.0071 2.0009.1035.1122.207.1649.3128.2188.0937.0477.1892.0963.2882.1879.3898.6018.7959 1.2036 1.2019 1.8054l.0001.0003c0 .1375-.0262.2528-.0509.3616-.0454.2-.0858.3778.0509.6307.1035.2158.207.3721.3129.5321.0936.1414.1891.2856.2881.4765h.3899c.1949-.2115.1949-.4067.1949-.4067 0-.3905 0-.7971-.1949-1.2038 0-.1207-.0745-.1668-.1774-.2304-.0635-.0394-.138-.0855-.2125-.16-.0771-.2199-.1521-.3877-.2162-.5311-.1113-.2492-.1898-.4249-.1898-.6727-.0692-.1443-.1404-.262-.2121-.3806-.1306-.2158-.2632-.4348-.3889-.8232-.1257-.1259-.0893-.3397-.0476-.5847zm-21.8827 13.3755h36v1.7778h-36zm.4445 4.8889v8.4445h2.4444v-3.3334l.8889-.8889 1.5556 4.2223h3.3333l.4444-.8889h2.6667l.2222.8889h3.3334v-4.6667l1.7777 4.6667h2l1.5556-4.6667v4.6667h3.5555l.4445-.8889h2.4444l.2223.8889h7.9996v-1.3334h-2.889l2.889-7.1111h-5.777v1.5556h2.222l-2.222 5.5555-2.2226-7.1111h-2l-2.2223 6.4445v-6.4445h-2.8889l-1.7777 4.6667-1.3334-4.6667h-3.3333v6.4445l-2-6.4445h-2l-2.2222 6.6667-1.7778-4.2222 2.4444-2.4445h-2.2222l-3.1111 2.8889v-2.8889zm9.3333 5.7778.6666-2.2222.8889 2.2222zm15.5555 0h1.5556l-.6667-2.2222z" fill="#0d53a0" fill-rule="evenodd"/></svg>