<svg fill="none" height="72" viewBox="0 0 180 72" width="180" xmlns="http://www.w3.org/2000/svg"><linearGradient id="a" gradientUnits="userSpaceOnUse" x1="118.931" x2="128.343" y1="40.7053" y2="32.2343"><stop offset="0" stop-color="#e40072"/><stop offset="1" stop-color="#3e2d97"/></linearGradient><linearGradient id="b" gradientUnits="userSpaceOnUse" x1="104.699" x2="113.485" y1="41.2697" y2="33.3627"><stop offset=".0026242" stop-color="#961b80"/><stop offset=".999192" stop-color="#ec529e"/></linearGradient><linearGradient id="c" gradientUnits="userSpaceOnUse" x1="130.127" x2="135.347" y1="40.5964" y2="35.8987"><stop offset="0" stop-color="#261e94"/><stop offset=".995713" stop-color="#00a6e6"/></linearGradient><linearGradient id="d" gradientUnits="userSpaceOnUse" x1="91.3539" x2="98.9816" y1="41.1607" y2="34.2958"><stop offset=".0077123" stop-color="#00bcea"/><stop offset=".0363982" stop-color="#04b8e8"/><stop offset=".998998" stop-color="#8543a2"/></linearGradient><linearGradient id="e" gradientUnits="userSpaceOnUse" x1="58.8674" x2="68.612" y1="42.0744" y2="33.3042"><stop offset="0" stop-color="#eaee11"/><stop offset="1" stop-color="#53b624"/></linearGradient><linearGradient id="f" gradientUnits="userSpaceOnUse" x1="43.4515" x2="53.5511" y1="43.4056" y2="34.3159"><stop offset="0" stop-color="#e20613"/><stop offset=".997696" stop-color="#ffcb00"/></linearGradient><linearGradient id="g" gradientUnits="userSpaceOnUse" x1="72.8877" x2="87.6241" y1="47.4488" y2="34.186"><stop offset=".0097356" stop-color="#59bd3a"/><stop offset="1" stop-color="#26cee0"/></linearGradient><path d="m128.233 32.1116c-4.563-.0669-3.123 1.9551-7.365 1.9551-.385 0-.704-.0354-.982-.093v7.6009c0 .255.185.4618.414.4618h2.366c.228 0 .413-.2068.413-.4618v-4.6524h.768c1.202 0 2.233-.4688 3.092-1.4278.839-.9367 1.276-2.077 1.296-3.3807-.001-.0008-.002-.0013-.002-.0021z" fill="url(#a)"/><path d="m111.848 35.2677c-2.08 0-2.762-1.9302-4.587-1.9302-.428 0-.76.0911-1.045.2252l2.566 3.6151-.534 1.0015c-.191.3623-.459.5541-.821.5541-.694 0-.905-.5582-.968-.9489-.034-.2133-.195-.3723-.389-.3723h-2.521c-.199 0-.36.1798-.36.4015v.0988c0 .8136.42 2.1421 1.241 3.0584s1.833 1.3851 2.997 1.3851c1.565 0 2.749-.7672 3.569-2.3227l3.139-5.948c-.716.5787-1.371 1.1824-2.287 1.1824z" fill="url(#b)"/><path d="m133.855 35.0402c-.826 0-1.463-.9591-2.626-1.7242v8.3252c0 .2394.174.4335.389.4335h2.468c.215 0 .388-.1941.388-.4335v-6.7117c-.181.0693-.385.1107-.619.1107z" fill="url(#c)"/><path d="m96.6903 34.6895c-2.1432 0-1.6216-1.2516-3.9625-1.2516-.4174 0-.7206.0646-.9709.1597v7.8323c0 .2373.1723.4297.3849.4297h3.2003c1.1888 0 2.2076-.4634 3.0569-1.4114.8491-.9479 1.2829-2.1066 1.2829-3.4337 0-1.1309-.3161-2.1236-.9347-2.9792-.5146.3513-1.113.6542-2.0569.6542z" fill="url(#d)"/><g fill="#1d1d1b"><path d="m107.428 42.8184c-1.28.0003-2.388-.5114-3.292-1.5209-.905-1.0096-1.364-2.246-1.364-3.6749v-.2131c0-.2574.187-.4662.418-.4663l3.244-.0007c.231-.0001.418.2086.418.4661v.213c0 .36.253.6419.575.6418.206-.0001.34-.094.461-.3244l.388-.7277-6.962-9.8043c-.099-.1401-.118-.3314-.048-.4924.069-.161.215-.2634.376-.2634l4.161-.001c.127 0 .248.065.327.1765l4.375 6.1564 3.202-6.1043c.075-.1428.212-.2305.36-.2306l3.742-.0009c.149 0 .288.0896.362.2348.075.1452.074.3238-.002.468l-6.812 12.9151c-.893 1.6938-2.215 2.5528-3.929 2.5532zm-3.815-4.9429c.051 1.066.425 1.9944 1.113 2.7626.743.8283 1.651 1.2481 2.702 1.2479 1.417-.0004 2.466-.6853 3.209-2.0939l6.441-12.2122-2.771.0007-3.39 6.4614c-.07.1327-.193.2186-.331.2294-.137.0106-.271-.0547-.356-.1753l-4.629-6.5134-3.096.0007 6.605 9.3007c.107.1516.12.3618.031.5281l-.534 1.0016c-.269.5107-.677.7819-1.179.782-.714.0002-1.288-.5626-1.394-1.3208z"/><path d="m123.081 42.4947-3.193.0008c-.231 0-.418-.2087-.418-.4661l-.003-14.9166c0-.2575.187-.4662.417-.4663l3.961-.0009c1.305-.0003 2.445.5328 3.388 1.5847.942 1.0519 1.42 2.3241 1.421 3.7815 0 1.4715-.478 2.7511-1.42 3.8033-.929 1.0383-2.069 1.5649-3.387 1.5652l-.35.0001.001 4.648c0 .2575-.187.4662-.417.4663zm-2.776-.9318 2.358-.0005-.001-4.648c0-.2575.187-.4663.418-.4663l.767-.0002c1.104-.0003 2.018-.4229 2.797-1.292.779-.8709 1.175-1.9287 1.174-3.1439 0-1.218-.384-2.2393-1.176-3.1223-.791-.8829-1.706-1.312-2.797-1.3117l-3.543.0008z"/><path d="m134.476 42.492-3.245.0008c-.231 0-.418-.2087-.418-.4661l-.003-14.9166c0-.2575.187-.4662.418-.4663l6.967-.0016c.23-.0001.417.2086.417.4661l.001 3.4231c0 .2575-.187.4663-.418.4663l-3.304.0008.002 11.0272c0 .2575-.187.4662-.417.4663zm-2.828-.9317 2.41-.0006-.002-11.0272c0-.2575.187-.4663.417-.4663l3.305-.0008-.001-2.4907-6.132.0014z"/><path d="m95.344 42.3295-3.5858.0009c-.228 0-.4129-.2063-.4129-.4609l-.0029-14.7483c0-.2546.1848-.461.4128-.4611l7.0771-.0017c.228 0 .4129.2063.4129.4609l.0007 3.3845c.0001.2546-.1847.461-.4128.4611l-3.4558.0008.0001.7503c1.2757.0092 2.3906.5362 3.3141 1.5668.9319 1.0399 1.4045 2.2978 1.4045 3.7388.001 1.4549-.4715 2.7201-1.403 3.7605-.9193 1.0265-2.046 1.5471-3.349 1.5474zm-3.1731-.9211 3.173-.0008c1.0911-.0003 1.9956-.4181 2.7651-1.2773.771-.8611 1.1618-1.907 1.1616-3.1085-.0002-1.2044-.3806-2.2141-1.1628-3.087-.7825-.8731-1.6871-1.2973-2.7656-1.2971l-.3775.0001c-.228.0001-.4129-.2063-.4129-.4608l-.0003-1.672c-.0001-.2546.1847-.461.4128-.4611l3.4558-.0008-.0005-2.4627-6.2513.0015z"/></g><path d="m61.8174 35.2485c-1.4837 0-1.9082-1.906-3.2312-2.3107v8.6425c0 .2413.1752.4369.3913.4369h2.7149c.1637 0 .31-.1137.3669-.2849l2.3485-7.0668v6.9148c0 .2413.1752.4369.3914.4369h2.4623c.2161 0 .3913-.1956.3913-.4369v-9.3419c-4.2146 0-3.8124 3.0101-5.8354 3.0101z" fill="url(#e)"/><path d="m52.5936 33.2524c-.0002-.0005-.0002-.0004-.0005-.0009-1.7501-.0131-1.7137 1.2409-3.506 1.2409-2.0872 0-2.3854-1.8497-4.9287-1.8497-.8099 0-1.5532.2712-2.1702.6142v8.3539c0 .2244.1629.4064.364.4064h6.4601c.201 0 .364-.182.364-.4064v-5.2407l2.5697 5.4305c.063.1332.1869.2166.3218.2166h3.0799c.2807 0 .4557-.3398.3146-.6107l-3.5565-6.8263z" fill="url(#f)"/><path d="m87.2555 33.7765c-.9815-.5719-1.9839-1.2948-3.7542-1.2948-3.2632 0-3.7265 2.2398-7.6812 2.2398-1.5724 0-2.4538-.706-3.5345-1.3688v.6735c0 3.0472-.6871 4.3684-1.6224 4.3684h-.2863v6.0973c0 .222.1613.4021.3602.4021h2.5246c.1989 0 .3602-.1801.3602-.4021v-2.4747h11.8201v2.4747c0 .222.1613.4021.3602.4021h2.5247c.1989 0 .3601-.1801.3601-.4021v-5.6952c0-.2221-.1612-.4021-.3601-.4021h-1.0714z" fill="url(#g)"/><path d="m55.7817 42.4896-3.932.0009c-.1548 0-.297-.0955-.3693-.2483l-1.4751-3.1316-.5624-1.2789-.0728.0309.2243 1.2869.0006 2.8753c.0001.2575-.1869.4663-.4175.4663l-7.1881.0018c-.2306 0-.4176-.2087-.4177-.4661l-.0029-14.9166c0-.2574.1869-.4662.4176-.4663l7.1881-.0017c.2306-.0001.4176.2086.4177.4661v2.8524l-.2376 1.237.0695.0338.3342-.7066 1.7191-3.6348c.0723-.1528.2144-.2485.3692-.2485l3.9321-.001c.1492 0 .2871.0889.3618.2332.0745.1443.0745.3221-.0002.4663l-3.7521 7.2464 3.7543 7.2024c.0752.1442.0756.3222.0012.4668-.0745.1447-.2126.2338-.362.2339zm-3.6805-.9316 2.9544-.0007-3.511-6.7355c-.0754-.1445-.0756-.3231-.0006-.4678l3.5109-6.7808-2.9564.0007-2.5536 5.3991c-.0896.1895-.2833.2864-.4697.2348-.1863-.0515-.3171-.2381-.3172-.4524l-.0009-5.1807-6.353.0015.0027 13.9842 6.3529-.0016-.001-5.1808c0-.2142.1308-.4009.3171-.4525s.38.0451.4697.2346z" fill="#1d1d1b"/><path d="m88.6888 45.3605-3.245.0008c-.2306 0-.4176-.2087-.4176-.4661l-.0005-2.4106-10.985.0026.0005 2.4106c0 .2575-.1869.4663-.4175.4663l-3.245.0008c-.2306 0-.4176-.2086-.4177-.4661l-.0012-6.4994c-.0001-.2575.1869-.4662.4175-.4663l.2863-.0001c.7431-.0001 1.2045-1.4955 1.204-3.9024l-.0013-6.9256c0-.2575.1869-.4662.4175-.4663l14.9699-.0036c.2306 0 .4176.2087.4177.4661l.002 10.8278 1.014-.0003c.2306 0 .4176.2087.4176.4661l.0013 6.4994c0 .2575-.1869.4662-.4175.4663zm-2.8275-.9317 2.4097-.0006-.0011-5.567-1.0139.0003c-.2306 0-.4176-.2086-.4177-.4661l-.002-10.8278-14.1347.0034.0012 6.4594c.0008 3.9731-1.1393 4.7541-1.9077 4.8287l.001 5.5733 2.4098-.0006-.0005-2.4106c0-.2574.1869-.4662.4176-.4663l11.8201-.0028c.2306-.0001.4176.2086.4177.4661z" fill="#1d1d1b"/><path d="m67.654 42.4888-3.2449.0008c-.2306 0-.4176-.2087-.4177-.4662l-.0008-3.7303.2152-1.4283-.0735-.0232-1.775 5.3444c-.0607.1828-.2168.3041-.3914.3041l-3.3785.0008c-.2306.0001-.4176-.2086-.4177-.4661l-.0029-14.9165c0-.2575.1869-.4662.4175-.4663l3.245-.0008c.2306 0 .4177.2087.4177.4661l.0404 3.5927-.2153 1.4283.0747.0231.443-1.3371 1.2914-3.87c.0608-.1825.2168-.3036.3913-.3037l3.3785-.0008c.2306 0 .4176.2087.4177.4661l.0028 14.9166c.0001.2574-.1868.4662-.4175.4663zm-2.8275-.9318 2.4098-.0005-.0027-13.9842-2.6708.0007-2.3406 7.0273c-.0704.2114-.2662.3365-.4653.2963-.1989-.0399-.3436-.2331-.3437-.4587l-.0013-6.8642-2.4098.0006.0027 13.9841 2.6704-.0006 2.3408-7.0482c.0703-.2117.2661-.3366.4653-.2969.199.0399.3438.2331.3439.4588z" fill="#1d1d1b"/></svg>