<svg fill="none" height="72" viewBox="0 0 180 72" width="180" xmlns="http://www.w3.org/2000/svg"><g clip-rule="evenodd" fill-rule="evenodd"><g fill="#fd2221"><path d="m60.9907 44.1804c.0031.1687-.0295.3362-.0955.4915s-.1641.295-.2877.4098c-.2323.249-.5568.3897-.8949.3877-.3351-.0042-.6549-.1414-.889-.3812-.2341-.2399-.3633-.563-.3594-.8981v-6.5078c.0113-.3428-.0463-.6845-.1696-1.0047-.1232-.3202-.3095-.6123-.5478-.8591-.4949-.4744-1.1531-.7407-1.8387-.7439-.6863-.0006-1.3459.2662-1.8387.7439-.2472.2426-.4427.5329-.5744.8533s-.1971.6642-.1921 1.0105v6.4975c.0022.1669-.0289.3326-.0914.4874-.0624.1549-.155.2958-.2724.4145-.115.1219-.2536.2189-.4074.2853-.1539.0664-.3196.1006-.4871.1006-.1676 0-.3333-.0342-.4871-.1006-.1539-.0664-.2925-.1634-.4075-.2853-.1237-.1149-.2218-.2546-.2878-.4101-.0661-.1554-.0986-.323-.0954-.4918v-6.4975c-.0136-.6992-.2954-1.3665-.7871-1.8638-.4949-.4773-1.1557-.7439-1.8432-.7439s-1.3483.2666-1.8432.7439c-.2475.2425-.443.5327-.5747.8532-.1318.3204-.197.6642-.1918 1.0106v6.4975c.004.1663-.0253.3318-.0862.4866-.0608.1549-.1519.2961-.268.4153-.1142.123-.2527.221-.4067.2878-.154.0667-.3202.1007-.4881.0999-.1681.0031-.3349-.03-.4892-.0969-.1542-.0668-.2923-.166-.405-.2908-.1239-.1149-.2221-.2546-.2882-.41-.0662-.1554-.0988-.3231-.0957-.4919v-6.4975c-.0096-.6769.1189-1.3486.3775-1.9743.2587-.6256.6422-1.1919 1.127-1.6644.4703-.4883 1.0357-.8751 1.6614-1.1363.6256-.2612 1.2981-.3913 1.9761-.3824.736-.0233 1.4673.1251 2.1362.4332.6688.3082 1.2567.7677 1.7173 1.3423.4647-.5725 1.0549-1.0304 1.7249-1.3383s1.4019-.4574 2.139-.4372c.6767-.0118 1.3486.1169 1.973.3781.6245.2612 1.1879.6492 1.6547 1.1393.4851.4723.8687 1.0386 1.1273 1.6643.2586.6256.3867 1.2975.3766 1.9744.0079.0331.0079.0676 0 .1007z"/><path d="m73.0643 37.6536c-.231-.8229-.7603-1.5302-1.4845-1.9839-.656-.4399-1.4324-.6651-2.222-.6445-.8103.0051-1.5993.2603-2.2592.7307-.6598.4705-1.1582 1.1332-1.4272 1.8977zm-7.3936 2.5484c.2558.7793.7487 1.4592 1.4097 1.9448.6611.4856 1.4573.7525 2.2774.7635.1704.0129.3413.0129.511 0h.6884c.5893-.1447 1.1506-.3858 1.6613-.7135.142-.0995.308-.1594.4808-.1733.1729-.014.3463.0185.5024.0939.1623.0536.3116.1404.4386.2548.1269.1144.2287.2539.2988.4097.3149.6433.1084 1.2097-.6096 1.7059-.7007.4338-1.4586.7676-2.2517.9916h-1.68c-.8495.0111-1.6922-.1532-2.4753-.4826-.7832-.3293-1.49-.8167-2.0763-1.4316-.606-.5932-1.0843-1.3041-1.4055-2.0889-.3212-.7849-.4785-1.6271-.4622-2.475-.0226-3.5548 2.8155-6.4529 6.3393-6.4755h.0794c1.6129-.04 3.1774.5549 4.3652 1.6562.6566.603 1.1756 1.3404 1.5216 2.162s.5109 1.7082.4835 2.5992c-.0098.3328-.1348.6517-.3535.9026-.2566.224-.584.3501-.9245.3562z"/><path d="m80.2407 38.9426c-.0092.5141.0882 1.0245.286 1.4991.1979.4745.492.903.8636 1.2583.3492.3736.7728.67 1.2435.8699s.9781.2989 1.4894.2907c.5156.0074 1.0272-.092 1.5026-.2917s.9044-.4955 1.26-.8689c1.5426-1.4955 1.591-3.9697.1097-5.5258-.3692-.3885-.8153-.6958-1.3098-.9023s-1.0267-.3076-1.5625-.2971c-2.1355-.0058-3.8722 1.7342-3.8832 3.8884zm-2.5278-11.6349c.0001-.1684.034-.3352.0999-.4902.0658-.1551.1622-.2953.2833-.4124.2374-.2387.5607-.3677.8949-.3567.3309.0099.6478.1362.8948.3567.2194.2497.3439.5697.3536.9033v6.4271c1.1094-.8641 2.4777-1.3289 3.8838-1.3194 3.5226-.0232 6.3975 2.8413 6.4194 6.3968v.1297c.031 1.7161-.6452 3.3684-1.8684 4.5625-.5845.6004-1.2823 1.0788-2.0531 1.4075s-1.5991.5011-2.437.5072-1.6687-.1542-2.4442-.4715c-.7755-.3174-1.4802-.7855-2.0734-1.3773l-.0646-.0659c-.6072-.593-1.0876-1.3032-1.4121-2.0875-.3244-.7843-.4863-1.6263-.4756-2.475v-11.6349z"/><path d="m102.488 37.6535c-.228-.8219-.754-1.5294-1.475-1.9839-.429-.2898-.911-.4916-1.418-.5937-.5073-.1021-1.0298-.1026-1.5372-.0013-.5075.1013-.9898.3023-1.419.5914s-.7967.6605-1.0813 1.0926c-.1839.2774-.3329.5794-.4432.8949zm-7.3834 2.5483c.2576.784.7549 1.4673 1.4219 1.9533.6669.486 1.4697.7501 2.2949.7551.1696.0129.3406.0129.5103 0h.6983c.588-.1466 1.149-.3876 1.661-.7135.142-.0995.308-.1594.481-.1733.173-.014.346.0185.502.0939.326.1097.593.351.738.6645.304.6433.108 1.2097-.61 1.7059-.701.4338-1.459.7676-2.252.9916h-1.6893c-.848.0098-1.6889-.1551-2.4705-.4844-.7815-.3294-1.4868-.8161-2.0721-1.4298-.606-.5932-1.0843-1.3041-1.4055-2.0889-.3212-.7849-.4785-1.6271-.4622-2.475.0206-3.609 2.9361-6.5194 6.5148-6.4981 1.5918.0091 3.1228.6074 4.2998 1.6794.651.6058 1.164 1.3444 1.505 2.1659.341.8214.501 1.7066.47 2.5954-.009.3328-.134.6519-.353.9026-.257.224-.584.3502-.925.3561z"/><path d="m107.187 27.3677c-.001-.1687.033-.3359.099-.4913.066-.1553.163-.2955.285-.4119.114-.1211.253-.2165.408-.2798.154-.0633.32-.0931.486-.0873.333.0101.651.1408.895.3678.222.2471.347.5677.354.9019v16.7826c.005.1666-.024.3326-.084.4879-.061.1553-.153.2966-.27.4153-.233.2452-.557.3864-.895.3864-.338-.0094-.659-.1486-.897-.3888s-.374-.5628-.38-.9008z"/></g><path d="m113.626 45.4194c-.335-.0096-.654-.15-.887-.3911s-.363-.5639-.361-.8993c.004-.3272.138-.6395.372-.8681.234-.2287.549-.355.876-.3512.167-.0062.333.0234.488.0868.154.0635.293.1593.407.2809.247.2323.385.56.384.9026.004.1675-.028.3339-.094.4878-.066.154-.165.2917-.29.4038-.112.1226-.252.2178-.407.2782s-.322.0837-.488.0696zm6.342-1.2697c-.009.3333-.134.6531-.354.9032-.234.2445-.558.3845-.896.3865-.168.0044-.335-.0279-.49-.0948-.154-.0669-.292-.1666-.403-.2923-.124-.1157-.223-.2555-.29-.4107-.068-.1552-.103-.3226-.104-.4919v-5.2071c-.008-.8493.156-1.6915.482-2.4758s.807-1.4943 1.415-2.0874c.583-.6092 1.286-1.091 2.065-1.4153.778-.3242 1.615-.4837 2.458-.4686.34.0058.666.1322.924.3568.219.2496.344.569.354.9025-.007.3335-.132.6535-.354.9026-.242.2516-.576.3916-.924.3871-2.152.0265-3.884 1.7949-3.884 3.9678v5.1774z" fill="#1a1a1a"/><path d="m136.395 40.2618c-.006.6792-.147 1.3504-.414 1.9751-.266.6248-.653 1.1907-1.139 1.6656-.477.4825-1.045.8655-1.671 1.1269-.626.2615-1.298.3961-1.976.3961-.679 0-1.351-.1346-1.977-.3961-.626-.2614-1.194-.6444-1.671-1.1269-.485-.4789-.87-1.049-1.133-1.6774-.263-.6283-.399-1.3026-.4-1.9839v-6.4858c.009-.3331.134-.6526.354-.9033.247-.2204.563-.3467.894-.3567.341.0064.668.1329.924.3574.22.2497.344.569.354.9026v6.4464c-.007.3499.057.6976.189 1.0217s.329.618.578.8635c.482.5206 1.161.8129 1.868.8026.353.0051.703-.0636 1.029-.2018.325-.1382.617-.3429.859-.6008.251-.2441.449-.5377.581-.8621.132-.3245.195-.6729.186-1.0231v-6.4471c0-.1676.034-.3334.1-.4878.065-.1544.16-.2943.28-.4115s.262-.2095.418-.2714c.155-.0619.322-.0923.489-.0893.331.0065.648.1329.895.3574.225.2471.354.5678.363.9026v6.5065z" fill="#1a1a1a"/></g></svg>