<svg fill="none" height="72" viewBox="0 0 180 72" width="180" xmlns="http://www.w3.org/2000/svg"><path d="m63.7635 28c-1.1985 0-2.6366 1.1444-3.8024 3.0661-1.242 2.0081-1.9611 4.4697-1.9611 6.6181 0 3.1525 1.7759 6.3158 5.7635 6.3158s5.7635-3.1633 5.7635-6.3158c0-2.1484-.7191-4.6208-1.9611-6.6073-1.1658-1.9325-2.604-3.0769-3.8024-3.0769zm31.1272 4.7072h4.0311v10.4183h4.3252v-10.4183h4.031v-3.8543h-12.3873zm21.6263 0h6.341v-3.8543h-6.341c-5.828 0-8.934 2.8718-8.934 7.1471s3.116 7.1471 8.934 7.1471h6.341v-3.865h-6.341c-2.702 0-4.456-.9609-4.456-3.2821s1.754-3.2928 4.456-3.2928zm-30.4186-3.8435-2.3098 8.529-2.3097-8.529h-7.6375v14.2942h4.3254v-11.6383l3.1486 11.6167h4.9573l3.1486-11.6275v11.6275h4.3254v-14.2726z" fill="#ce2329"/></svg>