<svg fill="none" height="72" viewBox="0 0 180 72" width="180" xmlns="http://www.w3.org/2000/svg"><clipPath id="a"><path d="m38 30h103.333v20h-103.333z"/></clipPath><g clip-path="url(#a)" fill="#000"><path d="m137.116 39.4634c.001.0307-.004.0615-.015.0902-.011.0288-.028.0549-.05.0766-.022.0218-.049.0388-.078.0498s-.061.0158-.092.0142h-3.269c-.062-.0026-.121-.0274-.167-.0699-.045-.0424-.073-.0996-.078-.1609v-7.3861c0-.0612.024-.1199.068-.1632s.104-.0676.166-.0676h3.28c.062 0 .122.0243.166.0676s.069.102.069.1632zm3.679-7.9977-1.008-.981c-.322-.2902-.736-.4615-1.172-.4847h-9.49l.071 11.5407h9.478c.434-.0377.845-.2117 1.171-.4963l.996-1.004c.291-.3196.464-.726.492-1.1541v-6.2204c-.028-.4304-.206-.8381-.503-1.1541"/><path d="m126.103 30.1038h-2.343c-.123-.0015-.245.021-.358.0661-.114.0451-.217.112-.305.1969-.087.0848-.156.1858-.203.2972-.047.1113-.072.2308-.072.3515v4.7779l-4.417-5.401c-.092-.0969-.205-.1728-.33-.2226-.126-.0498-.261-.0723-.396-.066h-2.343c-.123-.0015-.244.021-.358.0661-.113.0451-.217.112-.304.1969-.087.0848-.157.1858-.204.2972-.047.1113-.071.2308-.071.3515v9.6942c0 .2449.098.4797.274.6529.176.1731.414.2704.663.2704h2.343c.249 0 .487-.0973.663-.2704.175-.1732.274-.408.274-.6529v-7.1437l4.218 5.101v1.9966c0 .2448.099.4797.275.6528.176.1732.414.2704.662.2704h2.344c.248 0 .487-.0972.662-.2704.176-.1731.275-.408.275-.6528v-9.6942c-.012-.2378-.118-.4614-.296-.6232-.177-.1617-.411-.2487-.653-.2424z"/><path d="m108.096 39.5095c0 .0612-.025.1199-.069.1632s-.104.0676-.166.0676h-3.28c-.062 0-.122-.0243-.166-.0676s-.068-.102-.068-.1632v-7.386c0-.0613.024-.12.068-.1632.044-.0433.104-.0677.166-.0677h3.28c.062 0 .122.0244.166.0677.044.0432.069.1019.069.1632zm4.217 1.1541v-9.6827c0-.2448-.098-.4797-.274-.6528-.176-.1732-.414-.2704-.663-.2704h-10.31c-.249 0-.487.0972-.663.2704-.176.1731-.274.408-.274.6528v9.6827c0 .2448.098.4797.274.6528s.414.2704.663.2704h10.31c.249 0 .487-.0973.663-.2704s.274-.408.274-.6528z"/><path d="m97.1062 30.1039h-2.3433c-.1317-.0009-.2625.0253-.3833.077-.1213.0517-.23.1276-.3196.223l-3.9833 4.824-3.9013-4.7663c-.0933-.1159-.2129-.2087-.3496-.2708-.1362-.0621-.2854-.0919-.4354-.0869h-2.3433c-.1225-.0016-.2442.0209-.3579.066-.1134.0451-.2167.1121-.3042.1969-.0871.0848-.1563.1858-.2033.2972-.0475.1114-.0717.2309-.0717.3516v9.6942c0 .2448.0987.4796.2746.6528.1754.1731.4141.2704.6625.2704h2.3433c.2483 0 .4871-.0973.6625-.2704.1758-.1732.2746-.408.2746-.6528v-7.1437l2.8121 3.4622v3.6815c0 .2448.0987.4796.2741.6528.1759.1731.4142.2704.663.2704.2487 0 .487-.0973.6629-.2704.1754-.1732.2741-.408.2741-.6528v-3.6815l2.8121-3.4622v7.0975c0 .2448.0988.4797.2746.6528.1754.1731.4142.2704.6625.2704h2.3433c.2484 0 .4867-.0973.6625-.2704.1759-.1731.2746-.408.2746-.6528v-9.6942c0-.1207-.0241-.2402-.0716-.3516-.0471-.1114-.1163-.2124-.2034-.2972-.0875-.0848-.1908-.1517-.3046-.1969-.1133-.0451-.235-.0675-.3575-.066"/><path d="m75.8068 39.5095c0 .0612-.0247.1199-.0686.1632-.044.0433-.1035.0676-.1657.0676h-3.2804c-.0621 0-.1218-.0243-.1657-.0676s-.0686-.102-.0686-.1632v-7.386c0-.0613.0247-.12.0686-.1632.0439-.0433.1036-.0677.1657-.0677h3.2804c.0622 0 .1217.0244.1657.0677.0439.0432.0686.1019.0686.1632zm3.7139-7.9746-.9958-.9925c-.3272-.2818-.7382-.4518-1.1716-.4847h-9.5132v11.5868h9.4781c.4333-.0328.8443-.2029 1.1715-.4847l.9959-.9925c.2981-.3159.4761-.7236.5036-1.1541v-6.3012c-.0275-.4304-.2055-.8381-.5036-1.154"/><path d="m57.3075 32.1235c-.0016-.0298.003-.0596.0135-.0875.0105-.028.0266-.0535.0474-.0751.0209-.0216.0459-.0388.0737-.0505.0278-.0118.0578-.0178.088-.0178h3.7491c.0621 0 .1217.0244.1656.0677.044.0432.0687.1019.0687.1632v3.993c0 .0612-.0247.1199-.0687.1632-.0439.0433-.1035.0677-.1656.0677h-3.7491c-.0302 0-.0602-.006-.088-.0178-.0278-.0117-.0528-.0289-.0737-.0505-.0208-.0216-.0369-.0472-.0474-.0751-.0105-.028-.0151-.0577-.0135-.0875zm7.4864 7.6168h-7.2638c-.0302.0001-.0602-.006-.088-.0177s-.0528-.0289-.0737-.0505c-.0208-.0217-.0369-.0472-.0474-.0752-.0105-.0279-.0151-.0577-.0135-.0874v-1.0848c-.0016-.0298.003-.0595.0135-.0875.0105-.0279.0266-.0535.0474-.0751.0209-.0216.0459-.0388.0737-.0505s.0578-.0178.088-.0177h7.2638c.2486 0 .487-.0973.6628-.2705.1757-.1731.2745-.408.2745-.6528v-6.2897c0-.2448-.0988-.4797-.2745-.6528-.1758-.1732-.4142-.2704-.6628-.2704h-10.7668c-.2486 0-.487.0972-.6628.2704-.1757.1731-.2745.408-.2745.6528v9.6827c0 .2448.0988.4797.2745.6528.1758.1731.4142.2704.6628.2704h10.7668c.2486 0 .487-.0973.6628-.2704.1757-.1731.2745-.408.2745-.6528 0-.2449-.0988-.4797-.2745-.6529-.1758-.1731-.4142-.2704-.6628-.2704z"/><path d="m46.904 36.1166c0 .0612-.0247.1199-.0686.1632-.044.0433-.1036.0675-.1657.0675h-4.2177c-.0621 0-.1218-.0242-.1657-.0675s-.0686-.102-.0686-.1632v-3.9931c0-.0612.0247-.12.0686-.1632.0439-.0433.1036-.0676.1657-.0676h4.2177c.0621 0 .1217.0243.1657.0676.0439.0432.0686.102.0686.1632zm4.1122 4.3739-1.9213-2.3082h1.0895c.2486 0 .487-.0972.6628-.2704.1758-.1731.2745-.408.2745-.6528v-6.2897c-.0121-.2357-.1165-.4576-.2914-.6191-.1748-.1614-.4063-.2497-.6459-.2465h-11.2471c-.1226-.0015-.2442.021-.3578.0661-.1137.0451-.2171.1121-.3043.1969s-.1564.1858-.2036.2972c-.0473.1113-.0716.2309-.0716.3516v9.6941c0 .2449.0987.4797.2745.6529.1758.1731.4142.2704.6628.2704h2.3431c.2486 0 .487-.0973.6628-.2704.1757-.1732.2745-.408.2745-.6529v-2.5274h1.6402l2.7766 3.4622h4.1474c.5507-.0923.6561-.5424.2343-1.0617"/><path d="m141.31 47.3572h-8.108v.9232h8.108z"/><path d="m71.4487 46.3878h-1.2302c0-.3116-.1054-.4732-.6209-.4732h-2.0737c-.3514 0-.5858.1385-.5858.5193 0 .3809.2461.5194.5858.5194h2.226c1.1716 0 1.6754.1154 1.6754 1.5118 0 1.0617-.4687 1.5234-1.6754 1.5234h-2.4486c-1.3004 0-1.687-.4501-1.687-1.4195h1.1715c.0205.1408.0951.2685.2085.3566.1135.0881.257.1298.4008.1165h2.0385c.5389 0 .7381-.1731.7381-.577s-.0703-.5655-.7732-.5655h-1.7574c-1.3942 0-1.898-.2423-1.898-1.5118 0-1.0156.5272-1.4195 1.8863-1.4195h2.0737c1.2301 0 1.7456.45 1.7456 1.4195z"/><path d="m74.6704 44.9683 1.6871 4.0277h.0702l1.6988-4.0277h2.2847v5.0202h-1.242v-4.0277h-.1522l-1.7574 4.0277h-1.734l-1.7456-4.0277h-.164v4.0277h-1.1716v-5.0202z"/><path d="m80.88 49.9885 2.7063-5.0202h1.8041l2.6829 5.0202h-1.4291l-.6563-1.2695h-3.0225l-.6562 1.2695zm4.6158-2.2158-.9725-1.8696-1.0075 1.8696z"/><path d="m93.0408 49.9885v-.7732c0-.4963-.2579-.7156-.9725-.7156h-2.3433v1.4888h-1.1712v-5.0202h3.8074c1.0546 0 1.8159.3347 1.8159 1.7657.02.266-.0409.5318-.1742.7639-.1337.2321-.3337.4201-.5754.5402.5154.1731.8317.3693.8317.9117v1.0387zm-3.3391-2.4928h2.5541c.5271 0 .703-.2193.703-.7617s-.1642-.7732-.703-.7732h-2.5541z"/><path d="m100.328 44.9683v.9925h-2.1205v4.0277h-1.1717v-4.0277h-2.1908v-.9925z"/><path d="m104.628 46.8956h3.151v-1.9273h1.172v5.0202h-1.172v-2.1004h-3.151v2.1004h-1.231v-5.0202h1.231z"/><path d="m113.907 49.9885h-2.25c-1.359 0-1.874-.4963-1.874-1.708v-1.5811c0-1.3849.492-1.7888 1.874-1.7888h2.25c1.265 0 1.839.3693 1.839 1.7888v1.5811c0 1.2463-.41 1.708-1.839 1.708zm-1.957-.9925h1.617c.785 0 .96-.1731.96-.854v-1.3387c0-.7271-.245-.9002-.972-.9002h-1.581c-.762 0-.973.1962-.973.9117v1.3387c0 .6578.211.8425.949.8425z"/><path d="m118.897 44.9683 1.688 4.0277h.082l1.687-4.0277h2.273v5.0202h-1.172v-4.0277h-.164l-1.746 4.0277h-1.792l-1.746-4.0277h-.105v4.0277h-1.172v-5.0202z"/><path d="m125.552 44.9683h5.237v.9463h-4.019v1.0964h3.867v.8771h-3.867v1.154h4.019v.9464h-5.237z"/></g></svg>