<svg fill="none" height="72" viewBox="0 0 180 72" width="180" xmlns="http://www.w3.org/2000/svg"><path d="m74.4418 27.8845-6.2705 6.9672c-.0948.1054-.2299.1655-.3717.1655h-3.9173c-.4325 0-.661-.512-.3721-.8339l10.5594-11.7685c.1987-.2215.5456-.2215.7443 0l10.5595 11.7685c.2888.3219.0603.8339-.3722.8339h-3.7431c-.1393 0-.2724-.0581-.367-.1605z" fill="#ef5024"/><g fill="#280804"><path d="m48.5856 34.3039c0 .8559-.9293.8916-1.2482.8916-.1783 0-.535 0-.8024-.2675-.1819-.1818-.2675-.6241-.2675-.8916v-10.1641c0-.4458.3566-.8024.8916-.9807.4458-.1486.8024-.0001 1.3374.3566l10.6099 8.9159v-8.381c0-.5349.1783-.8915 1.1591-.8915.8588 0 1.159.1783 1.159.8915v8.8268c0 .8024.0892 1.7832-.2675 2.229-.3566.4458-1.6048.4458-2.2289 0l-10.3425-8.7376z"/><path d="m94.4687 48.5238c0 .7285-.8085.7588-1.086.7588-.1551 0-.4654 0-.6981-.2276-.1582-.1548-.2327-.5312-.2327-.7589v-8.6508c0-.3795.3103-.683.7757-.8348.3879-.1264.6981 0 1.1636.3036l9.2308 7.5884v-7.1331c0-.4553.155-.7589 1.008-.7589.748 0 1.009.1518 1.009.7589v7.5126c0 .6829.077 1.5176-.233 1.8971-.31.3794-1.396.3794-1.939 0l-8.9983-7.4367z"/><path d="m98.8713 22.9808c-.5634.169-6.3006 3.2691-9.0942 4.8146v-4.0122c0-.6241-.535-.8916-1.0699-.8916-.7133 0-1.1591.2675-1.1591.7133v10.6991c0 .6241.4458.8916 1.0699.8916.7846 0 1.1591-.2675 1.1591-.8916v-4.1013c2.3181 1.3076 7.1505 4.0121 7.9351 4.3688.9808.4457 2.5858 1.2482 3.2988.4457.713-.8024-1.0698-1.8723-2.1397-2.3181-.8559-.3566-5.0524-2.645-7.0436-3.7447 2.0804-1.0699 6.5086-3.3523 7.5785-3.923 1.3378-.7132 1.5358-1.2088 1.2478-1.7831-.222-.4458-.8911-.535-1.7827-.2675z"/><path d="m102.794 25.923v2.229c0 1.3671.036 4.2796.179 4.9929.178.8916 1.159 1.3374 1.783 1.6049.473.2026 1.516.4457 2.496.4457h3.299 5.261c.356 0 .891 0 .891-.9807s-.535-.9807-.891-.9807h-1.738-7.446c-1.284 0-1.545-.8619-1.516-1.1591v-1.9615h4.904 5.706c.803 0 .981-.3567.981-.8024 0-.4458-.089-.8916-.446-.9808-.285-.0713-1.07-.0892-1.426-.0892h-9.719c-.029-.6538-.071-2.0328 0-2.3181.09-.3566.535-.7133 1.249-.8916.852-.213 2.407-.0891 3.477-.1783s1.159-.3566 1.248-.8916c.089-.5349-.178-.8024-.446-.9807-.267-.1784-1.872-.0892-3.655 0-1.783.0891-2.497.5349-3.299 1.159-.657.5107-.892 1.3671-.892 1.7832z"/><path d="m78.3647 41.3628v1.9038c0 1.1677.0311 3.6553.1555 4.2645.1554.7615 1.0104 1.1423 1.5545 1.3707.4122.1731 1.3214.3808 2.1764.3808h2.876 4.586c.3109 0 .7773 0 .7773-.8377 0-.8376-.4664-.8376-.7773-.8376h-1.5149-6.4912c-1.1192 0-1.3473-.7362-1.3213-.99v-1.6754h4.275 4.9746c.6996 0 .8551-.3046.8551-.6853 0-.3808-.0778-.7615-.3887-.8377-.2487-.0609-.9327-.0762-1.2436-.0762h-8.4724c-.026-.5584-.0622-1.7362 0-1.9799.0777-.3046.4663-.6092 1.0882-.7615.7426-.1819 2.0986-.0762 3.0314-.1523.9327-.0762 1.0104-.3046 1.0882-.7616.0777-.4569-.1555-.6853-.3887-.8376s-1.6323-.0762-3.1868 0c-1.5546.0761-2.1764.4569-2.876.99-.5724.4361-.7773 1.1676-.7773 1.523z"/><path d="m121.874 41.3628v1.9038c0 1.1677.031 3.6553.156 4.2645.155.7615 1.01 1.1423 1.554 1.3707.413.1731 1.322.3808 2.177.3808h2.876 4.586c.311 0 .777 0 .777-.8377 0-.8376-.466-.8376-.777-.8376h-1.515-6.491c-1.12 0-1.348-.7362-1.322-.99v-1.6754h4.275 4.975c.7 0 .855-.3046.855-.6853 0-.3808-.078-.7615-.389-.8377-.248-.0609-.932-.0762-1.243-.0762h-8.473c-.026-.5584-.062-1.7362 0-1.9799.078-.3046.467-.6092 1.089-.7615.742-.1819 2.098-.0762 3.031-.1523.933-.0762 1.01-.3046 1.088-.7616.078-.4569-.155-.6853-.389-.8376-.233-.1523-1.632-.0762-3.186 0-1.555.0761-2.177.4569-2.876.99-.573.4361-.778 1.1676-.778 1.523z"/><path clip-rule="evenodd" d="m118.308 25.2097v-1.4266c-.059-.2972.089-.8916 1.159-.8916h9.005c.892-.0297 2.907.0892 3.834.8025 1.159.8916 1.248 1.9615 1.248 2.4073v5.4387c0 .9807-.356 2.0506-1.248 2.7639-.535.3566-1.337.8916-2.764.8916h-10.075c-.386 0-1.159-.1605-1.159-.8024zm2.318-.535v8.4701h7.846c.892 0 2.229 0 2.675-1.0699.267-.8024.267-4.4579.178-6.1519 0-.535-.695-1.2483-2.05-1.2483z" fill-rule="evenodd"/><path d="m46.6241 39.7427c-.5706.4993-.6241 1.0699-.6241 1.6048v1.2483c0 .4458.0949.8081.4458 1.159.4458.4458 1.2482.7133 2.3181.8916 1.071.1785 3.6628.1784 4.5936.1783h.0427c.8916 0 1.3374 0 1.8724.1784.4279.1426.7244.4124.8024.8024s.0892.9807-.1783 1.4265-.8024.4458-1.3374.4458h-3.1206-4.9037c-.3567 0-.535.2675-.535.535v.7132c0 .3567.3566.3567.6538.3567h7.9946c1.2483 0 2.0507-.1783 2.5856-.6241.506-.4217.7133-1.0699.8025-1.6941.0504-.353.0891-1.2482-.1783-2.0506-.1892-.5674-.7133-1.5157-2.1399-1.694-.8156-.102-3.6555-.1783-4.3687-.1783-.7133 0-2.0507 0-2.5857-.1784-.5349-.1783-.7132-.5349-.7132-1.159 0-.8025.6241-1.0699 1.0699-1.1591s2.1398 0 2.7639-.0892c.6241-.0891.4458-.7132.4458-1.159 0-.3567-.7133-.5053-1.0699-.535-.2378-.0297-.9629-.0713-1.9615 0-1.2482.0892-1.9615.3567-2.6748.9808z"/><path d="m71.3212 40.4559h-6.0628c-.5053 0-1.6584.0179-2.229.0892s-.7133.5647-.7133.8024v5.1713c0 1.159 2.3181 1.159 2.4073 1.159h6.5086c.9808 0 1.0699.1783 1.0699.8025 0 .6241-.6241.8024-1.2482.8024h-5.7953c-1.6941 0-2.8531-.1783-3.5664-.535-.9484-.4742-1.4266-1.0699-1.4266-2.0506v-5.2069c0-1.1591.6242-1.8367 1.1591-2.1933.6687-.4458 1.9912-.4458 2.6748-.4458h7.4002c.7133 0 .8024.4458.8024.9807 0 .428-.6538.5944-.9807.6241z"/><path d="m118.843 40.4559h-6.063c-.505 0-1.658.0179-2.229.0892-.57.0713-.713.5647-.713.8024v5.1713c0 1.159 2.318 1.159 2.407 1.159h6.509c.981 0 1.07.1783 1.07.8025 0 .6241-.624.8024-1.248.8024h-5.796c-1.694 0-2.853-.1783-3.566-.535-.949-.4742-1.427-1.0699-1.427-2.0506v-5.2069c0-1.1591.624-1.8367 1.159-2.1933.669-.4458 1.992-.4458 2.675-.4458h7.4c.714 0 .803.4458.803.9807 0 .428-.654.5944-.981.6241z"/><rect height="10.5208" rx="1.06991" width="2.13982" x="74.2634" y="38.7618"/></g></svg>