<svg fill="none" height="72" viewBox="0 0 180 72" width="180" xmlns="http://www.w3.org/2000/svg"><path d="m80.3197 44.5267 3.7577-16.9325h4.6315l-2.0194 9.0053 3.7383-4.5152h5.1817l-4.6474 5.6462 1.9161 6.7962h-4.6212l-1.9103-6.4394-1.5121 6.4394zm-16.7237-8.5102 3.2628 8.5102h4.4381l3.8266-16.9325h-4.5736l-1.9336 8.6137-3.2033-8.6198h-4.6348l-3.7782 16.9386h4.6612c.5296-2.7126 1.2367-5.5805 1.9348-8.5102zm14.505 8.5102 2.7738-12.4354h-4.5511l-2.7717 12.4354zm-1.5437-15.1587c0 .3895.0918 1.7693 2.5813 1.7693 2.0682 0 2.8666-1.3252 2.8666-2.3147 0-.6665-.5451-1.8226-2.5829-1.8226-1.8774 0-2.865 1.2565-2.865 2.368zm43.7567 2.5567c-1.944-.582-4.355.3806-5.545 2.0271.115-.5105.239-1.1051.379-1.7867h-4.616l-2.701 12.3616h4.595l1.532-7.0135c.282-1.2873 1.318-1.8394 2.238-1.6014.396.1047.94.4056.759 1.4809l-1.558 7.134h4.539l2.081-9.5207c.442-2.0988-1.283-2.9565-1.703-3.0813zm-15.445 11.4798c1.993-1.631 2.979-4.3866 2.946-6.9807-.032-2.4939-2.144-4.8598-5.817-4.8598-7.0069 0-8.0256 5.4588-8.2301 6.4553-.5114 2.5212.058 5.7897 3.3486 6.6588 2.1736.5739 5.5675.5103 7.7525-1.2736zm-5.1394-7.2085c.3304-.9049 1.2264-1.1061 1.6324-1.1101 1.002-.0079 1.277.5881 1.19 1.1479-.241 1.5544-.778 3.5278-.979 4.1574-.002.0061-.004.0141-.004.022-.221.6876-.869 1.0881-1.6289 1.0881-.7748 0-1.2414-.486-1.1755-1.104.1157-1.0434.7757-3.6803.965-4.2013z" fill="#000"/></svg>