<svg width="180" height="72" viewBox="0 0 180 72" fill="none" xmlns="http://www.w3.org/2000/svg">
<path d="M138.852 25H138.35V46.5155H138.852V25Z" fill="black"/>
<path d="M147.291 38.2175H145.583V33.2485H148.547V33.7454H146.186V35.3355H147.291C148.296 35.3355 148.949 35.733 148.949 36.7268V36.7765C148.899 37.7206 148.296 38.2175 147.291 38.2175ZM147.241 37.7703C147.994 37.7703 148.296 37.4224 148.296 36.8262V36.7765C148.296 36.1802 147.944 35.8324 147.191 35.8324H146.136V37.7703H147.241Z" fill="black"/>
<path d="M149.501 37.2236C149.501 36.3789 150.406 36.0808 151.36 36.0808H151.913V35.8323C151.913 35.2361 151.712 34.9876 151.109 34.9876C150.607 34.9876 150.305 35.1864 150.255 35.6336H149.652C149.753 34.7889 150.406 34.4907 151.109 34.4907C151.812 34.4907 152.465 34.7889 152.465 35.7826V38.2174H151.862V37.7702C151.611 38.118 151.26 38.3168 150.707 38.3168C150.004 38.3168 149.501 37.969 149.501 37.2236ZM151.862 36.9752V36.528H151.36C150.607 36.528 150.104 36.7267 150.104 37.2236C150.104 37.6212 150.305 37.8199 150.808 37.8199C151.36 37.8199 151.862 37.5218 151.862 36.9752Z" fill="black"/>
<path d="M155.831 36.6276H154.022V38.2177H153.419V34.5903H154.022V36.1307H155.831V34.5903H156.433V38.2177H155.831V36.6276Z" fill="black"/>
<path d="M157.991 36.3792V38.2177H157.388V34.5903H157.991V36.2798L159.498 34.5903H160.201L158.644 36.2798L160.352 38.2177H159.648L157.991 36.3792Z" fill="black"/>
<path d="M30.9006 25.0498C24.8726 25.0498 20 29.8697 20 35.8324C20 41.7951 24.8726 46.615 30.9006 46.615C36.9286 46.615 41.8012 41.7951 41.8012 35.8324C41.8012 29.8697 36.9286 25.0498 30.9006 25.0498ZM29.3936 40.4038L28.5899 42.7392C25.5759 41.7455 23.5666 38.9132 23.5666 35.733C23.5666 32.5529 25.5759 29.7703 28.6401 28.7268L29.4438 31.0622C27.4345 31.7082 26.1285 33.5964 26.1285 35.6833C26.028 37.8697 27.3843 39.7579 29.3936 40.4038ZM33.1109 42.7889L32.3574 40.4038C34.4169 39.7579 35.7732 37.8697 35.7732 35.733C35.7732 33.5964 34.4169 31.7579 32.4076 31.1119L33.2113 28.7268C36.2756 29.7206 38.3351 32.5529 38.3351 35.733C38.3351 39.0125 36.2253 41.8448 33.1109 42.7889Z" fill="#00BEF0"/>
<path d="M130.714 37.7702L131.919 39.2112C130.664 40.5032 129.106 40.851 127.851 40.851C126.645 40.851 125.791 40.6522 125.038 40.3044C123.43 39.5094 122.626 37.9193 122.626 35.9814C122.626 33.0497 124.636 30.8634 127.599 30.8634C130.915 30.8634 132.522 33.2982 132.271 36.4783H124.736C124.786 37.2733 125.238 38.0187 125.891 38.4162C126.444 38.764 127.097 38.9131 127.951 38.9131C128.905 38.9131 129.86 38.615 130.714 37.7702ZM124.786 34.7392H130.111C129.96 33.5963 129.006 32.6025 127.499 32.6025C125.942 32.6025 124.987 33.6957 124.786 34.7392ZM74.2015 40.5528H76.9141L72.6443 35.6336L76.8639 31.0125H74.2015L70.9866 34.6895H70.0321V31.0125H67.9726V40.5032H70.0321V36.7268H70.9866L74.2015 40.5528ZM83.0426 32.7516C81.2844 32.7516 80.129 34.0932 80.129 35.7827C80.129 37.4721 81.2844 38.8137 83.0426 38.8137C84.8007 38.8137 85.9058 37.5218 85.9058 35.7827C85.9561 34.1429 84.8509 32.7516 83.0426 32.7516ZM83.3942 30.8137C86.1068 30.8137 88.1161 32.9007 88.1161 35.7827C88.1161 38.615 86.157 40.8013 83.3942 40.8013C82.0881 40.8013 81.0332 40.3541 80.2797 39.5591V44.528H78.1699V31.0622H80.2295V32.205C81.0332 31.2609 82.0881 30.8137 83.3942 30.8137ZM110.771 31.0622H102.181V32.9504H105.447V40.5528H107.556V32.9504H110.822V31.0622H110.771ZM66.5158 31.0622H57.8757V32.9504H61.1409V40.5528H63.2507V32.9504H66.5158V31.0622V31.0622ZM55.364 35.8324C55.364 34.0435 54.1082 32.7516 52.35 32.7516C50.6421 32.7516 49.3361 34.0435 49.3361 35.8324C49.3361 37.6212 50.5919 38.9131 52.35 38.9131C54.058 38.9131 55.364 37.6212 55.364 35.8324ZM47.176 35.8324C47.176 33.0001 49.3863 30.8634 52.35 30.8634C55.2636 30.8634 57.5241 33.0001 57.5241 35.8324C57.5241 38.6647 55.3138 40.851 52.35 40.851C49.4365 40.8013 47.176 38.6647 47.176 35.8324ZM120.969 31.0622V40.5528H118.909V34.441L113.886 40.5528H112.228V31.0622H114.288V37.174L119.311 31.0622H120.969V31.0622ZM100.725 40.5528H98.6651V31.0622H100.725V40.5528ZM95.3999 37.323C95.3999 36.4783 94.7971 35.882 93.9934 35.882H91.8836V38.8137H93.9934C94.7971 38.8137 95.3999 38.1678 95.3999 37.323ZM97.4595 37.323C97.4595 39.2112 96.053 40.5528 94.0436 40.5528H89.824V31.0622H91.8836V34.1429H94.2446C96.2539 34.1429 97.4595 35.4348 97.4595 37.323Z" fill="black"/>
</svg>
