<svg fill="none" height="72" viewBox="0 0 180 72" width="180" xmlns="http://www.w3.org/2000/svg"><g fill="#280804"><path d="m150.958 29.0542c-.515 0-.933-.4228-.933-.9439 0-.5219.418-.9457.933-.9457v-.421h-.006c-.612.0009-1.039.2843-1.251.8338l-9.744-3.5692c-.011-.0036 1.072.588 2.363 1.2916l5.079 2.8638c2.71 1.474 3.349 3.8911 3.559 6.2706zm.001-1.8896c.514 0 .932.4229.932.9457 0 .5211-.418.9439-.932.9439h-.001v5.38l.018.2063v.011-.0055l.001.0065v-.0138c.191-2.4455.786-4.9589 3.575-6.4751l5.661-3.1849-.1.045 1.887-1.0237-9.805 3.5811c-.201-.5-.657-.8311-1.237-.8375v.421z"/><path d="m40.7403 32.7726-.6549 2.4437h4.5342v2.7234h-5.2414l-.7229 2.695-.0944.344h-.3422-3.5334-.344l.0927-.344 2.7436-10.2415.0926-.3431h.344 7.0054v2.7225zm12.6596 7.9832-.0597.2229h.0597zm-8.7803-5.5395h2.4629c.6568 0 1.1292-.0954 1.4126-.2844.1211-.0834.2293-.1953.3211-.3384.1064-.1633.1935-.3642.2614-.5999h-.0009c.0651-.2431.0908-.444.0752-.6045-.0138-.1413-.0578-.2541-.1321-.3358l-.0018.001c-.0211-.023-.0441-.0441-.0716-.0615-.0339-.0239-.0688-.044-.1046-.0596h-.0009c-.232-.1074-.599-.1606-1.1035-.1606h-3.1178v-2.7225h4.1434v-.0009h.0064v.0009c.4247 0 .8136.0156 1.1659.0422.0752.0046.133.0092.1752.0138l-.001.0018c.3046.0275.5825.0651.8311.1092h.0037c.0899.0165.1752.0348.2559.0532.0752.0183.1578.0385.244.0633.4109.1165.7669.2779 1.0696.4825l.0036.0036c.0551.0367.1129.0808.1716.1321.055.0468.1073.0954.155.1459.2541.2623.4311.5852.5311.964.0092.0312.0174.0633.0248.0964v1.2704c-.0294.1816-.0716.3706-.1248.5669l-.0009.0009h-.0009c-.1046.3954-.2541.7485-.4431 1.0576-.0266.0441-.0605.0945-.1027.1551-.178.2605-.3908.4898-.6329.687l-.0037.0046-.0018.0018v-.0018c-.0698.056-.1468.1147-.2303.177-.0807.0587-.1642.1156-.2477.1707-.1779.1155-.3641.2247-.5613.3265.2009.0642.3605.1193.4788.1651l.0027.0028c.1441.0578.2761.1348.3963.2321.1165.0953.2211.2109.3119.3458l.0037.0018c.0981.1532.1577.3321.1724.5375.0138.1954-.011.4119-.0752.6504l-.5696 2.1244-.0918.344h-.344-3.5334-.3439l.0935-.344.4266-1.5905c.0513-.1927.0577-.3559.0156-.4871-.0413-.1284-.1285-.2339-.2642-.3174-.1532-.0963-.3835-.1706-.6898-.2211-.3192-.0523-.7247-.0789-1.2118-.0789h-1.208zm8.7803-1.7878c.0275-.166.0458-.3265.0541-.4797h-.0018c.0183-.2881 0-.5513-.0523-.7907zm18.1678 2.9372-.1201.4449c-.1239.4568-.2046.8677-.2422 1.2328-.0073.0761-.0147.1513-.0184.2256-.0036.0661-.0045.1395-.0055.2165l-.0009.0019v.0798l.0019.0064.0009.0807v.0046l.0018.0385v.0074l.0055.0752v.0073l.0064.0706h.001v.0056c.0082.0715.0183.1375.0275.1963l.0064.0339.0018.0046.0055.033.0019.0055.0018.0073v.001l.0018.0055.023.1045.0036.0037c.0643.2348.1633.4467.2963.6339zm0-6.3165v1.4502l-.222.8293-.0917.344h-.344-11.1469l-.4164 1.5538h10.7827.344l-.0936.344-.4779 1.7851-.0917.3449h-.3431-10.7818l-.4431 1.6548h11.1442.3449l-.0917.3449-.5201 1.9345-.0908.344h-.344-15.0014-.2834v-.2229l.0321-.1211 2.7445-10.2415.0936-.344h.3421zm0 1.4502v-1.4502h.0459.3421l-.0908.344zm0 8.3933c.0441.0632.0927.1229.145.1797v-.0009c.0477.0523.0963.1009.1431.144l.0018.001c.0514.0458.1055.0899.1605.1302h.0009l.0037.0018c.0569.0422.1147.0817.1715.1147l.0028.0009.0293.0184.0055.0036.0294.0166.0064.0027.0019.0009c.2183.1211.4513.2064.687.2706h.0009c.233.0624.4669.1046.6907.1349.4119.0568.8861.0853 1.42.0853h8.9454v-.0009c.5862 0 1.1054-.0276 1.5567-.0826.0651-.0083.1559-.0202.2632-.0376.1009-.0156.1844-.0294.2523-.0422l.0092-.0018h.0009c.0871-.0166.166-.034.2376-.0505v-.0018l.0431-.0101h.0027l.0413-.0092h.0018l.0046-.0018c.3257-.0817.6458-.1991.9448-.3605h.0019c.0477-.0257.1045-.0587.1706-.1009l.0835-.0523h.0055l.0853-.0596c.2054-.1468.3944-.3165.5613-.51h.001c.0284-.0322.0605-.0707.0954-.1147v-.0009c.0394-.0505.0715-.0908.0899-.1174l.0064-.0092v-.0009-.0009c.1981-.2761.3797-.611.5467-1.0026.0303-.0707.0624-.1496.0945-.2349.0339-.088.0651-.1706.0917-.2467l.0018-.0028c.0367-.1055.0661-.1908.0899-.2614v-.0009l.0138-.0459v-.0027l.0147-.0441h.0009l.0009-.0027.0257-.0835.0036.0009.0248-.0889.044-.1413-.0055-.0018.0193-.067v-.0009l.0009.0009.0422-.1477h-3.9297c-.033.0972-.0688.1835-.1073.2614-.0055.012-.0165.034-.0348.0652-.0138.0266-.023.0431-.0312.0559l-.0009-.0009-.001.0028-.0302.0467-.0083.012-.0092.0119-.0302.0385-.0037.0037-.0037.0027-.0082.0101-.0009.0009.0009.001c-.0936.1027-.2046.1678-.3275.2109-.1367.0496-.3.0734-.4687.0927l-.0679.0064-.0229.0028-.0156.0009c-.0835.0082-.1725.0128-.2697.0183l-.0652.0018-.11.0028h-.178-.011-.3247v.0009h-6.7825v-.0009h-.3238c-.2504 0-.4632-.0101-.6384-.0303h-.0018c-.0276-.0027-.0615-.0082-.0982-.0128-.0358-.0055-.0642-.011-.0853-.0147l-.0092-.0018h-.0018c-.1523-.0275-.244-.0807-.2834-.1578-.0532-.1009-.056-.2669-.0175-.4898v-.0009c.0037-.0175.0101-.0514.0211-.1046v-.0019l.0046-.0238h-.0009l.0046-.0183h.0009l.0009-.0056v-.0027l.0202-.0771h-.0009l.0247-.0926.0028-.0101.0881-.3165h-.0037l.5724-2.1097c.066-.2404.1339-.4458.2055-.6137.0128-.0303.0275-.0615.0403-.0908l.0009-.0009c.0147-.0294.0276-.0569.0395-.0798l.0018-.0037c.0853-.1633.2156-.2688.3688-.3385.1532-.0679.3348-.1055.5237-.1284l.0908-.0073c.1202-.0101.2349-.0175.3422-.0211l.077-.0028.0808-.0027h.0146.244.0138v-.0019h7.4282v.0019c.2303 0 .4266.0101.5871.0321.022.0027.0523.0082.0899.0146.0238.0037.0514.0101.0816.0166l.0009-.001.0065.001v.0009c.1055.0229.1889.0513.2476.0844l.0239.0137.0137.0119v-.0009.0009c.0074.0056.0147.0175.0202.0349h.0019l.0036.0138v.0036l.0037.0202h.0009l.0009.0037v.0018c.0101.0716.0046.1605-.0137.2669-.0028.0175-.0083.0422-.0156.0725v.0018c-.0037.0166-.0101.0432-.0193.078h.0009l-.0027.0083-.0633.2348h3.9205c.1201-.4651.1844-.8852.1899-1.2613.0018-.0816 0-.1587-.0037-.2311-.0037-.0826-.011-.1578-.0174-.2248l-.0019-.0073c-.0082-.0679-.022-.1413-.0376-.2174v-.0046l-.0082-.0358-.0009-.0046-.0092-.0357-.0009-.0064-.0019-.0055c-.0174-.0725-.0403-.1422-.0642-.2083l-.0009-.0027-.0073-.0184v-.0073l-.0184-.0422-.0018-.0064-.0009-.0028-.0019-.0036-.0027-.0056-.0046-.01-.0239-.0578-.0018-.0046h-.0009c-.1385-.3101-.3348-.5761-.588-.7944-.055-.0477-.1101-.0917-.1651-.1312-.055-.0403-.1147-.0789-.1761-.1155l-.0037-.0028c-.0587-.0349-.1211-.0688-.1853-.1l-.0027-.0009-.0321-.0156-.0046-.0037-.0321-.0146-.0028-.001-.0027-.0009h-.001c-.2247-.1009-.4595-.1743-.6962-.2293-.2238-.0514-.4586-.0881-.688-.1165l-.0018-.0009c-.1596-.0193-.332-.0358-.5183-.0486h-.0027l-.1046-.0055h-.0018c-.1211-.0074-.2495-.0129-.3834-.0156v-.0037h-.3064v-.0009h-.0174v.0009h-8.3777v-.0018c-.5879 0-1.12.0284-1.5933.0853h-.0009c-.0936.0119-.1835.0238-.2724.0367-.0771.0119-.1642.0266-.2606.0449l-.01.0019c-.0698.0128-.1285.0247-.1734.0339-.034.0083-.078.0174-.1294.0303h-.0018l-.0413.0101c-.2375.0568-.4715.1311-.6999.2265-.2311.0963-.4522.2128-.6586.3541l-.0009.0018c-.2238.1514-.4284.3266-.6109.5238-.0358.0395-.0716.0789-.1064.1193-.0294.0348-.0624.0752-.0982.122v-.001l-.0009.0019h.0009c-.1137.1449-.2229.3054-.3256.4797-.1027.1725-.1991.3596-.2908.5605-.1302.2862-.2504.5971-.3596.9329-.0174.0523-.0385.1192-.0632.1999v.001c-.0184.0623-.0395.1311-.0606.2054h-.0009l-.0009.0028-.0138.0495.0009.0074-.621 2.2822zm28.4543-9.8435v2.7234h-1.5208c-.3715 0-.6925.012-.9641.0358-.2678.0239-.499.0615-.6943.1101h-.0019-.0018c-.0523.0119-.1.0257-.145.0404-.0421.0128-.0834.0284-.1293.0467-.1935.0771-.3467.1798-.4605.3082l-.0045.0065h-.0019c-.0238.0256-.0449.0523-.0679.0816-.0174.0257-.0422.0587-.0688.1018-.1256.1991-.2394.4559-.3348.7705h.0019l-.7018 2.6125h-.0018c-.0468.1981-.0734.3715-.078.5201-.0036.1339.011.2458.0468.3357.0321.0826.089.1532.167.2128.088.0652.2045.1202.3531.1596l.0028.0019c.1632.0458.3742.0807.6265.1027.2632.022.5724.0349.9292.0349h3.0499v2.7243h-4.6295-.0073v-.0018c-.5055-.0009-.965-.0165-1.3732-.0505-.0312-.0027-.0982-.0091-.2009-.0192-.3449-.0321-.6549-.078-.9329-.1339l-.0018-.001c-.0972-.0192-.189-.0403-.2761-.0614-.0881-.023-.1743-.0459-.2596-.0734-.4385-.1339-.7971-.3146-1.0787-.5339l-.001-.0018c-.1999-.1587-.3595-.3403-.4834-.5412-.1238-.2073-.21-.4357-.255-.6843-.0431-.2403-.0559-.5109-.0303-.8072.0248-.2899.0808-.6018.1697-.9338l.8329-3.1106c.0991-.3696.2165-.7136.3541-1.0282.1376-.3229.2945-.6119.4697-.8641.1788-.2615.3834-.4981.6191-.7109.233-.2128.4899-.3963.7687-.5504.2725-.1532.5724-.2834.9017-.3898.3174-.1037.6642-.1881 1.0366-.2496h.0009c.3651-.0605.7723-.1054 1.2209-.1366.4495-.0294.9329-.0459 1.453-.0459zm9.3 10.0058-.155.5797-.091.344h.246zm0-8.562v2.6712l-.798 2.9711c-.091.344-.2.6641-.326.9613-.129.3009-.272.5715-.432.8127l-.001.0019v.0009c-.048.0715-.097.1403-.144.2018-.047.0605-.099.1256-.16.1935-.281.322-.617.5963-1.003.8192-.267.1531-.563.2852-.887.3935-.314.1073-.663.1926-1.048.2596h-.004-.001c-.121.0211-.23.0403-.322.0541h-.001c-.11.0156-.223.0284-.341.0431-.587.067-1.257.1-2.014.1v.0018h-1.818v-2.7243h1.6.006v.0027c.364 0 .692-.0156.985-.0376.069-.0055.113-.0092.133-.011.216-.0229.403-.0514.558-.0871.164-.0386.307-.0908.427-.1551.104-.0568.188-.1238.254-.1972l.001-.0009v-.0018c.019-.0202.037-.0459.057-.0716.025-.0339.046-.0633.062-.0917.112-.1816.21-.4256.292-.732l.7-2.6124v-.0028h.001c.059-.2211.092-.4146.099-.5834 0-.0266.001-.0514 0-.0734-.002-.1156-.02-.211-.051-.288-.011-.0266-.023-.0505-.037-.0716-.012-.0211-.028-.044-.049-.0669-.098-.1165-.252-.2037-.463-.2605h-.002c-.166-.045-.38-.0808-.636-.1037-.264-.0238-.575-.0358-.933-.0358h-3.004v-2.7234h4.747.006v.0009c.647 0 1.221.0275 1.724.0817.105.011.186.0201.241.0266.405.0522.766.1266 1.082.2192h.002c.383.1147.705.2743.964.4779.227.1789.404.3917.534.6375zm0 2.6712.037-.1395c.193-.7228.252-1.3374.178-1.8446-.015-.1-.036-.1991-.061-.2917-.025-.0918-.057-.1816-.093-.266v-.001-.0018c-.019-.044-.039-.0853-.061-.1266zm10.03-4.115v2.7234h-3.878l-.656 2.4437h4.534v2.7225h-5.242l-.724 2.6959-.091.344h-.344-3.532-.097v-.9237l2.59-9.6618.092-.344h.343zm8.704 10.425-.042.1605-.093.344h.135zm0-8.5822v1.9098c-.014.0633-.031.1285-.047.1936v.0009h-.003c-.105.3954-.254.7485-.443 1.0576h-.002c-.041.0661-.074.1184-.098.1551h-.003c-.18.2605-.39.4898-.633.687l-.005.0046v.0018-.0018c-.069.056-.146.1147-.231.177-.079.0587-.165.1156-.249.1707-.176.1155-.362.2247-.559.3265.206.0651.365.1211.478.1651l.001.0028c.146.0578.278.1348.398.2321.119.0972.222.2118.312.3458l.004.0018c.1.1532.156.3321.171.5375.014.1954-.009.4119-.074.6504l-.569 2.1244-.092.344h-.343-3.533-.344l.092-.344.425-1.5905h.002c.053-.1927.056-.3559.015-.4871-.04-.1284-.128-.2339-.263-.3174-.153-.0963-.384-.1706-.69-.2211-.321-.0523-.725-.0789-1.212-.0789v-.0009h-1.209v-2.7225h2.463c.658 0 1.13-.0954 1.413-.2844.121-.0834.228-.1953.321-.3384.106-.1633.193-.3642.262-.5999h-.001c.12-.4532.101-.7669-.058-.9403h-.001l-.001-.0018-.001-.0009c-.018-.0193-.042-.0385-.069-.0578-.032-.022-.067-.0431-.106-.0596-.231-.1074-.599-.1606-1.104-.1606h-3.118v-2.7234h4.144.007v.0009c.425 0 .814.0156 1.166.0422.076.0046.133.0092.175.0138v.0018c.304.0275.581.0651.83.1092h.001c.09.0165.177.0348.258.0532.076.0183.158.0385.245.0633.411.1165.768.2779 1.068.4825l.005.0036c.054.0367.112.0808.171.1321.055.0468.107.0954.156.1459.213.222.374.4871.478.7943zm0 1.9098c.073-.3036.117-.5889.131-.853.019-.3275-.007-.6229-.079-.888-.015-.0578-.032-.1137-.052-.1688zm0 7.1769v-.5045l2.703-10.081.09-.344h.345 11.336.006v.0009c.474 0 .903.0193 1.283.0523v.0018c.085.0074.147.012.188.0175.324.0348.617.0825.882.1422h.001c.088.0201.175.0431.264.066.093.0266.177.0523.249.078.418.1412.762.3302 1.028.5641l.001.0009c.055.0477.106.0982.151.145.044.0467.089.099.133.1577.215.2789.354.6091.418.987.047.2587.055.5449.03.8586-.024.3055-.084.6403-.175 1.0026v.0046l-.726 2.7115c-.128.4733-.288.9035-.483 1.2916-.2.3981-.435.7512-.707 1.0613-.277.3173-.604.5916-.975.8219-.365.2265-.774.41-1.226.5512-.441.1386-.933.2422-1.478.311-.542.0679-1.135.1018-1.772.1018h-4.795-.343l.092-.344.545-2.0363.092-.344h.345 3.272c.431 0 .808-.0138 1.126-.0422.319-.0275.592-.0688.821-.1248l.002-.0018c.218-.0514.4-.1147.549-.1899.13-.0642.235-.1357.316-.2211h.001c.085-.088.162-.1972.228-.3265.073-.1422.135-.3036.186-.4935l.718-2.684c.07-.2523.081-.4642.039-.6339-.039-.1632-.13-.2962-.276-.3999v-.0018c-.157-.1138-.415-.2027-.773-.2651-.381-.0642-.87-.0973-1.469-.0973v-.0018h-5.978l-1.187 4.4324-.376 1.3952-.544 2.0363-.092.344h-.343-3.513z"/><path d="m44.2223 43.3662v.7769h-.0092l-.9668 1.5383h.976v.7825h-1.4475l-.6348 1.0448h-1.3649l2.5904-4.1425zm-10.2223 4.1425v-4.1425h1.9648l2.9794 3.3187h.1624v-3.3187h1.1686v4.1425h-2.0052l-2.9381-3.317h-.1624v3.317zm13.1695-.8054-2.0712-3.3371h-.876v.7769h.0459l.9292 1.5383h-.9751v.7825h1.4456l.6284 1.0448h.8732zm0-2.5134h-.4999v-.8237h.4999zm6.6697 3.3188h-1.1696v-4.1425h1.1696zm-6.6697-3.3188h1.5438v3.3188h1.1687v-3.3188h2.063v-.8237h-4.7755zm0 3.3188v-.8054l.5.8054zm10.4443-4.1425v.8237h-.754c-.2467 0-.4357.0211-.5678.0642-.1303.0413-.2238.1147-.2779.2202-.0542.1045-.0844.2586-.0909.4614v1.0567c.0028.1834.0312.3238.0863.4238.0523.099.1431.1678.2715.2082.1293.0413.3165.0605.5595.0605h.7733v.8238h-1.0567c-.3266 0-.6054-.0276-.8329-.0808-.2275-.0522-.4128-.1375-.5568-.2504-.144-.1146-.2477-.2596-.3137-.4366-.0661-.178-.0991-.3935-.0991-.6476v-1.2576c0-.288.0321-.5256.0973-.7128.0632-.1871.1669-.3357.3054-.4476.1394-.1119.3211-.1899.5458-.2376.2257-.0477.5091-.0715.854-.0715zm3.6628 4.1425v-4.1425h1.9648l2.9794 3.3187h.1614v-3.3187h1.1695v4.1425h-2.0061l-2.9381-3.317h-.1623v3.317zm-3.6628 0v-.8238h.7742c.2568 0 .4486-.0192.5751-.0587.1294-.0385.2174-.1064.2651-.2045.0505-.0973.0743-.2431.0743-.4348v-1.0567c0-.2037-.0284-.3578-.0871-.4624-.0605-.1054-.155-.1779-.2862-.2173-.1302-.0413-.3183-.0606-.5614-.0606h-.754v-.8237h1.0907c.4219 0 .7604.0431 1.0154.1275.2541.0853.4421.2348.5669.4485.1229.2129.1853.511.1853.8935v1.2576c0 .2688-.0275.4898-.0853.6659-.0578.1762-.1532.3193-.2853.4293-.1339.1101-.3137.1917-.5421.2422-.2284.0514-.5137.078-.8549.078zm13.8832-4.1425v.7769h-.0082l-.966 1.5383h.9742v.7825h-1.4466l-.6329 1.0448h-1.3649l2.5904-4.1425zm3.8435 4.1425v-4.1425h1.1677v3.3187h3.0224v.8238zm-3.8435-1.0448v-.7825h.9769l-.9301-1.5383h-.0468v-.7769h.8779l2.5702 4.1425h-1.3732l-.6274-1.0448zm13.9905-3.0977v.8237h-1.5851v2.495h1.5851v.8238h-2.7537v-4.1425zm0 4.1425v-.8238h.5201c.2871 0 .5082-.0238.6623-.0724.1532-.0477.2587-.122.3174-.222.0569-.1.0844-.2367.0844-.411v-1.0851c0-.2477-.0752-.4266-.2257-.5375-.1504-.111-.4302-.167-.8384-.167h-.5201v-.8237h1.0201c.3045 0 .5641.0275.7806.0835.2174.0559.3953.144.5338.2641.1404.1202.2431.2752.3119.4642.0679.1889.1037.4219.1073.699v1.097c0 .3624-.0559.6541-.1687.8788-.1129.2257-.2963.3917-.5495.4972-.2541.1055-.5889.1587-1.009.1587zm6.6366-4.1425v.7769h-.0091l-.966 1.5383h.9751v.7825h-1.4465l-.6348 1.0448h-1.364l2.5895-4.1425zm17.4909 4.1425v-4.1425h4.993v.7824h-3.824v.9072h3.704v.7219h-3.704v.9485h3.824v.7825zm-2.578-.0055h-2.176c-.455 0-.811-.0459-1.068-.1349-.258-.0899-.44-.2403-.549-.4513-.11-.211-.165-.5036-.165-.8769v-1.176c.006-.4036.065-.7136.182-.9283.116-.2155.305-.366.571-.4513.266-.0862.647-.1284 1.142-.1284h1.922c.418 0 .764.0394 1.039.1174.274.0798.486.2238.636.432.151.2074.227.4981.227.8706h-1.213c0-.2174-.068-.3715-.205-.4624-.137-.0899-.364-.1348-.683-.1348h-1.498c-.277 0-.48.0156-.609.0477-.129.0312-.219.0963-.267.1963-.049.0982-.075.2578-.075.4779v1.0265c0 .2063.032.3632.095.4724.063.1082.162.1825.293.2201.132.0395.317.0587.556.0587h1.501c.233 0 .412-.0156.537-.0458.127-.0312.218-.0909.276-.1771.057-.088.086-.2165.086-.3852h1.213c-.002.3797-.051.6714-.147.8723-.095.2036-.268.3467-.518.433-.25.0844-.618.1275-1.103.1275zm-11.0291.0055v-4.1425h1.9658l2.9793 3.3187h.161v-3.3187h1.169v4.1425h-2.006l-2.9381-3.317h-.1623v3.317zm-3.8838-1.0448v-.7825h.9751l-.9292-1.5383h-.0459v-.7769h.877l2.5702 4.1425h-1.3732l-.6274-1.0448zm28.4629-3.0977v.8237h-1.556v1.2659h1.556v.8237h-1.55v1.2292h-1.176v-4.1425zm0 2.9133v-.8237h.888c.245 0 .417-.0486.515-.1459.099-.0981.15-.2614.152-.4871 0-.2265-.046-.388-.143-.487-.096-.0973-.271-.1459-.524-.1459h-.888v-.8237h.986c.272 0 .513.022.72.0651.207.044.388.1202.54.2275s.271.2568.354.4476c.085.1908.126.4293.126.7164 0 .2862-.064.5119-.192.6724-.128.1624-.301.2981-.52.4082.21.0688.362.122.451.1605.09.0404.171.1064.243.1991.072.0945.109.2229.109.3862v.8595h-1.176v-.644c0-.2054-.072-.355-.215-.4476-.142-.0917-.38-.1376-.714-.1376zm6.622-2.9133v.7769h-.01l-.966 1.5383h.976v.7825h-1.448l-.634 1.0448h-1.365l2.591-4.1425zm0 3.0977v-.7825h.975l-.929-1.5383h-.046v-.7769h.877l2.57 4.1425h-1.373l-.629-1.0448zm6.601-3.0977v.8237h-1.584v2.495h1.584v.8238h-2.753v-4.1425zm4.923 4.1425h-1.169v-4.1425h1.169zm-4.923 0v-.8238h.521c.288 0 .508-.0238.662-.0724.154-.0477.259-.122.317-.222.057-.1.086-.2367.086-.411v-1.0851c0-.2477-.076-.4266-.228-.5375-.15-.111-.428-.167-.837-.167h-.521v-.8237h1.02c.304 0 .566.0275.782.0835.216.0559.395.144.533.2641.14.1202.244.2752.312.4642.069.1889.104.4219.107.699v1.097c0 .3624-.056.6541-.169.8788-.113.2257-.295.3917-.549.4972-.253.1055-.589.1587-1.008.1587zm8.696-4.1425v.8237h-.752c-.248 0-.436.0211-.569.0642-.131.0413-.223.1147-.278.2202-.054.1045-.084.2586-.089.4614v1.0567c.002.1834.03.3238.084.4238.054.099.145.1678.273.2082.13.0413.317.0605.559.0605h.772v.8238h-1.055c-.327 0-.606-.0276-.833-.0808-.228-.0522-.413-.1375-.558-.2504-.143-.1146-.248-.2596-.313-.4366-.066-.178-.099-.3935-.099-.6476v-1.2576c0-.288.031-.5256.097-.7128.064-.1871.165-.3357.306-.4476.14-.1119.322-.1899.546-.2376.225-.0477.51-.0715.854-.0715zm0 4.1425v-.8238h.776c.256 0 .447-.0192.575-.0587.129-.0385.216-.1064.266-.2045.049-.0973.074-.2431.074-.4348v-1.0567c0-.2037-.029-.3578-.088-.4624-.06-.1054-.155-.1779-.285-.2173-.133-.0413-.32-.0606-.563-.0606h-.755v-.8237h1.092c.423 0 .76.0431 1.015.1275.254.0853.443.2348.568.4485.122.2129.185.511.185.8935v1.2576c0 .2688-.029.4898-.086.6659-.058.1762-.152.3193-.285.4293-.134.1101-.313.1917-.542.2422-.228.0514-.513.078-.855.078z"/></g></svg>