<svg fill="none" height="72" viewBox="0 0 180 72" width="180" xmlns="http://www.w3.org/2000/svg"><path clip-rule="evenodd" d="m73.9199 24.5137v3.9644c-2.5928-4.4577-7.4213-7.4544-12.9497-7.4544-8.2678 0-14.9702 6.7024-14.9702 14.9702s6.7024 14.9702 14.9702 14.9702c5.5284 0 10.3569-2.9967 12.9497-7.4544v5.4339c0 1.3776 1.1939 2.3879 3.1226 2.3879s9.5516 0 10.1944-.2756c.2902-.1243.4494-.1926.6128-.2046.1985-.0147.4032.0535.8567.2046.8266.2756 2.7553 0 3.49-.2755.4705-.1764.5644-.1269.8123.0039.1391.0735.3269.1726.6572.2716.9184.2756 2.7552 0 3.3981-.2755.2911-.1247.5258-.0424.8403.0681.3801.1335.877.308 1.7313.2074 1.0114-.1189 1.2134-.1608 1.4054-.2006.104-.0216.205-.0425.431-.0749.411-.0587.522-.0048.716.0896.11.0534.246.1197.478.1859.643.1837 2.664.1837 3.307-.1836.171-.0979.277-.1761.361-.2384.233-.1714.3-.2208 1.108-.2208.578 0 1.029.1766 1.527.3712.451.1766.94.3679 1.596.4553 1.377.1837 3.306-.6429 4.041-1.1021.671-.4197.806-.3023 1.315.1417.048.0417.099.0864.154.1339.643.551 2.847 1.1021 4.776 1.0102 1.476-.0703 1.823-.5172 2.11-.8878.088-.1135.17-.2199.278-.3061.341-.2726.783-.0395 1.401.2865.214.1133.451.2379.711.3564.976.4437 2.467-.0558 3.064-.2558l.059-.0198c.253-.0844.604.0059 1.078.1281.557.1435 1.286.3311 2.228.3311 1.745 0 2.204-1.0102 2.204-1.4694v-13.7763c.031-1.2858.037-3.9492-.183-4.3166-.148-.2454-.373-.3859-.566-.5056-.168-.1042-.31-.1927-.353-.3209-.039-.1189.058-.2378.203-.4158.192-.2344.467-.5712.624-1.1456.275-1.0102.275-3.9492 0-5.2349-.276-1.2858-2.021-2.8471-4.317-2.8471s-3.49 1.745-3.949 2.9389-.184 4.5921.276 5.5105c.459.9184.367 1.1021-.368 1.1021-.434 0-.675.2243-.914.4457-.166.1535-.33.3057-.555.3809-.42.14-.947-.3603-1.377-.7688v-.0001c-.134-.1274-.259-.2459-.368-.3332-.368-.2939-1.01-.3061-1.286-.2755-.031-2.0206-.092-6.2269-.092-6.8882 0-.8265-.551-1.4694-1.653-1.9286-.827-.3445-1.653-.0689-2.247.1291-.198.066-.37.1234-.508.1464-.258.0429-.576-.0547-.954-.1708-.431-.1322-.939-.2884-1.526-.2884-1.102 0-1.745 1.2858-1.929 1.8368-.093.2791-.044 2.0654.002 3.7848v.0001c.045 1.6759.089 3.2881-.002 3.3788-.096.0967-.422.0406-.857-.0342-.39-.0672-.869-.1495-1.347-.1495-.811 0-1.504.5924-1.888.9208-.094.0805-.17.1451-.224.1813-.235.1565-.136-.7541-.045-1.5951.016-.1459.031-.2897.045-.4254.056-.5589-.194-.7777-.482-1.0289-.184-.1616-.385-.3366-.528-.6243-.186-.3716-.302-1.0252-.441-1.8181-.137-.7748-.297-1.6825-.57-2.5903-.551-1.8368-2.112-1.9287-3.49-1.8368-1.377.0918-2.02 1.4694-2.3876 2.8471-.3673 1.3776-1.1021 3.6736-1.2858 4.1328-.0393.0984-.0787.1842-.118.27-.1444.3144-.2887.6288-.433 1.5669-.1837 1.1939-.9184 1.6531-1.3776 1.6531-.2045 0-.3544-.2003-.5388-.4469-.2298-.3072-.5131-.686-1.0225-.8389-.0594-.0178-.1138-.0337-.1638-.0483-.2526-.0738-.3915-.1144-.4873-.202-.1171-.1071-.17-.2844-.2874-.6783-.0614-.2059-.1404-.4711-.2555-.8163-.2189-.6567-.4957-1.6756-.7787-2.7172-.4295-1.5806-.8732-3.2135-1.15-3.7118-.4592-.8266-1.745-1.1021-3.1226-1.0102-1.3776.0918-2.1123 2.3879-2.3879 3.8573-.2755 1.4695-1.5613 5.3268-1.9287 5.7861-.2947.3684-.7077.323-1.0018.2906-.0724-.0079-.1376-.0151-.1921-.0151-.096 0-.1809-.0558-.2974-.1324-.2178-.1431-.546-.3588-1.2639-.4187-1.076-.0896-1.5392.2584-1.9025.5314l-.0262.0197c-.2939.2204-.6123.0918-.7347 0v-1.8369c.153 0 .6245-.0367 1.2858-.1836.8265-.1837 1.3776-.8266 2.0205-2.5716s-.6429-4.041-1.8368-4.6839c-1.194-.6429-4.0411-.6429-5.3269 0-1.0286.5143-1.2245 2.1123-1.1939 2.8471zm40.5941 15.9804h-2.572v1.8369h2.572z" fill="#fff" fill-rule="evenodd"/><path d="m57.2047 46.3484h6.98v2.3879h-6.98z" fill="#27386d"/><path clip-rule="evenodd" d="m60.7865 48.5762c6.8476 0 12.3987-5.551 12.3987-12.3986s-5.5511-12.3987-12.3987-12.3987-12.3986 5.5511-12.3986 12.3987 5.551 12.3986 12.3986 12.3986zm0 .7348c7.2534 0 13.1334-5.8801 13.1334-13.1334 0-7.2534-5.88-13.1334-13.1334-13.1334s-13.1334 5.88-13.1334 13.1334c0 7.2533 5.88 13.1334 13.1334 13.1334z" fill="#e51950" fill-rule="evenodd"/><circle cx="60.6948" cy="36.0857" fill="#27386d" r="11.5721"/><g clip-rule="evenodd" fill-rule="evenodd"><path d="m63.7255 44.1678c-.2939.3674-.2449 4.844-.1837 5.6705-.2722.0584-.8134.0871-1.4169.119l-.0002.0001c-.3468.0183-.7141.0378-1.0627.0646-.9551.0735-2.4185-.0306-3.0307-.1837v-4.5684c0-.5742-.4875-1.104-.8776-1.528-.1715-.1864-.3241-.3523-.4082-.4925-.2756-.4592-.3674-1.1939 0-1.6532.1147-.1434.1757-.4841.2081-.9184h-.3417c-.1242.5311-.5108.9184-.9685.9184-.5579 0-1.0102-.5756-1.0102-1.2857 0-.7102.4523-1.2858 1.0102-1.2858.4577 0 .8443.3873.9685.9184h.3726c.0059-.3104.0059-.636.0059-.9524 0-.3839 0-.7544.0105-1.0681h-.389c-.1242.5311-.5108.9184-.9685.9184-.5579 0-1.0102-.5757-1.0102-1.2858s.4523-1.2858 1.0102-1.2858c.4577 0 .8443.3873.9685.9184h.4262c.009-.5746-.0506-1.2918-.144-2.0205h-.3376c-.1622.4344-.5101.7348-.9131.7348-.5579 0-1.0102-.5757-1.0102-1.2858 0-.7102.4523-1.2858 1.0102-1.2858.509 0 .93.479 1.0001 1.1021h.1462c-.0702-.4522-.1491-.8916-.2279-1.2858-.2382-1.191-.9569-2.5879-1.3846-3.4193h-.0001v-.0001c-.067-.1302-.1269-.2466-.1766-.3461-.3275-.6549.3666-.799 1.1067-.9527.0902-.0187.1811-.0376.2709-.0576.6968-.1548.8062-.2444 1.3735-.7088.1057-.0865.2273-.1861.3715-.3014.7068-.5655 1.0329-.5326 1.4805-.4874.134.0135.2789.0282.4482.0282.3703 0 .5306.1166.6574.2088.1247.0907.2169.1578.4447.0667.0918-.0368.1873-.0845.2873-.1345.3997-.1998.8699-.4349 1.4577-.141.283.1414.6205.3647.9705.5962.5587.3696 1.1493.7603 1.6011.8732.7347.1837.9184.6429 1.0102 1.0103.048.1921-.2556.7611-.6483 1.4967-.358.6709-.79 1.4803-1.0967 2.2688-.1523.3916-.253.8295-.3181 1.2858h.3284c.07-.6231.4911-1.1021 1-1.1021.558 0 1.0103.5756 1.0103 1.2858 0 .7101-.4523 1.2858-1.0103 1.2858-.403 0-.7509-.3004-.913-.7348h-.4911c-.0474.6968-.0343 1.4012-.0131 2.0205h.4488c.1242-.5311.5108-.9184.9684-.9184.558 0 1.0103.5757 1.0103 1.2858s-.4523 1.2858-1.0103 1.2858c-.4576 0-.8442-.3873-.9684-.9184h-.4215c.0072.2038.0122.3892.0122.551 0 .4464.0771.9571.1784 1.4695h.2309c.1242-.5311.5108-.9184.9684-.9184.558 0 1.0103.5756 1.0103 1.2858 0 .7101-.4523 1.2857-1.0103 1.2857-.4576 0-.8442-.3873-.9684-.9184h-.0736c.015.067.0301.1335.045.1994.1176.5198.2259.9984.2622 1.3619.0677.6762-.4622 1.1533-.893 1.5412v.0001c-.1543.1389-.2959.2663-.3927.3874zm-1.0164-4.2247c-.0327-.4838-.0766-1.145-.0845-2.0205h-.7961c-.0215.4396-.0317.8754-.0317 1.2858 0 .2845.0146.5276.0404.7347zm-.6811.7347h.7177c-.002.2225-.0336.3378-.1223.3674-.1596.0532-.4116.014-.5954-.3674zm-2.384-.7347c.0257-.2071.0404-.4502.0404-.7347 0-.4104-.0102-.8462-.0317-1.2858h-.7961c-.0079.8755-.0518 1.5367-.0845 2.0205zm-.9085.7347h.7177c-.1839.3814-.4358.4206-.5954.3674-.0887-.0296-.1203-.1449-.1223-.3674zm.1099-3.49h.7606c-.0576-.7292-.1486-1.4359-.2785-2.0205h-.785c.1477.6233.2655 1.3176.3029 2.0205zm-.4985-2.7552h.7703c-.0244-.0649-.0496-.1262-.0757-.1837-.0964-.2121-.1726-.3838-.2354-.5252v-.0001c-.236-.5317-.2817-.6347-.4993-.8523-.22-.22-.3674-.1837-.4593-.0919-.0734.0735-.0306.2143.0001.2756.1342.2929.322.7785.4993 1.3776zm3.8068.7347c-.1299.5846-.2209 1.2913-.2785 2.0205h.7606c.0374-.7029.1552-1.3972.3028-2.0205zm.9806-.7347h-.7703c.0243-.0649.0496-.1262.0757-.1837.0964-.2122.1726-.3838.2354-.5252v-.0001c.236-.5317.2817-.6347.4993-.8523.22-.22.3674-.1837.4592-.0919.0735.0735.0306.2143 0 .2756-.1342.2929-.322.7785-.4993 1.3776zm-2.807 10.2863c0-.2029.1645-.3674.3674-.3674s.3673.1645.3673.3674v4.041c0 .2029-.1644.3674-.3673.3674s-.3674-.1645-.3674-.3674zm-1.4694 0c0-.2029.1644-.3674.3673-.3674s.3674.1645.3674.3674v4.041c0 .2029-.1645.3674-.3674.3674s-.3673-.1645-.3673-.3674zm3.3062-.3674c-.2029 0-.3674.1645-.3674.3674v4.041c0 .2029.1645.3674.3674.3674s.3674-.1645.3674-.3674v-4.041c0-.2029-.1645-.3674-.3674-.3674z" fill="#fff"/><path d="m130.678 26.5341c0 .75-.215 1.3659-.487 1.755-.276.3938-.516.4493-.615.4493s-.339-.0555-.614-.4493c-.273-.3891-.488-1.005-.488-1.755 0-.7499.215-1.3658.488-1.7549.275-.3938.515-.4493.614-.4493s.339.0555.615.4493c.272.3891.487 1.005.487 1.7549zm1.47 0c0 2.029-1.152 3.6737-2.572 3.6737s-2.571-1.6447-2.571-3.6737c0-2.0289 1.151-3.6736 2.571-3.6736s2.572 1.6447 2.572 3.6736zm-53.1546-2.3566c-.1312-.0999-.3098-.1333-.4447-.1243l-.0183.0012h-1.4878v2.1374c.5542.02 1.2445.0278 1.5752-.0195.1672-.0239.3012-.1014.408-.2658.1175-.1809.221-.5003.221-1.0255 0-.4461-.1479-.6232-.2534-.7035zm-1.9508 3.1172c.5759.02 1.318.0277 1.7311-.0313.4758-.068.8928-.32 1.1763-.7566.2728-.42.3989-.9731.3989-1.6258 0-.7318-.2653-1.2587-.6879-1.5805-.3888-.2959-.8421-.3657-1.1654-.3482h-2.5551v6.7045c0 .3043.2467.551.5511.551.3043 0 .551-.2467.551-.551zm12.3469-2.4558-.8254 2.6137h1.7883zm2.2786 2.9987-.0039-.0123-1.612-4.3757c-.2422-.6572-1.1792-.6351-1.3901.0328l-1.3743 4.352-.5742 1.7417c-.0952.289.0618.6006.3509.6959.289.0953.6006-.0618.6958-.3509l.4505-1.3664h2.5309c.0188.0572.0393.1195.0613.1858.1116.3359.2623.7783.4172 1.1986.1052.2856.422.4318.7075.3266.2856-.1052.4318-.422.3266-.7076-.1491-.4046-.2956-.8346-.4053-1.165-.0548-.1649-.1001-.3041-.1317-.4021l-.0365-.1137-.0095-.0298zm12.0779-4.7934h-1.895l-1.184 5.786h-.297c-.4053 0-.7342.329-.7342.7347v1.5613c0 .3044.2467.5511.5512.5511.304 0 .551-.2467.551-.5511v-1.1939h.369l.012.0001.009-.0001h3.835v1.1939c0 .3044.246.5511.551.5511.304 0 .551-.2467.551-.5511v-1.5613c0-.4057-.329-.7347-.735-.7347h-.146zm.302 5.786h-2.256l.958-4.6839h.134zm10.558-5.786c.304 0 .551.2467.551.551v4.2906l2.289-4.3486c.357-.6788 1.385-.4249 1.385.3422v5.6855c0 .3044-.247.5511-.551.5511-.305 0-.551-.2467-.551-.5511v-4.1987l-2.289 4.3486c-.357.6788-1.385.4249-1.385-.3422v-5.7774c0-.3043.247-.551.551-.551z" fill="#e10036"/><path d="m91.6004 34.2719c-.2043.1536-.2305.284-.2305.3443h-.0034c.0023.0303.0034.061.0034.0919v7.2555h2.5715v-7.2555c0-.0309.0012-.0616.0035-.0919h-.0034c0-.0603-.0262-.1907-.2305-.3443-.2085-.1566-.5678-.2986-1.0553-.2986s-.8468.142-1.0553.2986zm-2.6184.3443h.0035c-.0023.0303-.0034.061-.0034.0919v13.2252c0 .6594.5345 1.1939 1.1939 1.1939s1.1939-.5345 1.1939-1.1939v-3.9492h2.5715v3.9492c0 .6594.5346 1.1939 1.194 1.1939s1.1939-.5345 1.1939-1.1939v-13.2252c0-.0309-.0012-.0616-.0035-.0919h.0036c0-1.9679-1.9329-3.0308-3.6737-3.0308s-3.6737 1.0629-3.6737 3.0308zm-13.2252-1.1939c0-.7609.6168-1.3776 1.3776-1.3776.7609 0 1.3777.6167 1.3777 1.3776v13.3171h1.6531v-13.3171c0-.7609.6168-1.3776 1.3776-1.3776.7609 0 1.3777.6167 1.3777 1.3776v13.3171h1.653v-13.3171c0-.7609.6168-1.3776 1.3777-1.3776.7608 0 1.3776.6167 1.3776 1.3776v14.3273c0 .0318-.0011.0632-.0032.0945.0022.0294.0033.0592.0033.0892 0 .6594-.5345 1.1939-1.1939 1.1939h-9.1842c-.6594 0-1.194-.5345-1.194-1.1939 0-.0297.0011-.0592.0033-.0883-.0022-.0315-.0033-.0633-.0033-.0954zm25.1642 8.5413v-8.5413c0-.7609-.616-1.3776-1.3772-1.3776-.7608 0-1.3776.6167-1.3776 1.3776v14.3273c0 .7609.6168 1.3776 1.3776 1.3776.7612 0 1.3772-.6167 1.3772-1.3776v-3.7655h1.654v3.7655c0 .7609.616 1.3776 1.377 1.3776s1.378-.6167 1.378-1.3776v-14.3273c0-.7609-.617-1.3776-1.378-1.3776s-1.377.6167-1.377 1.3776v8.5413zm24.063-8.5413c0-.7609.617-1.3776 1.378-1.3776.76 0 1.377.6167 1.377 1.3776v8.5413h1.653v-8.5413c0-.7609.617-1.3776 1.378-1.3776s1.378.6167 1.378 1.3776v14.3273c0 .7609-.617 1.3776-1.378 1.3776s-1.378-.6167-1.378-1.3776v-3.7655h-1.653v3.7655c0 .7608-.617 1.3776-1.377 1.3776-.761 0-1.378-.6168-1.378-1.3776zm-15.36.8666c-.243.1736-.253.3058-.253.3273v11.4803c0 .0309-.001.0615-.004.0918h.004c0 .0216.01.1537.253.3273.241.1719.635.3156 1.124.3156.486 0 .809-.1402.985-.2798.169-.1333.209-.2624.209-.3631v-1.5613c0-.6594.535-1.194 1.194-1.194.66 0 1.194.5346 1.194 1.194v1.6531c0 .0532-.003.1056-.01.1569-.146 1.765-1.845 2.7821-3.572 2.7821-.93 0-1.822-.2675-2.512-.7604-.688-.4912-1.253-1.2775-1.253-2.2704h.003c-.002-.0303-.003-.0609-.003-.0918v-11.5721c0-.0674.006-.1336.016-.198.098-.8564.618-1.5381 1.237-1.9806.69-.4928 1.582-.7604 2.512-.7604 1.557 0 3.091.8268 3.485 2.283.063.1448.097.3045.097.4723v2.5716c0 .6594-.534 1.1939-1.194 1.1939-.659 0-1.194-.5345-1.194-1.1939v-2.2961c0-.1007-.04-.2298-.209-.3631-.176-.1396-.499-.2798-.985-.2798-.489 0-.883.1437-1.124.3156zm9.115.3273c0-.0603.026-.1907.23-.3443.209-.1566.568-.2986 1.055-.2986.483 0 .77.1384.914.259.135.1131.189.2413.189.3839h.003c-.002.0303-.003.061-.003.0919v11.4802c0 .1426-.054.2709-.189.3839-.144.1206-.431.259-.914.259-.487 0-.846-.1419-1.055-.2986-.204-.1533-.23-.2835-.23-.344v-.0003-11.4802c0-.0309-.002-.0616-.004-.0919zm4.776 11.664c0 .0511-.004.1016-.01.1511-.134 1.7204-1.69 2.7878-3.481 2.7878-1.663 0-3.503-.9709-3.662-2.7751-.007-.0536-.011-.1083-.011-.1639v-.0918-11.4802c0-.0309.001-.0616.003-.0919h-.003c0-1.9679 1.933-3.0308 3.673-3.0308 1.874 0 3.49 1.1685 3.49 3.0308h-.003c.002.0303.004.061.004.0919z" fill="#27386d"/></g></svg>